<?xml version="1.0" encoding="UTF-8" standalone="no"?>
<svg
   viewBox="0 0 182.47829 22.014176"
   version="1.1"
   id="svg1062"
   sodipodi:docname="hub-logo.svg"
   width="182.47829"
   height="22.014175"
   inkscape:version="1.1.1 (c3084ef, 2021-09-22)"
   xmlns:inkscape="http://www.inkscape.org/namespaces/inkscape"
   xmlns:sodipodi="http://sodipodi.sourceforge.net/DTD/sodipodi-0.dtd"
   xmlns="http://www.w3.org/2000/svg"
   xmlns:svg="http://www.w3.org/2000/svg"
   xmlns:rdf="http://www.w3.org/1999/02/22-rdf-syntax-ns#"
   xmlns:cc="http://creativecommons.org/ns#"
   xmlns:dc="http://purl.org/dc/elements/1.1/">
  <sodipodi:namedview
     id="namedview994"
     pagecolor="#ffffff"
     bordercolor="#666666"
     borderopacity="1.0"
     inkscape:pageshadow="2"
     inkscape:pageopacity="0.0"
     inkscape:pagecheckerboard="0"
     showgrid="false"
     inkscape:zoom="5.1724138"
     inkscape:cx="65.25"
     inkscape:cy="8.2166667"
     inkscape:window-width="1312"
     inkscape:window-height="969"
     inkscape:window-x="0"
     inkscape:window-y="25"
     inkscape:window-maximized="0"
     inkscape:current-layer="g1332" />
  <defs
     id="defs1029">
    <style
       id="style1027">.cls-1{fill:#004059;}.cls-2{fill:#fff;}.cls-3{fill:none;stroke:#000;stroke-miterlimit:10;stroke-width:0.25px;}</style>
  </defs>
  <title
     id="title1031">hub-logo koru 2</title>
  <g
     id="g1332"
     transform="translate(-38.54,-3.78)">
    <path
       class="cls-2"
       d="m 42.87,17.66 v 7.82 H 38.54 V 5.09 h 5.94 q 4.16,0 6.15,1.51 a 5.4,5.4 0 0 1 2,4.59 5.41,5.41 0 0 1 -1,3.2 6.55,6.55 0 0 1 -2.8,2.2 l 6,8.88 H 50 l -4.87,-7.82 z m 0,-3.51 h 1.39 a 5.33,5.33 0 0 0 3,-0.68 2.44,2.44 0 0 0 1,-2.15 2.23,2.23 0 0 0 -1,-2.06 6.05,6.05 0 0 0 -3.09,-0.61 h -1.3 z"
       id="path1035" />
    <path
       class="cls-2"
       d="m 64.12,25.76 a 8,8 0 0 1 -5.88,-2.08 7.87,7.87 0 0 1 -2.12,-5.88 8.65,8.65 0 0 1 2,-6.06 7,7 0 0 1 5.37,-2.14 6.87,6.87 0 0 1 5.15,1.88 7.12,7.12 0 0 1 1.84,5.2 v 2.06 H 60.42 a 4.09,4.09 0 0 0 1.07,2.83 3.78,3.78 0 0 0 2.82,1 11.69,11.69 0 0 0 2.69,-0.27 13.32,13.32 0 0 0 2.62,-0.93 v 3.29 a 10,10 0 0 1 -2.38,0.83 15,15 0 0 1 -3.12,0.27 z m -0.6,-13.14 a 2.7,2.7 0 0 0 -2.12,0.86 4,4 0 0 0 -0.88,2.43 h 6 A 3.55,3.55 0 0 0 65.7,13.48 2.79,2.79 0 0 0 63.52,12.63 Z"
       id="path1037" />
    <path
       class="cls-2"
       d="m 84.81,20.85 a 4.29,4.29 0 0 1 -1.67,3.65 8.23,8.23 0 0 1 -5,1.26 15.65,15.65 0 0 1 -2.9,-0.23 A 10.94,10.94 0 0 1 73,24.85 v -3.51 a 14.8,14.8 0 0 0 2.67,0.93 10.81,10.81 0 0 0 2.61,0.38 q 2.31,0 2.31,-1.34 a 1.12,1.12 0 0 0 -0.31,-0.82 4.45,4.45 0 0 0 -1.06,-0.71 q -0.75,-0.4 -2,-0.93 A 12.6,12.6 0 0 1 74.58,17.46 3.92,3.92 0 0 1 73.37,16 4.85,4.85 0 0 1 72.99,14 3.7,3.7 0 0 1 74.6,10.79 7.85,7.85 0 0 1 79.16,9.6 a 13,13 0 0 1 5.48,1.23 l -1.28,3.07 q -1.17,-0.5 -2.19,-0.82 a 6.88,6.88 0 0 0 -2.08,-0.32 q -1.88,0 -1.88,1 a 1.2,1.2 0 0 0 0.61,1 16.48,16.48 0 0 0 2.65,1.24 12.38,12.38 0 0 1 2.68,1.38 4.09,4.09 0 0 1 1.26,1.48 4.55,4.55 0 0 1 0.4,1.99 z"
       id="path1039" />
    <path
       class="cls-2"
       d="m 95.19,25.76 a 8,8 0 0 1 -5.88,-2.08 7.87,7.87 0 0 1 -2.12,-5.88 8.65,8.65 0 0 1 2,-6.06 7,7 0 0 1 5.37,-2.14 6.87,6.87 0 0 1 5.15,1.88 7.12,7.12 0 0 1 1.84,5.2 v 2.06 H 91.49 a 4.09,4.09 0 0 0 1.07,2.83 3.78,3.78 0 0 0 2.82,1 11.69,11.69 0 0 0 2.62,-0.27 13.32,13.32 0 0 0 2.62,-0.93 v 3.29 a 10,10 0 0 1 -2.38,0.83 15,15 0 0 1 -3.05,0.27 z m -0.6,-13.14 a 2.7,2.7 0 0 0 -2.12,0.86 4,4 0 0 0 -0.88,2.43 h 6 a 3.55,3.55 0 0 0 -0.82,-2.43 2.79,2.79 0 0 0 -2.18,-0.85 z"
       id="path1041" />
    <path
       class="cls-2"
       d="m 114.9,25.48 -0.82,-2.12 H 114 a 6.28,6.28 0 0 1 -2.21,1.88 7.14,7.14 0 0 1 -3,0.52 4.79,4.79 0 0 1 -3.53,-1.28 4.93,4.93 0 0 1 -1.26,-3.66 4.11,4.11 0 0 1 1.74,-3.66 10.06,10.06 0 0 1 5.24,-1.3 l 2.71,-0.08 V 15.1 a 2.12,2.12 0 0 0 -2.43,-2.37 11.05,11.05 0 0 0 -4.39,1.13 L 105.42,11 a 12.67,12.67 0 0 1 6,-1.41 7.44,7.44 0 0 1 4.81,1.37 5.05,5.05 0 0 1 1.67,4.16 v 10.36 z m -1.26,-7.22 -1.65,0.06 a 5.27,5.27 0 0 0 -2.76,0.67 2.1,2.1 0 0 0 -0.91,1.87 q 0,1.8 2.06,1.8 a 3.27,3.27 0 0 0 2.36,-0.85 3,3 0 0 0 0.89,-2.26 z"
       id="path1043" />
    <path
       class="cls-2"
       d="m 131,9.6 a 6.86,6.86 0 0 1 1.44,0.13 l -0.32,4 a 4.89,4.89 0 0 0 -1.26,-0.14 4.51,4.51 0 0 0 -3.17,1 3.78,3.78 0 0 0 -1.14,2.93 v 7.93 H 122.3 V 9.89 h 3.22 l 0.63,2.62 h 0.21 a 5.86,5.86 0 0 1 2,-2.11 4.83,4.83 0 0 1 2.64,-0.8 z"
       id="path1045" />
    <path
       class="cls-2"
       d="m 141.27,25.76 q -7.28,0 -7.28,-8 a 8.52,8.52 0 0 1 2,-6.07 7.43,7.43 0 0 1 5.68,-2.1 10.83,10.83 0 0 1 4.85,1.06 l -1.26,3.29 q -1,-0.4 -1.87,-0.66 a 6,6 0 0 0 -1.73,-0.26 q -3.32,0 -3.32,4.71 0,4.71 3.32,4.57 A 7.56,7.56 0 0 0 143.93,21.97 8.18,8.18 0 0 0 146,21 v 3.6 a 6.85,6.85 0 0 1 -2.08,0.91 11.73,11.73 0 0 1 -2.65,0.25 z"
       id="path1047" />
    <path
       class="cls-2"
       d="m 164,25.48 h -4.25 v -9.1 q 0,-3.37 -2.51,-3.37 a 2.85,2.85 0 0 0 -2.58,1.21 7.41,7.41 0 0 0 -0.79,3.93 v 7.33 h -4.25 V 3.78 h 4.25 V 8.2 q 0,0.52 -0.1,2.43 l -0.1,1.26 h 0.22 a 4.93,4.93 0 0 1 4.52,-2.29 5.53,5.53 0 0 1 4.17,1.48 5.87,5.87 0 0 1 1.42,4.24 z"
       id="path1049" />
    <path
       class="cls-2"
       d="M 184.53,25.48 H 182 V 16 h -10.49 v 9.51 h -2.57 V 5.09 h 2.57 v 8.62 H 182 V 5.09 h 2.57 z"
       id="path1051" />
    <path
       class="cls-2"
       d="M 192.13,10.17 V 20 a 4,4 0 0 0 0.83,2.75 3.34,3.34 0 0 0 2.57,0.9 4.18,4.18 0 0 0 3.47,-1.28 6.66,6.66 0 0 0 1,-4.22 v -8 h 2.52 v 15.33 h -2.02 l -0.36,-2 H 200 a 4.5,4.5 0 0 1 -1.94,1.7 6.69,6.69 0 0 1 -2.91,0.6 5.85,5.85 0 0 1 -4.15,-1.34 5.6,5.6 0 0 1 -1.4,-4.24 v -10 z"
       id="path1053" />
    <path
       class="cls-2"
       d="m 214.66,9.92 a 5.61,5.61 0 0 1 4.68,2.08 9.18,9.18 0 0 1 1.66,5.83 9.11,9.11 0 0 1 -1.67,5.86 5.64,5.64 0 0 1 -4.64,2.07 6.54,6.54 0 0 1 -2.76,-0.56 4.83,4.83 0 0 1 -2,-1.66 h -0.2 q -0.43,1.67 -0.52,1.94 h -1.8 V 3.78 h 2.51 v 5.28 q 0,1.58 -0.14,3.15 h 0.14 a 5.33,5.33 0 0 1 4.74,-2.29 z M 214.25,12 a 3.92,3.92 0 0 0 -3.32,1.31 7.46,7.46 0 0 0 -1,4.43 v 0.11 a 7.54,7.54 0 0 0 1,4.48 4,4 0 0 0 3.35,1.35 3.45,3.45 0 0 0 3.07,-1.51 7.87,7.87 0 0 0 1,-4.37 7.6,7.6 0 0 0 -1,-4.35 3.56,3.56 0 0 0 -3.1,-1.45 z"
       id="path1055" />
    <path
       class="cls-3"
       d="M 40.73,16.09"
       id="path1057" />
  </g>
  <metadata
     id="metadata1350">
    <rdf:RDF>
      <cc:Work
         rdf:about="">
        <dc:title>hub-logo koru 2</dc:title>
      </cc:Work>
    </rdf:RDF>
  </metadata>
</svg>
