<svg xmlns="http://www.w3.org/2000/svg" viewBox="0 0 220.98 29.55"><defs><style>.cls-1{fill:#004059;}.cls-2{fill:#fff;}.cls-3{fill:none;stroke:#000;stroke-miterlimit:10;stroke-width:0.25px;}</style></defs><title>hub-logo koru 2</title><g id="Layer_1" data-name="Layer 1"><line class="cls-1" x1="100.78" y1="15.84" x2="191.95" y2="15.84"/><path class="cls-2" d="M42.87,17.66v7.82H38.54V5.09h5.94q4.16,0,6.15,1.51a5.4,5.4,0,0,1,2,4.59,5.41,5.41,0,0,1-1,3.2,6.55,6.55,0,0,1-2.8,2.2l6,8.88H50l-4.87-7.82Zm0-3.51h1.39a5.33,5.33,0,0,0,3-.68,2.44,2.44,0,0,0,1-2.15,2.23,2.23,0,0,0-1-2.06,6.05,6.05,0,0,0-3.09-.61H42.87Z"/><path class="cls-2" d="M64.12,25.76a8,8,0,0,1-5.88-2.08,7.87,7.87,0,0,1-2.12-5.88,8.65,8.65,0,0,1,2-6.06A7,7,0,0,1,63.49,9.6a6.87,6.87,0,0,1,5.15,1.88,7.12,7.12,0,0,1,1.84,5.2v2.06H60.42a4.09,4.09,0,0,0,1.07,2.83,3.78,3.78,0,0,0,2.82,1A11.69,11.69,0,0,0,67,22.3a13.32,13.32,0,0,0,2.62-.93v3.29a10,10,0,0,1-2.38.83A15,15,0,0,1,64.12,25.76Zm-.6-13.14a2.7,2.7,0,0,0-2.12.86,4,4,0,0,0-.88,2.43h6a3.55,3.55,0,0,0-.82-2.43A2.79,2.79,0,0,0,63.52,12.63Z"/><path class="cls-2" d="M84.81,20.85a4.29,4.29,0,0,1-1.67,3.65,8.23,8.23,0,0,1-5,1.26,15.65,15.65,0,0,1-2.9-.23A10.94,10.94,0,0,1,73,24.85V21.34a14.8,14.8,0,0,0,2.67.93,10.81,10.81,0,0,0,2.61.38q2.31,0,2.31-1.34a1.12,1.12,0,0,0-.31-.82,4.45,4.45,0,0,0-1.06-.71q-.75-.4-2-.93a12.6,12.6,0,0,1-2.64-1.39A3.92,3.92,0,0,1,73.37,16a4.85,4.85,0,0,1-.38-2,3.7,3.7,0,0,1,1.61-3.21A7.85,7.85,0,0,1,79.16,9.6a13,13,0,0,1,5.48,1.23l-1.28,3.07q-1.17-.5-2.19-.82a6.88,6.88,0,0,0-2.08-.32q-1.88,0-1.88,1a1.2,1.2,0,0,0,.61,1A16.48,16.48,0,0,0,80.47,16a12.38,12.38,0,0,1,2.68,1.38,4.09,4.09,0,0,1,1.26,1.48A4.55,4.55,0,0,1,84.81,20.85Z"/><path class="cls-2" d="M95.19,25.76a8,8,0,0,1-5.88-2.08,7.87,7.87,0,0,1-2.12-5.88,8.65,8.65,0,0,1,2-6.06A7,7,0,0,1,94.56,9.6a6.87,6.87,0,0,1,5.15,1.88,7.12,7.12,0,0,1,1.84,5.2v2.06H91.49a4.09,4.09,0,0,0,1.07,2.83,3.78,3.78,0,0,0,2.82,1A11.69,11.69,0,0,0,98,22.3a13.32,13.32,0,0,0,2.62-.93v3.29a10,10,0,0,1-2.38.83A15,15,0,0,1,95.19,25.76Zm-.6-13.14a2.7,2.7,0,0,0-2.12.86,4,4,0,0,0-.88,2.43h6a3.55,3.55,0,0,0-.82-2.43A2.79,2.79,0,0,0,94.59,12.63Z"/><path class="cls-2" d="M114.9,25.48l-.82-2.12H114a6.28,6.28,0,0,1-2.21,1.88,7.14,7.14,0,0,1-3,.52,4.79,4.79,0,0,1-3.53-1.28A4.93,4.93,0,0,1,104,20.82a4.11,4.11,0,0,1,1.74-3.66,10.06,10.06,0,0,1,5.24-1.3l2.71-.08v-.68a2.12,2.12,0,0,0-2.43-2.37,11.05,11.05,0,0,0-4.39,1.13L105.42,11a12.67,12.67,0,0,1,6-1.41,7.44,7.44,0,0,1,4.81,1.37,5.05,5.05,0,0,1,1.67,4.16V25.48Zm-1.26-7.22-1.65.06a5.27,5.27,0,0,0-2.76.67,2.1,2.1,0,0,0-.91,1.87q0,1.8,2.06,1.8a3.27,3.27,0,0,0,2.36-.85,3,3,0,0,0,.89-2.26Z"/><path class="cls-2" d="M131,9.6a6.86,6.86,0,0,1,1.44.13l-.32,4a4.89,4.89,0,0,0-1.26-.14,4.51,4.51,0,0,0-3.17,1,3.78,3.78,0,0,0-1.14,2.93v7.93h-4.25V9.89h3.22l.63,2.62h.21a5.86,5.86,0,0,1,2-2.11A4.83,4.83,0,0,1,131,9.6Z"/><path class="cls-2" d="M141.27,25.76q-7.28,0-7.28-8a8.52,8.52,0,0,1,2-6.07,7.43,7.43,0,0,1,5.68-2.1,10.83,10.83,0,0,1,4.85,1.06l-1.26,3.29q-1-.4-1.87-.66a6,6,0,0,0-1.73-.26q-3.32,0-3.32,4.71t3.32,4.57a7.56,7.56,0,0,0,2.27-.33A8.18,8.18,0,0,0,146,21V24.6a6.85,6.85,0,0,1-2.08.91A11.73,11.73,0,0,1,141.27,25.76Z"/><path class="cls-2" d="M164,25.48h-4.25V16.38q0-3.37-2.51-3.37a2.85,2.85,0,0,0-2.58,1.21,7.41,7.41,0,0,0-.79,3.93v7.33h-4.25V3.78h4.25V8.2q0,.52-.1,2.43l-.1,1.26h.22a4.93,4.93,0,0,1,4.52-2.29,5.53,5.53,0,0,1,4.17,1.48A5.87,5.87,0,0,1,164,15.32Z"/><path class="cls-2" d="M184.53,25.48H182V16H171.51v9.51h-2.57V5.09h2.57v8.62H182V5.09h2.57Z"/><path class="cls-2" d="M192.13,10.17V20a4,4,0,0,0,.83,2.75,3.34,3.34,0,0,0,2.57.9A4.18,4.18,0,0,0,199,22.37,6.66,6.66,0,0,0,200,18.15v-8h2.52V25.48H200.5l-.36-2H200a4.5,4.5,0,0,1-1.94,1.7,6.69,6.69,0,0,1-2.91.6A5.85,5.85,0,0,1,191,24.44a5.6,5.6,0,0,1-1.4-4.24v-10Z"/><path class="cls-2" d="M214.66,9.92A5.61,5.61,0,0,1,219.34,12,9.18,9.18,0,0,1,221,17.83a9.11,9.11,0,0,1-1.67,5.86,5.64,5.64,0,0,1-4.64,2.07,6.54,6.54,0,0,1-2.76-.56,4.83,4.83,0,0,1-2-1.66h-.2q-.43,1.67-.52,1.94h-1.8V3.78h2.51V9.06q0,1.58-.14,3.15h.14A5.33,5.33,0,0,1,214.66,9.92ZM214.25,12a3.92,3.92,0,0,0-3.32,1.31,7.46,7.46,0,0,0-1,4.43v.11a7.54,7.54,0,0,0,1,4.48,4,4,0,0,0,3.35,1.35,3.45,3.45,0,0,0,3.07-1.51,7.87,7.87,0,0,0,1-4.37,7.6,7.6,0,0,0-1-4.35A3.56,3.56,0,0,0,214.25,12Z"/><path class="cls-3" d="M40.73,16.09"/><path class="cls-2" d="M14.77,0A14.77,14.77,0,1,0,29.55,14.77,14.77,14.77,0,0,0,14.77,0Zm9.51,20.83A9.37,9.37,0,0,1,22,23.67a10.34,10.34,0,0,1-4.34,2.2,11,11,0,0,1-5.95-.11,11.42,11.42,0,0,1-3.41-1.66,11.31,11.31,0,0,1-2.62-2.54,11.54,11.54,0,0,1-1.89-4,10.14,10.14,0,0,1-.29-2,11.33,11.33,0,0,1,.25-3.46A11.73,11.73,0,0,1,6,7.68a11.49,11.49,0,0,1,4.72-3.51,10.08,10.08,0,0,1,3-.76l.7-.1A12.51,12.51,0,0,0,10,6.63a11.06,11.06,0,0,0-2.33,4.44,10.68,10.68,0,0,0-.23,3.67,8.31,8.31,0,0,0,2.82,5.54A7.25,7.25,0,0,0,14.13,22a6.14,6.14,0,0,0,4.48-.83,5.29,5.29,0,0,0,2.46-3.59,4.25,4.25,0,0,0-1.46-4.33,3.3,3.3,0,0,0-3.8-.3,2.41,2.41,0,0,0-1.16,3,1.77,1.77,0,0,0,2.31,1,1.34,1.34,0,0,0,.67-1.57.9.9,0,0,0-.9-.52.66.66,0,0,0-.44.86c0-.12,0-.2.1-.25s.32-.33.41-.3a.7.7,0,0,1,.41.41.6.6,0,0,1-.32.7,1,1,0,0,1-1-.11,1.25,1.25,0,0,1,.34-2,1.84,1.84,0,0,1,2.56,1.09,2.35,2.35,0,0,1-.39,2.3A2.65,2.65,0,0,1,16,18.91a4.25,4.25,0,0,1-2.61-1.13,3.84,3.84,0,0,1-1.24-3.45,6.09,6.09,0,0,1,1.57-3.41,5.22,5.22,0,0,1,3.49-1.8,7.32,7.32,0,0,1,6,2.31,7.81,7.81,0,0,1,2,4.34A8.39,8.39,0,0,1,24.28,20.83Z"/></g></svg>