<?xml version="1.0" encoding="utf-8"?>
<!-- Generator: Adobe Illustrator 21.1.0, SVG Export Plug-In . SVG Version: 6.00 Build 0)  -->
<svg version="1.1" xmlns="http://www.w3.org/2000/svg" xmlns:xlink="http://www.w3.org/1999/xlink" x="0px" y="0px"
	 viewBox="0 0 512 512" style="enable-background:new 0 0 512 512;" xml:space="preserve">
<style type="text/css">
	.st0{display:none;}
	.st1{display:inline;}
	.st2{fill:#0094A6;}
	.st3{fill:#2F99C9;}
	.st4{fill:#60439A;}
	.st5{fill:#CD3D3E;}
	.st6{fill:#F8982C;}
	.st7{fill:#37A048;}
	.st8{fill:none;stroke:#FFFFFF;stroke-width:17;stroke-miterlimit:10;}
	.st9{fill:#FFFFFF;}
</style>
<g id="Layer_2" class="st0">
	<g id="Layer_3" class="st1">
		<g id="Layer_4" class="st0">
		</g>
	</g>
</g>
<g id="CIRCLE">
	<path class="st2" d="M177.6,257.9c0,41.6,33.8,75.4,75.4,75.4s75.4-33.8,75.4-75.4c0-41.6-33.8-75.4-75.4-75.4
		S177.6,216.3,177.6,257.9z M227.3,258.9c0-1.3,0.1-2.6,0.3-3.8l-9.5-4.9l8.9-17.3l10.5,5.5c1.7-1.3,3.5-2.3,5.5-3.2v-11.7h19.4V235
		c2.4,1,4.7,2.3,6.7,3.9l10.3-5.8l9.5,17l-10.5,5.8c0.1,0.9,0.2,1.9,0.2,2.9c0,1.2-0.1,2.5-0.3,3.7l10.4,5.4l-8.9,17.3l-11.4-5.9
		c-1.8,1.4-3.7,2.5-5.8,3.3v11.6h-19.4v-11.6c-2.2-0.9-4.2-2.1-6-3.5l-11,6.1l-9.5-17l10.7-6C227.4,261.2,227.3,260.1,227.3,258.9z"
		/>
	<path class="st3" d="M425.5,116.5c-21.2-27.6-55.3-59.3-109-72.4l7.3,71.2l-29.6,62.4c37.5,21.6,49.1,50.8,49.1,84.3l66.8,8.8
		l65.1-29.4c0-13.2-5.1-37.5-8.9-49.5C457.6,164.3,443.6,140.1,425.5,116.5z"/>
	<path class="st4" d="M171.4,50.3c-32.8,11.6-73.5,34.2-102.6,81.3l70,15.1l50.2,47.4c32.1-29,63.5-31,95.3-20.6l29-60.8l-7.8-71
		c-12.6-4.1-37.2-6.7-49.8-6.8C226.8,34.5,199.5,40.4,171.4,50.3z"/>
	<path class="st5" d="M30,271.5c0.9,34.8,9.9,80.5,45.6,122.7l36-61.9l60.6-33.1c-17.6-39.5-9.8-69.9,9.9-97.1l-48.9-46.3
		l-69.9-14.5c-7.8,10.7-17.9,33.3-21.9,45.3C32.1,213.9,29.2,241.7,30,271.5z"/>
	<path class="st6" d="M196.7,474.4c33.3,9.9,79.6,15.5,130.8-5.5l-47.8-53.3l-12.8-67.9c-43,4.6-69.6-12.3-89.3-39.4l-59.2,32.2
		l-35.4,62c7.8,10.7,26.2,27.3,36.3,34.8C142.6,454.6,168.1,465.9,196.7,474.4z"/>
	<path class="st7" d="M441.1,378.5c19.7-28.6,39.3-70.9,35.2-126.1l-65.5,28.9l-68.5-8.8c-9,42.3-33.2,62.4-65,72.7l12.3,66.2
		l48,52.8c12.6-4.1,34-16.5,44.3-23.8C405.6,423.9,424.2,403.1,441.1,378.5z"/>
</g>
<g id="Layer_6">
	<circle class="st8" cx="252.9" cy="257.8" r="232.8"/>
</g>
<g id="ICONS">
	<path class="st9" d="M230.6,116.9h5.2v9.9l8.5,4.9l-2.6,4.6l-11.2-6.4V116.9 M195.6,81.9h49c3.9,0,7,3.1,7,7v21.3
		c4.3,4.4,7,10.5,7,17.2c0,13.5-11,24.5-24.5,24.5c-6.7,0-12.7-2.7-17.1-7h-21.4c-3.9,0-7-3.1-7-7v-49
		C188.6,85,191.7,81.9,195.6,81.9 M195.6,127.4v10.5h16.3c-1.5-3.2-2.3-6.8-2.3-10.5H195.6 M195.6,102.9h21V92.4h-21V102.9
		 M244.6,102.9V92.4h-21v10.5H244.6 M195.6,120.4h15c1.2-4,3.4-7.6,6.3-10.5h-21.4V120.4 M234.1,110.4c-9.4,0-17,7.6-17,17l0,0
		c0,9.4,7.6,17,17,17c9.4,0,17-7.6,17-17l0,0C251.1,118,243.5,110.4,234.1,110.4z"/>
	<path class="st9" d="M406.5,205.2c-4.4,0-7.9-3.6-7.9-7.9c0-4.4,3.5-7.9,7.9-7.9c4.4,0,7.9,3.5,7.9,7.9
		C414.4,201.6,410.8,205.2,406.5,205.2 M406.5,181.5c-8.7,0-15.8,7.1-15.8,15.8c0,8.7,7.1,15.8,15.8,15.8s15.8-7.1,15.8-15.8
		C422.3,188.6,415.2,181.5,406.5,181.5 M382.8,174c-4.1,0-7.5,3.4-7.5,7.5s3.4,7.5,7.5,7.5s7.5-3.4,7.5-7.5S386.9,174,382.8,174
		 M359.1,205.2c-4.4,0-7.9-3.6-7.9-7.9c0-4.4,3.5-7.9,7.9-7.9c4.4,0,7.9,3.5,7.9,7.9C367,201.6,363.5,205.2,359.1,205.2
		 M359.1,181.5c-8.7,0-15.8,7.1-15.8,15.8c0,8.7,7.1,15.8,15.8,15.8c8.7,0,15.8-7.1,15.8-15.8C374.9,188.6,367.8,181.5,359.1,181.5
		 M382.8,146c4.4,0,7.9,3.5,7.9,7.9c0,4.4-3.5,7.9-7.9,7.9c-4.4,0-7.9-3.6-7.9-7.9C374.9,149.5,378.4,146,382.8,146 M382.8,169.6
		c8.7,0,15.8-7.1,15.8-15.8c0-8.7-7.1-15.8-15.8-15.8s-15.8,7.1-15.8,15.8C367,162.6,374.1,169.6,382.8,169.6z"/>
	<path class="st9" d="M204.9,356l-29.3,18.9V412l29.3,18.9l29.3-18.9v-37.1 M204.9,366.8l15.9,10.3l-15.9,10.3l-15.9-10.3
		 M137.9,370v9.4h29.3V370 M184,384.6l16.8,10.8v22L184,406.6 M225.9,384.6v22l-16.8,10.8v-22 M146.3,388.8v9.4h20.9v-9.4
		 M154.7,407.5v9.4h12.6v-9.4"/>
	<path class="st9" d="M389.2,367.8l15.9-27.6v41v7H335v-63.1h7V369l19.3-33.4l22.8,13.2l14.9-25.7l6.1,3.5l-18.3,31.7l-22.8-13.1
		l-20.7,35.9h7.9l15.4-26.5L389.2,367.8z"/>
	<path class="st9" d="M131.4,229.7L115.2,246h12.2c0,13.5-10.9,24.4-24.4,24.4c-4.1,0-8-1-11.4-2.8l-5.9,5.9c5,3.2,10.9,5,17.3,5
		c17.9,0,32.5-14.6,32.5-32.5h12.2 M78.6,246c0-13.5,10.9-24.4,24.4-24.4c4.1,0,8,1,11.4,2.8l5.9-5.9c-5-3.2-10.9-5-17.3-5
		C85,213.5,70.5,228,70.5,246H58.3l16.2,16.2L90.8,246"/>
</g>
</svg>
