<svg id="svg" version="1.1" xmlns="http://www.w3.org/2000/svg" xmlns:xlink="http://www.w3.org/1999/xlink" width="400" height="142.46031746031747" viewBox="0, 0, 400,142.46031746031747"><g id="svgg"><path id="path0" d="M152.944 21.278 C 152.706 21.516,152.827 34.528,153.079 35.713 C 154.714 43.430,166.253 43.394,168.187 35.667 C 168.363 34.964,168.417 33.177,168.417 28.000 L 168.417 21.250 166.833 21.250 L 165.250 21.250 165.167 28.167 C 165.087 34.813,165.069 35.114,164.723 35.863 C 163.619 38.252,159.547 38.910,157.467 37.035 C 156.160 35.856,156.174 35.956,156.170 28.325 C 156.168 23.295,156.116 21.516,155.967 21.367 C 155.755 21.155,153.144 21.078,152.944 21.278 M172.910 21.375 C 172.866 21.490,172.850 25.971,172.873 31.333 L 172.917 41.083 174.458 41.131 L 176.000 41.179 176.001 34.215 L 176.002 27.250 176.418 27.750 C 176.647 28.025,177.241 28.775,177.738 29.417 C 178.235 30.058,180.091 32.433,181.863 34.693 C 183.634 36.953,185.496 39.335,186.000 39.987 L 186.917 41.173 188.250 41.128 L 189.583 41.083 189.583 31.167 L 189.583 21.250 188.083 21.250 L 186.583 21.250 186.500 28.228 L 186.417 35.206 181.333 28.732 C 174.694 20.276,175.540 21.167,174.144 21.167 C 173.374 21.167,172.963 21.236,172.910 21.375 M194.084 21.535 C 194.033 21.745,194.012 26.229,194.037 31.500 L 194.083 41.083 195.710 41.131 L 197.336 41.179 197.293 31.214 L 197.250 21.250 195.713 21.202 C 194.232 21.156,194.173 21.168,194.084 21.535 M201.945 21.288 C 201.865 21.417,202.083 22.034,203.585 25.917 C 210.950 44.963,209.769 43.579,212.478 36.333 C 213.215 34.362,214.389 31.250,215.087 29.417 C 218.584 20.237,218.423 21.167,216.520 21.167 C 214.764 21.167,214.946 20.989,213.950 23.667 C 213.524 24.813,212.870 26.537,212.497 27.500 C 212.123 28.462,211.561 29.925,211.247 30.750 C 209.823 34.485,210.168 34.488,208.733 30.734 C 208.211 29.368,207.564 27.688,207.296 27.000 C 207.027 26.313,206.593 25.188,206.330 24.500 C 206.068 23.813,205.675 22.800,205.458 22.250 L 205.064 21.250 203.546 21.202 C 202.711 21.176,201.990 21.215,201.945 21.288 M222.667 31.164 L 222.667 41.167 228.000 41.167 L 233.333 41.167 233.333 39.500 L 233.333 37.833 229.583 37.833 L 225.833 37.833 225.833 35.250 L 225.833 32.667 229.423 32.667 L 233.013 32.667 232.965 31.125 L 232.917 29.583 229.375 29.538 L 225.833 29.493 225.833 26.997 L 225.833 24.500 229.506 24.500 L 233.179 24.500 233.131 22.875 L 233.083 21.250 227.875 21.206 L 222.667 21.162 222.667 31.164 M237.582 21.542 C 237.532 21.748,237.512 26.229,237.537 31.500 L 237.583 41.083 239.208 41.131 L 240.833 41.179 240.833 37.006 L 240.833 32.833 241.458 32.834 C 242.998 32.836,243.914 33.876,246.894 39.000 L 248.105 41.083 249.969 41.130 C 252.160 41.186,252.115 41.263,250.939 39.457 C 250.447 38.701,249.463 37.071,248.751 35.833 C 248.040 34.596,247.121 33.186,246.709 32.701 L 245.961 31.818 246.757 31.034 C 249.450 28.385,248.615 23.276,245.255 21.836 C 243.415 21.047,237.755 20.830,237.582 21.542 M259.667 21.342 C 256.771 21.939,255.250 23.772,255.250 26.663 C 255.250 29.091,256.042 30.221,259.417 32.610 C 262.304 34.653,263.130 35.927,262.390 37.192 C 261.098 39.398,258.439 38.753,255.766 35.583 L 255.344 35.083 255.339 37.436 L 255.333 39.788 255.958 40.219 C 260.593 43.416,265.583 41.228,265.583 36.000 C 265.583 33.257,264.534 31.690,261.392 29.746 C 258.884 28.193,258.333 27.587,258.333 26.379 C 258.333 24.029,261.904 23.884,264.075 26.147 C 264.989 27.099,265.000 27.083,264.999 24.792 L 264.998 22.750 264.452 22.379 C 263.204 21.529,261.037 21.060,259.667 21.342 M270.246 21.368 C 270.200 21.487,270.183 25.971,270.207 31.333 L 270.250 41.083 271.793 41.131 L 273.336 41.179 273.293 31.215 L 273.250 21.250 271.789 21.202 C 270.714 21.166,270.306 21.210,270.246 21.368 M277.833 22.828 L 277.833 24.492 280.792 24.538 L 283.750 24.583 283.793 32.881 L 283.836 41.179 285.377 41.131 L 286.917 41.083 286.960 32.792 L 287.003 24.500 290.008 24.500 L 293.012 24.500 292.964 22.875 L 292.917 21.250 285.375 21.207 L 277.833 21.163 277.833 22.828 M295.945 21.292 C 295.904 21.360,297.361 23.508,299.183 26.064 L 302.495 30.711 302.539 35.897 L 302.583 41.083 304.167 41.083 L 305.750 41.083 305.833 35.833 L 305.917 30.583 307.667 28.120 C 308.629 26.765,310.073 24.743,310.875 23.627 C 312.731 21.044,312.750 21.167,310.504 21.167 L 308.674 21.167 306.478 24.256 C 305.270 25.956,304.236 27.374,304.182 27.407 C 304.127 27.441,303.085 26.051,301.866 24.318 L 299.650 21.167 297.835 21.167 C 296.836 21.167,295.986 21.223,295.945 21.292 M328.000 21.334 C 318.696 22.918,316.636 36.290,325.059 40.416 C 331.628 43.633,338.833 38.883,338.833 31.333 C 338.833 25.124,333.679 20.366,328.000 21.334 M343.447 21.275 C 343.384 21.338,343.333 25.764,343.333 31.111 L 343.333 40.833 344.917 40.833 L 346.500 40.833 346.500 36.500 L 346.500 32.167 349.833 32.167 L 353.167 32.167 353.167 30.583 L 353.167 29.000 349.833 29.000 L 346.500 29.000 346.500 26.754 L 346.500 24.507 349.792 24.462 L 353.083 24.417 353.083 22.833 L 353.083 21.250 348.322 21.206 C 345.703 21.182,343.509 21.213,343.447 21.275 M43.834 45.208 C 43.835 64.500,43.873 68.167,44.084 69.583 C 47.386 91.672,61.856 109.702,84.554 120.010 L 87.024 121.131 88.554 120.470 C 108.455 111.859,122.710 96.432,128.414 77.333 C 130.302 71.013,130.330 70.533,130.332 44.542 L 130.333 22.500 87.083 22.500 L 43.833 22.500 43.834 45.208 M243.666 24.682 C 244.644 25.103,245.000 25.728,244.999 27.025 C 244.998 28.740,244.136 29.495,242.116 29.551 L 240.917 29.583 240.871 26.958 L 240.825 24.333 241.840 24.333 C 242.501 24.333,243.138 24.455,243.666 24.682 M128.333 36.397 L 128.333 48.295 127.208 48.410 C 125.297 48.606,123.542 49.143,121.522 50.151 C 116.316 52.750,113.113 52.772,107.833 50.246 C 102.669 47.775,98.622 47.759,93.870 50.190 C 88.885 52.741,85.339 52.735,80.167 50.168 C 75.278 47.742,71.133 47.760,66.205 50.230 C 61.468 52.605,57.583 52.629,53.036 50.311 C 50.816 49.180,48.813 48.536,47.047 48.387 L 45.833 48.284 45.833 36.392 L 45.833 24.500 87.083 24.500 L 128.333 24.500 128.333 36.397 M331.223 24.837 C 334.412 25.822,336.174 29.529,335.273 33.358 C 333.955 38.957,326.442 39.893,323.912 34.773 C 321.115 29.115,325.552 23.086,331.223 24.837 M59.738 28.136 C 59.274 28.297,58.560 28.702,58.152 29.036 L 57.411 29.643 56.997 29.322 C 54.577 27.443,50.870 29.487,50.841 32.715 C 50.835 33.374,50.721 33.666,50.192 34.382 C 47.524 37.994,46.578 40.358,47.344 41.500 C 47.543 41.797,47.560 41.777,48.926 39.682 C 50.641 37.050,53.038 34.644,53.364 35.227 C 53.950 36.274,55.802 37.662,56.619 37.665 C 56.822 37.666,57.067 37.813,57.162 37.992 C 57.401 38.437,59.086 39.622,59.660 39.749 C 60.132 39.852,60.333 40.297,60.333 41.236 C 60.333 41.434,60.483 41.890,60.667 42.250 C 61.104 43.108,61.156 42.986,59.893 44.048 C 58.652 45.091,57.992 45.295,56.820 45.000 C 55.672 44.711,54.994 45.016,55.917 45.406 C 56.655 45.717,56.553 45.873,55.488 46.064 C 55.149 46.125,54.690 46.381,54.426 46.657 L 53.959 47.144 55.271 47.064 C 55.993 47.020,56.752 46.960,56.958 46.932 C 57.414 46.868,57.413 46.861,57.001 47.538 C 56.654 48.106,56.554 48.833,56.822 48.833 C 56.908 48.833,57.022 48.694,57.076 48.525 C 57.129 48.355,57.556 47.923,58.023 47.566 C 58.491 47.209,59.296 46.534,59.812 46.066 C 60.448 45.489,61.125 45.073,61.917 44.772 C 63.377 44.218,63.424 44.185,63.564 43.614 C 63.647 43.274,63.872 43.057,64.381 42.826 C 65.490 42.323,65.799 42.389,66.171 43.208 C 66.767 44.520,66.489 45.340,65.332 45.687 C 64.680 45.882,64.000 46.379,64.000 46.660 C 64.000 46.740,64.301 46.688,64.668 46.544 C 65.498 46.218,65.634 46.332,65.169 46.961 C 64.761 47.513,64.509 48.833,64.811 48.833 C 64.915 48.833,65.000 48.766,65.000 48.685 C 65.000 48.449,66.510 46.833,66.724 46.839 C 66.830 46.843,67.067 47.161,67.250 47.548 C 67.669 48.431,67.933 48.378,67.861 47.425 C 67.830 47.021,67.933 46.165,68.089 45.523 C 68.368 44.377,68.366 44.340,68.020 43.625 C 67.477 42.503,67.540 41.946,68.240 41.693 C 72.283 40.231,72.580 33.406,68.747 30.032 C 66.539 28.088,62.398 27.217,59.738 28.136 M87.371 28.078 C 86.559 28.332,85.951 28.689,85.295 29.300 C 84.878 29.687,84.814 29.701,84.545 29.465 C 82.242 27.446,78.303 29.352,78.279 32.498 C 78.272 33.339,78.193 33.529,77.337 34.750 C 74.830 38.325,74.167 39.935,74.663 41.239 C 74.895 41.850,75.019 41.784,75.657 40.708 C 76.549 39.205,77.858 37.512,79.018 36.359 C 80.496 34.892,80.537 34.878,81.080 35.662 C 81.593 36.402,83.002 37.425,83.750 37.601 C 84.025 37.666,84.648 38.080,85.135 38.522 C 85.621 38.965,86.381 39.455,86.823 39.612 L 87.626 39.897 87.711 40.824 C 87.758 41.333,87.934 42.037,88.102 42.387 L 88.407 43.024 87.328 44.000 C 86.104 45.108,85.463 45.313,84.207 44.999 C 83.343 44.784,82.201 45.003,82.917 45.247 C 83.100 45.309,83.438 45.439,83.667 45.535 L 84.083 45.710 83.667 45.841 C 83.438 45.912,83.047 46.015,82.800 46.070 C 82.340 46.171,81.349 46.913,81.500 47.044 C 81.546 47.083,82.277 47.071,83.125 47.016 C 83.973 46.961,84.667 46.926,84.667 46.937 C 84.667 46.948,84.513 47.306,84.325 47.731 C 83.832 48.843,84.058 48.935,84.948 47.984 C 85.374 47.529,85.973 47.037,86.280 46.891 C 86.586 46.746,87.064 46.340,87.341 45.990 C 87.734 45.495,88.151 45.235,89.215 44.826 C 90.835 44.203,90.931 44.135,91.055 43.518 C 91.156 43.013,92.087 42.500,92.902 42.500 C 94.168 42.500,94.085 45.330,92.809 45.673 C 92.132 45.856,91.176 46.564,91.360 46.748 C 91.420 46.809,91.697 46.740,91.976 46.596 C 92.891 46.123,93.322 46.324,92.666 46.917 C 92.261 47.283,91.906 48.473,92.133 48.700 C 92.233 48.799,92.426 48.639,92.655 48.269 C 93.512 46.882,94.189 46.598,94.611 47.449 C 95.073 48.381,95.386 48.382,95.246 47.451 C 95.180 47.007,95.215 46.435,95.331 46.058 C 95.439 45.705,95.591 45.208,95.669 44.952 C 95.775 44.600,95.711 44.264,95.405 43.572 C 94.830 42.272,94.865 41.949,95.614 41.678 C 97.879 40.859,99.390 37.630,98.841 34.784 C 97.894 29.884,92.217 26.565,87.371 28.078 M114.387 28.143 C 113.912 28.307,113.195 28.710,112.795 29.038 L 112.066 29.635 111.658 29.318 C 111.102 28.886,109.718 28.484,109.186 28.600 C 106.853 29.109,105.505 30.580,105.502 32.621 C 105.500 33.401,105.413 33.612,104.675 34.624 C 102.429 37.702,101.501 39.764,101.822 40.959 C 102.083 41.927,102.103 41.913,103.496 39.792 C 104.612 38.092,107.389 34.989,107.778 35.006 C 107.854 35.010,108.121 35.308,108.370 35.668 C 108.934 36.483,110.005 37.273,110.902 37.535 C 111.277 37.644,111.646 37.836,111.723 37.961 C 111.974 38.371,113.823 39.638,114.334 39.750 C 114.751 39.842,114.833 39.941,114.833 40.351 C 114.833 40.621,114.983 41.268,115.167 41.790 C 115.631 43.111,115.619 43.150,114.486 44.083 C 113.230 45.119,112.516 45.348,111.545 45.028 C 110.831 44.793,110.000 44.869,110.000 45.170 C 110.000 45.260,110.136 45.333,110.301 45.333 C 110.467 45.333,110.744 45.436,110.916 45.562 C 111.268 45.819,111.222 45.847,110.065 46.079 C 109.780 46.136,109.330 46.414,109.065 46.696 L 108.583 47.209 109.167 47.112 C 109.670 47.027,111.452 46.946,111.901 46.986 C 111.984 46.994,111.924 47.141,111.769 47.313 C 111.613 47.485,111.439 47.913,111.382 48.264 L 111.278 48.903 112.222 47.952 C 112.742 47.428,113.247 47.000,113.346 47.000 C 113.444 47.000,113.957 46.588,114.485 46.084 C 115.137 45.462,115.736 45.066,116.348 44.853 C 117.853 44.329,118.096 44.171,118.261 43.612 C 118.440 43.005,119.092 42.624,119.993 42.599 C 121.399 42.561,121.450 45.217,120.052 45.676 C 119.228 45.946,118.667 46.316,118.667 46.589 C 118.667 46.760,118.809 46.751,119.335 46.544 C 120.164 46.218,120.301 46.332,119.836 46.961 C 119.428 47.513,119.175 48.833,119.478 48.833 C 119.582 48.833,119.667 48.755,119.667 48.660 C 119.667 48.418,121.170 46.833,121.398 46.835 C 121.500 46.836,121.709 47.136,121.863 47.502 C 122.288 48.515,122.580 48.366,122.598 47.125 C 122.606 46.552,122.700 45.714,122.807 45.264 C 122.982 44.520,122.962 44.347,122.584 43.402 C 122.046 42.057,122.043 42.071,122.875 41.695 C 127.746 39.490,127.059 31.705,121.746 28.889 C 119.724 27.818,116.325 27.473,114.387 28.143 M60.333 29.133 C 60.333 29.207,60.243 29.357,60.133 29.467 C 59.851 29.749,60.175 29.720,60.803 29.407 C 61.713 28.953,62.651 28.873,62.292 29.280 C 61.886 29.738,61.927 29.853,62.428 29.663 C 63.503 29.254,64.783 29.531,64.133 30.032 L 63.750 30.326 64.167 30.331 C 68.549 30.379,69.663 37.439,65.471 38.598 C 65.024 38.721,64.832 38.925,64.478 39.651 C 64.168 40.287,63.874 40.631,63.478 40.824 C 63.169 40.975,62.619 41.300,62.256 41.547 C 61.438 42.103,61.345 41.989,61.215 40.269 L 61.123 39.058 60.120 38.851 C 59.268 38.674,58.978 38.510,58.184 37.755 C 57.554 37.155,57.015 36.803,56.527 36.673 C 55.671 36.444,54.533 35.453,53.917 34.402 C 53.680 33.998,53.443 33.667,53.392 33.667 C 53.219 33.667,51.188 35.342,50.883 35.736 C 50.229 36.580,48.833 38.178,48.833 38.083 C 48.833 37.918,50.156 35.999,51.064 34.847 C 51.887 33.803,51.906 33.754,51.865 32.764 C 51.794 31.007,53.124 29.667,54.937 29.667 C 55.868 29.667,57.000 30.432,57.000 31.061 C 57.000 31.482,57.141 31.398,57.955 30.493 C 58.875 29.469,60.333 28.636,60.333 29.133 M87.700 29.200 C 87.231 29.669,87.534 29.771,88.278 29.394 C 89.306 28.874,90.029 28.841,89.582 29.334 C 89.199 29.758,89.326 29.891,89.904 29.671 C 90.999 29.255,92.291 29.525,91.633 30.032 L 91.250 30.326 91.714 30.330 C 95.995 30.364,96.980 37.779,92.815 38.612 C 92.303 38.714,91.990 39.100,91.688 40.000 C 91.536 40.456,91.320 40.663,90.705 40.948 C 90.271 41.148,89.713 41.445,89.465 41.607 C 88.875 41.993,88.831 41.927,88.631 40.363 L 88.462 39.036 87.772 38.926 C 86.915 38.789,85.911 38.211,85.229 37.461 C 84.895 37.093,84.424 36.809,83.913 36.666 C 83.026 36.417,81.539 35.065,81.168 34.170 C 81.053 33.893,80.900 33.667,80.828 33.667 C 80.411 33.667,77.589 36.367,76.889 37.435 C 76.746 37.654,76.558 37.833,76.473 37.833 C 76.290 37.833,77.008 36.750,78.355 34.996 C 79.309 33.752,79.316 33.734,79.228 32.829 C 78.953 29.985,83.365 28.400,84.362 30.985 L 84.528 31.417 85.222 30.638 C 86.035 29.726,87.070 29.000,87.557 29.000 C 87.824 29.000,87.856 29.044,87.700 29.200 M115.000 29.157 C 115.000 29.243,114.925 29.360,114.833 29.417 C 114.349 29.716,114.762 29.778,115.316 29.490 C 115.673 29.304,116.247 29.106,116.592 29.050 L 117.219 28.948 116.845 29.321 C 116.391 29.776,116.470 29.900,117.071 29.671 C 118.166 29.255,119.458 29.525,118.799 30.032 L 118.417 30.326 118.833 30.331 C 123.172 30.379,124.281 37.448,120.131 38.600 C 119.696 38.721,119.489 38.938,119.124 39.657 C 118.757 40.381,118.507 40.642,117.874 40.962 C 117.439 41.182,116.955 41.477,116.798 41.618 C 116.191 42.163,115.833 41.506,115.833 39.846 L 115.833 39.067 114.809 38.855 C 113.931 38.674,113.650 38.516,112.850 37.755 C 112.221 37.155,111.681 36.803,111.193 36.673 C 110.342 36.445,109.164 35.423,108.556 34.385 C 108.324 33.990,108.099 33.667,108.055 33.667 C 107.756 33.667,105.853 35.379,104.912 36.493 C 103.099 38.642,103.378 37.920,105.385 35.271 C 106.544 33.740,106.621 33.589,106.480 33.104 C 105.695 30.400,110.431 28.252,111.498 30.829 C 111.765 31.472,111.716 31.489,112.675 30.439 C 113.657 29.364,115.000 28.624,115.000 29.157 M52.568 32.229 C 52.383 32.711,52.572 33.083,53.002 33.083 C 53.352 33.083,53.417 33.005,53.417 32.583 C 53.417 32.024,52.753 31.747,52.568 32.229 M80.008 32.241 C 79.558 32.783,80.302 33.436,80.802 32.936 C 81.014 32.724,81.036 32.594,80.896 32.372 C 80.653 31.985,80.267 31.928,80.008 32.241 M107.231 32.240 C 106.962 32.940,107.556 33.421,108.063 32.913 C 108.268 32.709,108.291 32.566,108.160 32.322 C 107.959 31.945,107.364 31.893,107.231 32.240 M217.226 47.182 C 207.778 48.284,202.925 59.508,208.153 68.165 C 211.567 73.818,219.005 75.569,225.831 72.325 L 227.333 71.611 227.333 69.056 C 227.333 67.650,227.292 66.500,227.241 66.500 C 227.190 66.500,226.721 66.790,226.199 67.144 C 218.612 72.290,210.339 68.868,210.339 60.583 C 210.339 52.250,218.758 48.696,226.280 53.855 C 226.663 54.118,227.019 54.333,227.072 54.333 C 227.196 54.333,227.191 52.810,227.059 50.817 L 226.953 49.216 225.768 48.710 C 223.396 47.695,220.084 46.908,218.667 47.023 C 218.529 47.034,217.881 47.106,217.226 47.182 M162.487 47.785 C 162.390 48.041,162.119 48.737,161.885 49.333 C 161.395 50.584,161.311 50.801,158.833 57.250 C 157.812 59.908,156.801 62.533,156.587 63.083 C 155.354 66.250,152.854 72.806,152.757 73.125 L 152.644 73.500 154.805 73.500 L 156.966 73.500 157.591 71.875 C 157.936 70.981,158.568 69.350,158.997 68.250 L 159.776 66.250 164.278 66.206 L 168.779 66.161 170.080 69.372 C 170.795 71.138,171.461 72.790,171.560 73.042 L 171.740 73.500 173.952 73.500 L 176.164 73.500 175.877 72.792 C 175.720 72.402,173.370 66.533,170.655 59.750 L 165.719 47.417 164.191 47.369 L 162.663 47.321 162.487 47.785 M180.836 56.453 C 180.838 64.011,180.882 65.767,181.090 66.652 C 183.289 75.981,197.418 76.585,200.594 67.486 L 201.083 66.083 201.133 56.703 L 201.182 47.323 199.133 47.370 L 197.083 47.417 196.990 56.333 C 196.894 65.444,196.882 65.598,196.187 66.961 C 194.619 70.034,189.158 70.533,186.496 67.848 C 185.053 66.392,185.111 66.835,185.007 56.500 L 184.917 47.417 182.875 47.370 L 180.833 47.323 180.836 56.453 M232.283 47.440 C 232.219 47.503,232.167 53.393,232.167 60.528 L 232.167 73.500 234.333 73.500 L 236.500 73.500 236.503 67.792 L 236.506 62.083 237.629 63.250 C 238.246 63.892,239.689 65.429,240.834 66.666 C 244.198 70.300,245.022 71.183,246.167 72.378 L 247.250 73.509 250.102 73.463 L 252.953 73.417 249.768 69.997 C 248.017 68.116,245.176 65.054,243.457 63.194 L 240.330 59.811 241.317 58.614 C 241.860 57.955,244.109 55.242,246.314 52.583 C 248.520 49.925,250.327 47.654,250.329 47.537 C 250.332 47.372,249.768 47.335,247.797 47.371 L 245.260 47.417 243.505 49.511 C 242.540 50.663,240.588 53.016,239.167 54.740 L 236.583 57.874 236.500 52.645 L 236.417 47.417 234.408 47.370 C 233.303 47.345,232.346 47.376,232.283 47.440 M256.833 60.412 L 256.833 73.500 264.000 73.500 L 271.167 73.500 271.167 71.417 L 271.167 69.333 266.085 69.333 L 261.002 69.333 260.960 58.375 L 260.917 47.417 258.875 47.370 L 256.833 47.323 256.833 60.412 M285.458 47.536 C 285.412 47.654,284.348 50.413,283.092 53.667 C 281.837 56.921,280.638 60.033,280.427 60.583 C 280.217 61.133,279.659 62.566,279.189 63.766 C 278.718 64.966,278.187 66.354,278.009 66.849 C 277.831 67.345,277.375 68.537,276.996 69.500 C 276.617 70.462,276.171 71.625,276.004 72.083 C 275.837 72.542,275.647 73.050,275.581 73.213 C 275.469 73.490,275.608 73.507,277.663 73.463 L 279.866 73.417 280.420 72.000 C 280.725 71.221,281.349 69.608,281.807 68.417 L 282.639 66.250 287.133 66.206 L 291.627 66.161 292.067 67.206 C 292.309 67.780,292.978 69.412,293.555 70.833 L 294.604 73.417 296.802 73.463 C 298.011 73.489,299.000 73.474,299.000 73.431 C 299.000 73.388,298.620 72.430,298.155 71.301 C 297.690 70.173,297.171 68.875,297.000 68.417 C 296.830 67.958,294.865 63.046,292.634 57.500 L 288.578 47.417 287.059 47.369 C 285.940 47.334,285.519 47.378,285.458 47.536 M303.283 47.439 C 303.219 47.503,303.167 53.393,303.167 60.528 L 303.167 73.500 305.249 73.500 L 307.330 73.500 307.374 64.413 L 307.417 55.326 312.333 61.594 C 315.037 65.041,317.438 68.109,317.667 68.412 C 318.496 69.507,319.753 71.108,320.710 72.292 L 321.688 73.500 323.427 73.500 L 325.167 73.500 325.167 60.411 L 325.167 47.323 323.208 47.370 L 321.250 47.417 321.167 56.648 L 321.083 65.879 319.083 63.336 C 317.983 61.937,316.896 60.545,316.667 60.244 C 316.438 59.942,314.810 57.870,313.049 55.639 C 311.288 53.408,309.109 50.646,308.206 49.500 L 306.563 47.417 304.982 47.369 C 304.112 47.343,303.348 47.375,303.283 47.439 M332.125 47.430 C 332.056 47.499,332.000 53.393,332.000 60.528 L 332.000 73.500 337.542 73.497 C 343.639 73.494,344.562 73.392,346.432 72.517 C 357.271 67.445,355.817 50.274,344.333 47.733 C 342.992 47.436,332.381 47.173,332.125 47.430 M70.679 51.958 C 70.686 52.119,71.080 53.413,71.554 54.833 L 72.417 57.417 75.467 57.462 L 78.517 57.508 78.050 57.890 C 77.793 58.100,76.702 58.897,75.625 59.660 C 73.339 61.280,73.439 60.875,74.499 64.246 C 74.956 65.701,75.306 66.916,75.277 66.945 C 75.247 66.975,74.216 66.242,72.986 65.317 C 71.756 64.391,70.661 63.597,70.552 63.553 C 70.442 63.508,69.309 64.266,68.034 65.236 C 66.758 66.206,65.675 67.000,65.627 67.000 C 65.579 67.000,65.942 65.744,66.434 64.208 C 66.927 62.673,67.327 61.342,67.324 61.250 C 67.321 61.158,66.216 60.296,64.868 59.333 L 62.417 57.583 65.500 57.490 C 68.862 57.389,68.667 57.410,68.667 57.152 C 68.667 57.052,69.048 55.777,69.515 54.318 C 70.288 51.901,70.646 51.177,70.679 51.958 M103.833 51.869 C 103.833 51.980,104.213 53.255,104.678 54.702 L 105.523 57.333 108.604 57.333 C 110.550 57.333,111.650 57.393,111.587 57.495 C 111.532 57.584,110.571 58.308,109.452 59.105 C 106.536 61.180,106.651 61.053,106.920 61.890 C 107.932 65.045,108.496 66.893,108.456 66.932 C 108.431 66.958,107.373 66.196,106.105 65.239 C 103.330 63.145,103.864 63.151,101.189 65.181 C 99.970 66.106,98.932 66.821,98.881 66.770 C 98.831 66.720,99.182 65.430,99.660 63.905 C 100.139 62.379,100.468 61.077,100.391 61.010 C 100.313 60.943,99.163 60.108,97.834 59.153 L 95.418 57.417 98.570 57.333 L 101.721 57.250 102.603 54.500 C 103.087 52.987,103.487 51.731,103.492 51.708 C 103.521 51.559,103.833 51.706,103.833 51.869 M343.417 52.000 C 351.827 54.151,351.362 67.813,342.833 69.160 C 342.238 69.254,340.494 69.331,338.958 69.332 L 336.167 69.333 336.167 60.500 L 336.167 51.667 339.140 51.667 C 341.568 51.667,342.352 51.728,343.417 52.000 M288.564 58.560 C 289.261 60.289,289.789 61.770,289.739 61.852 C 289.628 62.031,284.552 62.053,284.444 61.875 C 284.379 61.770,286.287 56.463,286.856 55.167 C 287.029 54.770,287.045 54.766,287.168 55.083 C 287.240 55.267,287.868 56.831,288.564 58.560 M165.611 58.375 C 166.355 60.231,166.930 61.806,166.889 61.875 C 166.783 62.050,161.706 62.032,161.598 61.856 C 161.549 61.777,162.036 60.296,162.680 58.565 C 163.325 56.833,163.883 55.323,163.921 55.208 C 164.083 54.717,164.330 55.180,165.611 58.375 M81.511 69.071 C 82.791 69.342,84.395 69.989,85.620 70.726 L 86.491 71.250 86.495 80.716 L 86.500 90.183 85.754 89.670 C 82.232 87.246,78.053 87.014,73.825 89.006 C 70.755 90.453,68.594 90.647,66.390 89.672 L 65.667 89.352 65.667 80.002 L 65.667 70.652 66.292 70.784 C 68.761 71.308,72.868 70.739,75.227 69.547 C 76.508 68.899,79.597 68.665,81.511 69.071 M98.333 69.404 C 102.746 70.974,102.405 70.895,104.833 70.906 C 106.071 70.912,107.365 70.857,107.710 70.784 L 108.336 70.651 108.293 80.033 L 108.250 89.415 107.250 89.824 C 105.240 90.646,103.219 90.390,100.096 88.917 C 96.038 87.004,91.430 87.336,88.234 89.773 C 87.951 89.990,87.669 90.167,87.609 90.167 C 87.549 90.167,87.500 85.929,87.500 80.750 L 87.500 71.334 88.292 70.836 C 91.387 68.890,95.313 68.330,98.333 69.404 M65.710 90.424 C 68.540 91.700,70.619 91.596,73.988 90.009 C 77.619 88.299,80.612 88.192,83.686 89.661 C 85.503 90.530,86.407 91.314,86.470 92.076 L 86.524 92.724 85.545 91.821 C 82.530 89.037,78.261 88.694,73.905 90.887 C 70.712 92.494,67.746 92.487,64.750 90.866 L 63.917 90.415 63.872 81.083 L 63.827 71.750 64.205 71.440 L 64.583 71.129 64.626 80.542 L 64.669 89.956 65.710 90.424 M110.133 71.533 C 110.284 71.684,110.333 74.017,110.333 81.011 L 110.333 90.288 109.375 90.717 C 106.471 92.016,103.203 92.190,100.833 91.172 C 98.566 90.199,98.083 90.031,96.792 89.764 C 93.567 89.098,90.975 89.727,88.581 91.758 L 87.500 92.675 87.500 92.127 C 87.500 91.464,88.678 90.454,90.372 89.666 C 93.546 88.188,96.448 88.305,100.263 90.063 C 103.479 91.546,105.617 91.664,108.146 90.498 L 109.333 89.951 109.333 80.642 C 109.333 70.642,109.326 70.726,110.133 71.533 M60.013 72.603 C 60.389 72.932,61.240 72.888,62.000 72.500 C 62.359 72.317,62.694 72.167,62.743 72.167 C 62.793 72.167,62.833 76.355,62.833 81.474 C 62.833 92.054,62.660 90.923,64.417 91.802 C 67.915 93.553,71.527 93.481,74.744 91.595 C 78.082 89.640,82.492 90.139,85.125 92.770 C 86.196 93.841,86.211 94.000,85.245 94.000 C 84.428 94.000,84.129 94.303,84.502 94.752 C 84.786 95.095,89.114 95.114,89.579 94.774 C 90.123 94.376,89.783 94.024,88.800 93.967 L 87.917 93.917 89.001 92.823 C 91.655 90.147,95.297 89.777,99.648 91.742 C 102.960 93.237,106.480 93.149,110.125 91.481 L 111.167 91.004 111.167 81.696 C 111.167 76.577,111.213 72.342,111.271 72.285 C 111.328 72.228,111.662 72.328,112.014 72.507 C 112.832 72.924,113.569 72.921,114.254 72.497 C 115.211 71.906,116.186 72.697,115.675 73.651 C 115.448 74.075,114.485 74.133,114.160 73.742 C 114.007 73.557,113.707 73.498,113.098 73.534 L 112.250 73.583 112.250 74.583 L 112.250 75.583 113.042 75.634 C 113.560 75.667,113.962 75.595,114.204 75.426 C 114.703 75.077,115.221 75.099,115.571 75.486 C 116.282 76.272,115.286 77.339,114.355 76.789 C 114.063 76.617,113.523 76.500,113.016 76.500 L 112.167 76.500 112.167 77.500 L 112.167 78.500 113.070 78.500 C 113.614 78.500,114.169 78.388,114.466 78.217 C 115.393 77.685,116.321 78.822,115.571 79.571 C 115.243 79.900,114.662 79.908,114.240 79.589 C 114.054 79.448,113.545 79.342,113.042 79.339 L 112.167 79.333 112.167 80.417 L 112.167 81.500 113.063 81.500 C 113.656 81.500,114.029 81.416,114.167 81.250 C 114.654 80.663,115.833 81.120,115.833 81.895 C 115.833 82.557,114.581 83.035,114.250 82.500 C 114.193 82.408,113.701 82.333,113.157 82.333 L 112.167 82.333 112.167 83.333 L 112.167 84.333 113.042 84.328 C 113.545 84.325,114.054 84.219,114.240 84.078 C 115.190 83.359,116.348 84.488,115.558 85.362 C 115.225 85.730,114.680 85.754,114.240 85.422 C 114.053 85.280,113.544 85.175,113.034 85.172 L 112.151 85.167 112.200 86.208 L 112.250 87.250 113.098 87.299 C 113.707 87.335,114.007 87.276,114.160 87.091 C 114.430 86.766,115.394 86.755,115.658 87.073 C 116.351 87.907,115.194 88.996,114.310 88.342 C 113.939 88.068,113.635 87.994,113.036 88.033 L 112.250 88.083 112.200 89.125 L 112.151 90.167 112.979 90.167 C 113.445 90.167,114.017 90.046,114.288 89.890 C 114.941 89.515,115.625 89.694,115.772 90.278 C 115.984 91.124,114.983 91.838,114.367 91.280 C 113.801 90.768,112.623 90.908,111.723 91.595 C 108.298 94.210,102.867 94.638,99.487 92.559 C 97.264 91.193,94.825 90.815,92.643 91.498 C 90.946 92.029,89.192 93.167,90.069 93.167 C 90.900 93.167,91.366 94.583,90.765 95.282 L 90.363 95.750 87.404 95.803 C 84.174 95.860,83.819 95.819,83.329 95.329 C 82.706 94.706,83.078 93.497,84.009 93.118 C 84.382 92.967,83.439 92.249,82.167 91.716 C 81.204 91.313,80.869 91.262,79.160 91.256 L 77.236 91.250 74.993 92.365 C 72.221 93.742,71.887 93.831,69.477 93.832 C 66.581 93.834,64.234 93.077,62.254 91.503 C 61.521 90.920,60.432 90.819,59.745 91.268 C 58.926 91.805,57.924 91.082,58.311 90.234 C 58.548 89.712,59.221 89.555,59.745 89.898 C 59.985 90.055,60.503 90.167,60.994 90.167 L 61.833 90.167 61.833 89.083 L 61.833 88.000 61.093 88.000 C 60.639 88.000,60.122 88.136,59.757 88.351 C 58.800 88.916,57.828 88.125,58.402 87.249 C 58.716 86.770,59.416 86.692,59.926 87.078 C 60.104 87.213,60.606 87.325,61.042 87.328 L 61.833 87.333 61.833 86.250 L 61.833 85.167 60.937 85.167 C 60.344 85.167,59.971 85.251,59.833 85.417 C 59.396 85.944,58.167 85.452,58.167 84.750 C 58.167 84.048,59.396 83.556,59.833 84.083 C 59.971 84.249,60.344 84.333,60.937 84.333 L 61.833 84.333 61.833 83.333 L 61.833 82.333 60.927 82.333 C 60.428 82.333,59.973 82.408,59.917 82.500 C 59.699 82.852,58.686 82.685,58.401 82.250 C 57.830 81.378,59.045 80.578,59.926 81.245 C 60.104 81.379,60.606 81.492,61.042 81.495 L 61.833 81.500 61.833 80.417 L 61.833 79.333 61.097 79.333 C 60.692 79.333,60.144 79.458,59.879 79.610 C 58.925 80.157,57.856 79.416,58.400 78.585 C 58.753 78.047,59.262 77.915,59.752 78.236 C 59.985 78.389,60.509 78.500,60.994 78.500 L 61.833 78.500 61.833 77.500 L 61.833 76.500 60.994 76.500 C 60.497 76.500,59.985 76.611,59.737 76.774 C 59.000 77.257,58.039 76.525,58.346 75.713 C 58.540 75.200,59.276 75.045,59.879 75.390 C 60.144 75.542,60.692 75.667,61.097 75.667 L 61.833 75.667 61.833 74.583 L 61.833 73.500 61.055 73.500 C 60.570 73.500,60.163 73.602,59.977 73.771 C 59.547 74.160,58.826 74.111,58.468 73.669 C 57.694 72.713,59.061 71.770,60.013 72.603 M151.946 79.792 C 151.906 79.860,152.584 81.679,153.454 83.833 C 154.323 85.987,155.728 89.475,156.576 91.583 C 158.388 96.091,158.519 96.231,159.216 94.384 C 159.451 93.760,160.213 91.862,160.909 90.167 C 161.605 88.471,162.525 86.201,162.953 85.122 C 163.381 84.043,163.797 83.182,163.876 83.209 C 163.956 83.235,165.123 86.012,166.469 89.378 C 169.491 96.934,169.104 96.704,170.952 92.038 C 171.704 90.138,173.080 86.708,174.010 84.417 C 174.940 82.125,175.739 80.119,175.786 79.958 C 175.862 79.701,175.742 79.667,174.774 79.667 C 173.476 79.667,173.665 79.418,172.270 82.958 C 171.755 84.265,170.912 86.402,170.398 87.708 C 169.407 90.222,169.384 90.272,169.244 90.133 C 169.158 90.047,167.597 86.290,166.661 83.917 C 164.816 79.238,165.089 79.637,163.771 79.701 L 162.762 79.750 160.672 84.945 C 159.523 87.802,158.545 90.177,158.499 90.223 C 158.454 90.268,157.674 88.456,156.768 86.195 C 155.861 83.933,154.894 81.540,154.620 80.875 L 154.120 79.667 153.070 79.667 C 152.492 79.667,151.987 79.723,151.946 79.792 M235.667 80.744 L 235.667 81.825 238.292 81.871 L 240.917 81.917 240.960 88.716 L 241.004 95.515 242.127 95.466 L 243.250 95.417 243.294 88.629 L 243.337 81.842 246.044 81.796 L 248.750 81.750 248.750 80.750 L 248.750 79.750 242.208 79.706 L 235.667 79.663 235.667 80.744 M320.750 79.855 C 320.702 79.981,320.683 83.533,320.707 87.750 L 320.750 95.417 321.875 95.466 L 323.000 95.515 323.000 92.091 L 323.000 88.667 323.625 88.668 C 325.159 88.670,326.605 89.759,327.778 91.797 C 328.027 92.229,328.669 93.240,329.203 94.042 L 330.175 95.500 331.504 95.500 C 333.053 95.500,333.012 95.562,332.193 94.451 C 331.842 93.974,331.044 92.770,330.420 91.776 C 329.797 90.782,328.875 89.524,328.371 88.979 C 327.867 88.435,327.484 87.971,327.519 87.947 C 328.831 87.076,329.038 86.873,329.434 86.064 C 330.587 83.706,329.489 80.966,327.032 80.074 C 325.964 79.686,320.883 79.509,320.750 79.855 M186.004 81.137 C 185.412 81.729,185.372 82.126,185.845 82.728 C 186.531 83.599,188.000 83.116,188.000 82.018 C 188.000 80.863,186.806 80.335,186.004 81.137 M326.278 82.118 C 328.768 83.410,327.438 86.500,324.392 86.500 L 323.000 86.500 323.000 84.060 L 323.000 81.619 324.335 81.711 C 325.161 81.767,325.901 81.922,326.278 82.118 M296.042 84.874 C 293.886 87.037,293.904 87.000,294.978 87.000 L 295.790 87.000 295.869 90.125 C 295.958 93.581,296.084 94.120,296.985 94.878 C 297.971 95.708,299.794 95.869,301.262 95.256 C 302.005 94.945,302.193 93.014,301.458 93.246 C 298.281 94.246,297.945 93.886,298.033 89.583 L 298.083 87.083 299.716 87.036 L 301.350 86.988 301.300 86.036 L 301.250 85.083 299.633 85.036 L 298.016 84.988 297.966 83.990 L 297.917 82.992 296.042 84.874 M177.417 84.989 C 175.815 85.379,175.167 86.055,175.167 87.333 C 175.167 88.498,175.243 88.527,176.255 87.755 C 178.138 86.318,180.212 86.663,180.238 88.418 L 180.250 89.219 178.522 89.846 C 175.890 90.802,174.901 91.790,175.056 93.311 C 175.261 95.326,177.541 96.251,179.544 95.131 L 180.300 94.709 180.608 95.121 C 181.518 96.335,184.454 95.256,183.933 93.899 C 183.852 93.687,183.773 93.690,183.331 93.918 C 182.567 94.313,182.554 94.265,182.463 90.624 C 182.369 86.858,182.298 86.574,181.233 85.696 C 180.312 84.937,178.790 84.655,177.417 84.989 M203.037 85.068 C 201.556 85.552,201.167 86.026,201.167 87.339 L 201.167 88.495 202.042 87.829 C 204.078 86.279,206.272 86.671,206.134 88.561 L 206.083 89.249 204.410 89.838 C 201.797 90.758,201.000 91.525,201.000 93.120 C 201.000 95.238,203.179 96.253,205.407 95.172 C 205.984 94.892,206.250 94.833,206.297 94.973 C 206.701 96.186,209.833 95.601,209.833 94.313 C 209.833 93.578,209.827 93.575,209.153 93.923 C 208.364 94.332,208.333 94.211,208.333 90.692 C 208.333 87.613,208.309 87.357,207.958 86.662 C 207.217 85.196,204.920 84.452,203.037 85.068 M224.500 84.989 C 222.836 85.325,222.167 86.021,222.167 87.417 C 222.167 88.577,222.267 88.700,222.766 88.149 C 224.159 86.609,226.687 86.465,227.160 87.898 C 227.532 89.022,227.409 89.184,225.750 89.758 C 223.253 90.623,222.303 91.353,222.072 92.586 C 221.618 95.005,223.863 96.314,226.479 95.156 L 227.222 94.827 227.601 95.183 C 228.587 96.109,230.868 95.506,230.968 94.292 C 231.028 93.572,231.060 93.589,230.267 93.920 C 229.492 94.244,229.539 94.440,229.455 90.500 C 229.350 85.620,228.126 84.258,224.500 84.989 M249.250 84.979 C 248.636 85.141,247.683 85.619,247.292 85.963 C 247.066 86.160,247.000 86.482,247.000 87.379 C 247.000 88.677,246.908 88.658,248.193 87.635 C 249.546 86.557,251.459 86.630,251.939 87.778 C 252.432 88.957,252.284 89.149,250.363 89.818 C 247.740 90.731,246.720 91.760,246.872 93.340 C 247.070 95.404,249.150 96.230,251.354 95.118 L 252.083 94.750 252.417 95.135 C 253.285 96.137,255.667 95.554,255.667 94.339 C 255.667 93.571,255.690 93.588,255.069 93.910 C 254.223 94.349,254.167 94.139,254.167 90.574 C 254.167 87.237,254.083 86.709,253.447 86.025 C 252.598 85.113,250.618 84.619,249.250 84.979 M272.631 84.998 C 272.383 85.073,271.836 85.366,271.417 85.649 C 270.643 86.172,270.584 86.157,270.466 85.417 C 270.422 85.136,270.264 85.076,269.462 85.034 C 268.244 84.970,268.312 84.623,268.370 90.583 L 268.417 95.417 269.458 95.466 L 270.500 95.516 270.500 91.847 L 270.500 88.178 271.015 87.591 C 271.917 86.564,273.527 86.392,274.321 87.237 C 274.817 87.765,274.988 89.147,274.995 92.708 L 275.000 95.500 276.000 95.500 L 277.000 95.500 277.000 91.783 L 277.000 88.065 277.552 87.530 C 278.579 86.535,279.917 86.465,280.775 87.359 L 281.250 87.854 281.333 91.636 L 281.417 95.417 282.458 95.466 L 283.500 95.516 283.500 91.872 C 283.500 86.935,283.119 85.788,281.241 85.071 C 279.871 84.548,278.766 84.874,276.762 86.392 C 276.642 86.483,276.333 86.294,275.908 85.869 C 275.001 84.962,273.806 84.644,272.631 84.998 M287.537 85.068 C 286.049 85.554,285.667 86.023,285.667 87.359 L 285.667 88.535 286.252 88.020 C 288.246 86.270,290.778 86.582,290.634 88.561 L 290.583 89.249 288.885 89.847 C 286.289 90.761,285.444 91.584,285.439 93.209 C 285.432 95.228,287.670 96.225,289.863 95.180 L 290.642 94.808 290.983 95.150 C 291.976 96.142,294.333 95.511,294.333 94.252 C 294.333 93.581,294.324 93.577,293.639 93.931 C 292.886 94.321,292.861 94.218,292.803 90.500 C 292.753 87.257,292.730 87.052,292.360 86.457 C 291.544 85.144,289.289 84.494,287.537 85.068 M305.250 84.989 C 303.640 85.381,303.000 86.073,303.000 87.423 C 303.000 88.577,303.101 88.700,303.599 88.149 C 305.321 86.246,308.306 86.564,308.135 88.632 L 308.083 89.250 306.364 89.855 C 303.780 90.764,302.914 91.612,302.932 93.213 C 302.955 95.241,305.027 96.175,307.290 95.178 L 308.164 94.793 308.464 95.163 C 309.403 96.324,312.275 95.224,311.766 93.899 C 311.685 93.687,311.606 93.690,311.165 93.918 C 310.368 94.330,310.333 94.206,310.332 90.948 C 310.332 89.281,310.252 87.630,310.155 87.280 C 309.656 85.482,307.452 84.453,305.250 84.989 M335.537 85.068 C 334.056 85.552,333.667 86.026,333.667 87.339 L 333.667 88.495 334.525 87.846 C 336.591 86.282,338.773 86.669,338.633 88.574 L 338.583 89.249 336.910 89.838 C 334.288 90.761,333.425 91.601,333.450 93.208 C 333.481 95.282,335.625 96.196,337.997 95.148 C 338.472 94.938,338.766 94.882,338.804 94.996 C 339.202 96.190,342.333 95.584,342.333 94.313 C 342.333 93.584,342.323 93.577,341.690 93.904 C 340.902 94.312,340.863 94.162,340.804 90.498 C 340.742 86.578,340.655 86.284,339.310 85.453 C 338.379 84.877,336.656 84.701,335.537 85.068 M185.745 85.202 C 185.699 85.322,185.681 87.669,185.706 90.418 L 185.750 95.417 186.794 95.466 L 187.838 95.516 187.794 90.300 L 187.750 85.083 186.790 85.033 C 186.114 84.998,185.804 85.048,185.745 85.202 M190.278 85.111 C 190.217 85.172,190.167 88.697,190.167 92.944 L 190.167 100.667 191.250 100.667 L 192.333 100.667 192.333 97.992 L 192.333 95.318 192.958 95.451 C 196.725 96.250,199.557 94.018,199.558 90.250 C 199.560 87.483,198.181 85.839,195.357 85.240 C 194.235 85.003,190.482 84.907,190.278 85.111 M211.292 85.095 C 211.223 85.165,211.167 88.697,211.167 92.944 L 211.167 100.667 212.250 100.667 L 213.333 100.667 213.333 97.981 L 213.333 95.296 213.958 95.440 C 220.569 96.958,223.700 87.559,217.284 85.455 C 216.206 85.101,211.560 84.822,211.292 85.095 M257.502 85.247 C 257.091 85.743,257.357 92.755,257.823 93.717 C 258.792 95.714,262.552 96.336,263.582 94.669 C 263.772 94.361,263.977 94.493,264.031 94.958 C 264.081 95.398,264.127 95.419,265.127 95.466 L 266.171 95.516 266.127 90.300 L 266.083 85.083 265.083 85.083 L 264.083 85.083 264.000 88.908 L 263.917 92.734 263.195 93.283 C 262.602 93.736,262.326 93.833,261.643 93.833 C 259.762 93.833,259.600 93.441,259.528 88.708 L 259.472 85.000 258.590 85.000 C 258.013 85.000,257.636 85.086,257.502 85.247 M344.065 85.237 C 343.770 86.007,344.093 93.086,344.455 93.771 C 345.469 95.688,347.913 96.207,349.859 94.919 C 350.655 94.393,350.667 94.394,350.667 95.008 L 350.667 95.516 351.708 95.466 L 352.750 95.417 352.750 90.250 L 352.750 85.083 351.750 85.083 L 350.750 85.083 350.667 88.850 C 350.602 91.781,350.530 92.680,350.344 92.904 C 349.658 93.729,347.798 94.107,347.038 93.575 C 346.312 93.066,346.254 92.747,346.167 88.833 L 346.083 85.083 345.123 85.033 C 344.385 84.995,344.140 85.042,344.065 85.237 M196.015 87.528 C 199.352 89.404,196.491 95.087,192.953 93.609 L 192.333 93.350 192.333 90.151 L 192.333 86.952 193.868 87.068 C 194.942 87.149,195.586 87.287,196.015 87.528 M217.080 87.551 C 220.602 89.476,217.541 95.038,213.792 93.526 L 213.333 93.342 213.333 90.147 L 213.333 86.952 214.872 87.068 C 215.976 87.152,216.600 87.288,217.080 87.551 M180.333 91.981 C 180.333 93.755,179.652 94.450,178.255 94.099 C 176.506 93.661,176.867 91.927,178.903 90.985 C 180.370 90.305,180.333 90.279,180.333 91.981 M206.167 91.996 C 206.167 93.691,205.993 93.943,204.703 94.116 C 203.337 94.300,202.538 92.718,203.508 91.750 C 203.853 91.406,205.640 90.530,206.042 90.507 C 206.110 90.503,206.167 91.173,206.167 91.996 M227.333 91.888 C 227.333 93.920,225.798 94.980,224.596 93.778 C 223.623 92.805,224.186 91.679,226.034 90.901 C 227.363 90.341,227.333 90.318,227.333 91.888 M252.131 91.952 C 252.064 93.975,250.598 94.947,249.409 93.758 C 248.455 92.804,249.085 91.559,250.867 90.876 C 252.233 90.352,252.186 90.312,252.131 91.952 M290.667 91.996 C 290.667 93.402,290.642 93.509,290.256 93.761 C 288.582 94.858,286.673 93.254,287.958 91.831 C 288.336 91.413,290.077 90.519,290.542 90.504 C 290.610 90.502,290.667 91.173,290.667 91.996 M308.167 91.981 C 308.167 93.740,307.890 94.076,306.445 94.081 C 304.421 94.087,304.500 92.087,306.563 91.083 C 308.215 90.279,308.167 90.252,308.167 91.981 M338.667 91.996 C 338.667 93.402,338.642 93.509,338.256 93.761 C 336.585 94.857,334.668 93.251,335.958 91.836 C 336.335 91.423,338.063 90.534,338.542 90.507 C 338.610 90.503,338.667 91.173,338.667 91.996 M87.345 99.968 C 87.351 100.123,87.713 101.337,88.148 102.667 L 88.940 105.083 91.983 105.129 C 93.782 105.156,95.003 105.238,94.971 105.330 C 94.919 105.481,93.961 106.198,91.375 108.022 C 90.710 108.491,90.167 108.937,90.167 109.013 C 90.167 109.088,90.542 110.328,91.000 111.766 C 91.458 113.205,91.833 114.480,91.833 114.599 C 91.833 114.718,90.752 113.996,89.431 112.994 L 87.029 111.173 84.641 112.991 C 83.327 113.990,82.232 114.787,82.206 114.762 C 82.180 114.736,82.562 113.448,83.055 111.899 C 83.547 110.350,83.891 109.006,83.818 108.912 C 83.746 108.817,82.636 107.992,81.352 107.078 C 80.068 106.164,79.013 105.360,79.008 105.292 C 79.004 105.223,80.379 105.167,82.064 105.167 L 85.128 105.167 85.903 102.708 C 86.330 101.356,86.751 100.077,86.840 99.866 C 87.015 99.449,87.326 99.512,87.345 99.968 M152.731 105.574 C 152.680 105.706,152.665 105.949,152.697 106.115 C 152.752 106.406,156.450 106.418,253.127 106.458 L 353.500 106.500 353.500 105.917 L 353.500 105.333 253.161 105.333 C 165.932 105.333,152.811 105.365,152.731 105.574 M152.833 116.500 L 152.833 121.833 153.913 121.833 L 154.993 121.833 155.038 118.225 L 155.083 114.616 158.086 118.183 L 161.089 121.750 162.045 121.800 L 163.000 121.850 163.000 116.508 L 163.000 111.167 162.000 111.167 L 161.000 111.167 161.000 114.750 C 161.000 116.721,160.944 118.330,160.875 118.327 C 160.806 118.323,159.400 116.714,157.750 114.752 L 154.750 111.184 153.792 111.175 L 152.833 111.167 152.833 116.500 M173.833 116.500 L 173.833 121.833 177.342 121.833 L 180.852 121.833 180.801 121.042 L 180.750 120.250 178.292 120.204 L 175.833 120.158 175.833 118.750 L 175.833 117.343 178.125 117.296 L 180.417 117.250 180.467 116.458 L 180.518 115.667 178.384 115.664 C 175.740 115.661,175.805 115.700,175.867 114.152 L 175.917 112.917 178.292 112.870 L 180.667 112.824 180.667 111.995 L 180.667 111.167 177.250 111.167 L 173.833 111.167 173.833 116.500 M190.000 111.207 C 190.000 111.257,191.469 114.938,192.678 117.917 C 192.939 118.558,193.410 119.721,193.726 120.500 C 194.688 122.871,194.784 122.800,196.701 118.309 C 197.572 116.269,198.351 114.579,198.434 114.553 C 198.573 114.510,199.037 115.546,200.974 120.217 C 202.082 122.888,202.214 122.827,203.796 118.917 C 206.317 112.687,206.833 111.387,206.833 111.278 C 206.833 111.217,206.352 111.167,205.764 111.167 L 204.694 111.167 204.406 111.958 C 204.247 112.394,203.973 113.087,203.797 113.500 C 203.621 113.912,203.216 114.925,202.896 115.750 C 202.577 116.575,202.256 117.310,202.183 117.382 C 202.111 117.455,201.582 116.405,201.009 115.049 C 200.435 113.693,199.828 112.265,199.659 111.875 L 199.352 111.167 198.445 111.167 L 197.539 111.167 196.501 113.625 C 194.933 117.339,194.835 117.557,194.758 117.480 C 194.718 117.441,194.127 116.023,193.443 114.329 L 192.199 111.250 191.100 111.201 C 190.495 111.174,190.000 111.176,190.000 111.207 M228.667 112.000 L 228.667 112.833 231.500 112.833 C 233.058 112.833,234.333 112.868,234.333 112.911 C 234.333 112.974,230.234 119.022,228.737 121.167 L 228.330 121.750 233.038 121.794 C 238.486 121.846,238.202 121.892,238.135 120.960 L 238.083 120.250 235.029 120.167 L 231.975 120.083 232.454 119.417 C 233.856 117.465,238.000 111.372,238.000 111.262 C 238.000 111.209,235.900 111.167,233.333 111.167 L 228.667 111.167 228.667 112.000 M248.000 116.503 L 248.000 121.840 251.542 121.795 L 255.083 121.750 255.083 121.000 L 255.083 120.250 252.625 120.204 L 250.167 120.158 250.167 118.750 L 250.167 117.343 252.458 117.296 L 254.750 117.250 254.801 116.463 L 254.851 115.676 252.551 115.630 L 250.250 115.583 250.202 114.208 L 250.153 112.833 252.577 112.833 L 255.000 112.833 255.000 112.000 L 255.000 111.167 251.500 111.167 L 248.000 111.167 248.000 116.503 M268.288 112.118 C 268.052 112.649,267.711 113.458,267.531 113.917 C 267.158 114.865,265.430 119.064,264.772 120.620 C 264.531 121.190,264.333 121.696,264.333 121.745 C 264.333 121.794,264.825 121.833,265.425 121.833 L 266.517 121.833 266.765 121.208 C 266.902 120.865,267.134 120.302,267.282 119.958 L 267.551 119.333 269.868 119.333 L 272.185 119.333 272.603 120.292 C 272.832 120.819,273.080 121.362,273.152 121.500 C 273.277 121.735,275.500 121.986,275.500 121.765 C 275.500 121.719,275.203 121.021,274.839 120.215 C 274.476 119.409,273.432 117.063,272.520 115.000 L 270.861 111.250 269.790 111.201 L 268.718 111.153 268.288 112.118 M285.167 116.500 L 285.167 121.833 288.842 121.833 L 292.518 121.833 292.467 121.042 L 292.417 120.250 289.875 120.204 L 287.333 120.158 287.333 115.662 L 287.333 111.167 286.250 111.167 L 285.167 111.167 285.167 116.500 M305.347 111.534 C 305.265 111.744,304.843 112.779,304.411 113.833 C 303.978 114.888,303.380 116.350,303.082 117.083 C 302.783 117.817,302.230 119.164,301.853 120.076 C 301.475 120.989,301.167 121.761,301.167 121.792 C 301.167 121.823,301.673 121.826,302.292 121.799 L 303.416 121.750 303.895 120.542 L 304.374 119.333 306.757 119.333 L 309.141 119.333 309.343 119.958 C 309.454 120.302,309.686 120.865,309.859 121.208 L 310.173 121.833 311.253 121.833 C 311.847 121.833,312.333 121.793,312.333 121.744 C 312.333 121.695,311.925 120.738,311.425 119.619 C 310.925 118.499,309.887 116.158,309.117 114.417 L 307.718 111.250 306.608 111.201 C 305.582 111.155,305.486 111.181,305.347 111.534 M322.000 116.500 L 322.000 121.833 323.000 121.833 L 324.000 121.833 324.000 118.236 C 324.000 115.552,324.050 114.655,324.196 114.704 C 324.304 114.740,325.712 116.340,327.325 118.260 L 330.257 121.750 331.212 121.800 L 332.167 121.850 332.167 116.508 L 332.167 111.167 331.170 111.167 L 330.173 111.167 330.128 114.802 L 330.083 118.438 327.000 114.813 L 323.917 111.188 322.958 111.177 L 322.000 111.167 322.000 116.500 M342.957 111.265 C 342.889 111.333,342.833 113.739,342.833 116.611 L 342.833 121.833 345.683 121.833 C 347.760 121.833,348.772 121.763,349.418 121.576 C 353.977 120.250,354.489 113.909,350.207 111.799 L 349.092 111.250 346.087 111.196 C 344.433 111.166,343.025 111.197,342.957 111.265 M349.228 113.395 C 351.437 114.690,351.510 118.066,349.361 119.576 C 348.681 120.054,348.534 120.087,346.820 120.140 L 345.000 120.196 345.000 116.626 C 345.000 114.662,345.056 112.997,345.125 112.926 C 345.445 112.596,348.450 112.939,349.228 113.395 M270.827 116.068 C 271.497 117.754,271.552 117.667,269.833 117.667 C 268.073 117.667,268.135 117.836,269.039 115.496 L 269.744 113.670 270.033 114.232 C 270.191 114.541,270.549 115.368,270.827 116.068 M307.486 115.667 C 308.394 117.780,308.440 117.667,306.667 117.667 C 305.746 117.667,305.167 117.600,305.167 117.495 C 305.167 117.091,306.556 113.823,306.675 113.947 C 306.747 114.022,307.112 114.796,307.486 115.667 " stroke="none" fill="#05457d" fill-rule="evenodd"></path><path id="path1" d="M10.573 10.563 L -0.000 21.126 -0.000 81.729 L 0.000 142.333 189.420 142.333 L 378.841 142.333 389.420 131.763 L 400.000 121.192 400.000 60.596 L 400.000 0.000 210.573 0.000 L 21.146 0.000 10.573 10.563 M155.967 21.367 C 156.116 21.516,156.168 23.295,156.170 28.325 C 156.174 35.956,156.160 35.856,157.467 37.035 C 159.547 38.910,163.619 38.252,164.723 35.863 C 165.069 35.114,165.087 34.813,165.167 28.167 L 165.250 21.250 166.833 21.250 L 168.417 21.250 168.417 28.000 C 168.417 33.177,168.363 34.964,168.187 35.667 C 166.253 43.394,154.714 43.430,153.079 35.713 C 152.827 34.528,152.706 21.516,152.944 21.278 C 153.144 21.078,155.755 21.155,155.967 21.367 M175.774 21.712 C 176.036 22.012,178.537 25.171,181.333 28.732 L 186.417 35.206 186.500 28.228 L 186.583 21.250 188.083 21.250 L 189.583 21.250 189.583 31.167 L 189.583 41.083 188.250 41.128 L 186.917 41.173 186.000 39.987 C 185.496 39.335,183.634 36.953,181.863 34.693 C 180.091 32.433,178.235 30.058,177.738 29.417 C 177.241 28.775,176.647 28.025,176.418 27.750 L 176.002 27.250 176.001 34.215 L 176.000 41.179 174.458 41.131 L 172.917 41.083 172.873 31.333 C 172.850 25.971,172.866 21.490,172.910 21.375 C 173.105 20.864,175.256 21.117,175.774 21.712 M197.293 31.214 L 197.336 41.179 195.710 41.131 L 194.083 41.083 194.037 31.500 C 193.982 19.938,193.786 21.142,195.713 21.202 L 197.250 21.250 197.293 31.214 M205.458 22.250 C 205.675 22.800,206.068 23.813,206.330 24.500 C 206.593 25.188,207.027 26.313,207.296 27.000 C 207.564 27.688,208.211 29.368,208.733 30.734 C 210.168 34.488,209.823 34.485,211.247 30.750 C 211.561 29.925,212.123 28.462,212.497 27.500 C 212.870 26.537,213.524 24.813,213.950 23.667 C 214.946 20.989,214.764 21.167,216.520 21.167 C 218.423 21.167,218.584 20.237,215.087 29.417 C 214.389 31.250,213.215 34.362,212.478 36.333 C 210.584 41.399,210.616 41.333,210.033 41.333 C 209.501 41.333,210.107 42.784,203.585 25.917 C 201.527 20.595,201.532 21.139,203.546 21.202 L 205.064 21.250 205.458 22.250 M233.131 22.875 L 233.179 24.500 229.506 24.500 L 225.833 24.500 225.833 26.997 L 225.833 29.493 229.375 29.538 L 232.917 29.583 232.965 31.125 L 233.013 32.667 229.423 32.667 L 225.833 32.667 225.833 35.250 L 225.833 37.833 229.583 37.833 L 233.333 37.833 233.333 39.500 L 233.333 41.167 228.000 41.167 L 222.667 41.167 222.667 31.164 L 222.667 21.162 227.875 21.206 L 233.083 21.250 233.131 22.875 M243.563 21.344 C 246.763 21.935,248.248 23.728,248.249 27.000 C 248.250 29.095,247.977 29.834,246.757 31.034 L 245.961 31.818 246.709 32.701 C 247.121 33.186,248.040 34.596,248.751 35.833 C 249.463 37.071,250.447 38.701,250.939 39.457 C 252.115 41.263,252.160 41.186,249.969 41.130 L 248.105 41.083 246.894 39.000 C 243.914 33.876,242.998 32.836,241.458 32.834 L 240.833 32.833 240.833 37.006 L 240.833 41.179 239.208 41.131 L 237.583 41.083 237.537 31.500 C 237.512 26.229,237.532 21.748,237.582 21.542 C 237.687 21.110,241.599 20.981,243.563 21.344 M262.938 21.674 C 263.471 21.857,264.152 22.174,264.452 22.379 L 264.998 22.750 264.999 24.792 C 265.000 27.083,264.989 27.099,264.075 26.147 C 261.904 23.884,258.333 24.029,258.333 26.379 C 258.333 27.587,258.884 28.193,261.392 29.746 C 264.534 31.690,265.583 33.257,265.583 36.000 C 265.583 41.228,260.593 43.416,255.958 40.219 L 255.333 39.788 255.339 37.436 L 255.344 35.083 255.766 35.583 C 258.439 38.753,261.098 39.398,262.390 37.192 C 263.130 35.927,262.304 34.653,259.417 32.610 C 256.042 30.221,255.250 29.091,255.250 26.663 C 255.250 22.577,258.823 20.258,262.938 21.674 M273.293 31.215 L 273.336 41.179 271.793 41.131 L 270.250 41.083 270.207 31.333 C 270.183 25.971,270.200 21.487,270.246 21.368 C 270.306 21.210,270.714 21.166,271.789 21.202 L 273.250 21.250 273.293 31.215 M292.964 22.875 L 293.012 24.500 290.008 24.500 L 287.003 24.500 286.960 32.792 L 286.917 41.083 285.377 41.131 L 283.836 41.179 283.793 32.881 L 283.750 24.583 280.792 24.538 L 277.833 24.492 277.833 22.828 L 277.833 21.163 285.375 21.207 L 292.917 21.250 292.964 22.875 M301.866 24.318 C 303.085 26.051,304.127 27.441,304.182 27.407 C 304.236 27.374,305.270 25.956,306.478 24.256 L 308.674 21.167 310.504 21.167 C 312.750 21.167,312.731 21.044,310.875 23.627 C 310.073 24.743,308.629 26.765,307.667 28.120 L 305.917 30.583 305.833 35.833 L 305.750 41.083 304.167 41.083 L 302.583 41.083 302.539 35.897 L 302.495 30.711 299.183 26.064 C 297.361 23.508,295.904 21.360,295.945 21.292 C 295.986 21.223,296.836 21.167,297.835 21.167 L 299.650 21.167 301.866 24.318 M331.023 21.427 C 335.694 22.301,338.833 26.282,338.833 31.333 C 338.833 38.883,331.628 43.633,325.059 40.416 C 317.463 36.695,318.341 24.112,326.363 21.725 C 328.331 21.140,329.191 21.085,331.023 21.427 M353.083 22.833 L 353.083 24.417 349.792 24.462 L 346.500 24.507 346.500 26.754 L 346.500 29.000 349.833 29.000 L 353.167 29.000 353.167 30.583 L 353.167 32.167 349.833 32.167 L 346.500 32.167 346.500 36.500 L 346.500 40.833 344.917 40.833 L 343.333 40.833 343.333 31.111 C 343.333 25.764,343.384 21.338,343.447 21.275 C 343.509 21.213,345.703 21.182,348.322 21.206 L 353.083 21.250 353.083 22.833 M130.332 44.542 C 130.330 70.533,130.302 71.013,128.414 77.333 C 122.710 96.432,108.455 111.859,88.554 120.470 L 87.024 121.131 84.554 120.010 C 61.856 109.702,47.386 91.672,44.084 69.583 C 43.873 68.167,43.835 64.500,43.834 45.208 L 43.833 22.500 87.083 22.500 L 130.333 22.500 130.332 44.542 M240.871 26.958 L 240.917 29.583 242.116 29.551 C 244.136 29.495,244.998 28.740,244.999 27.025 C 245.001 25.204,243.979 24.333,241.840 24.333 L 240.825 24.333 240.871 26.958 M45.833 36.392 L 45.833 48.284 47.047 48.387 C 48.813 48.536,50.816 49.180,53.036 50.311 C 57.583 52.629,61.468 52.605,66.205 50.230 C 71.133 47.760,75.278 47.742,80.167 50.168 C 85.339 52.735,88.885 52.741,93.870 50.190 C 98.622 47.759,102.669 47.775,107.833 50.246 C 113.113 52.772,116.316 52.750,121.522 50.151 C 123.542 49.143,125.297 48.606,127.208 48.410 L 128.333 48.295 128.333 36.397 L 128.333 24.500 87.083 24.500 L 45.833 24.500 45.833 36.392 M327.325 24.881 C 321.403 26.900,321.710 36.331,327.750 37.941 C 331.052 38.821,334.479 36.733,335.273 33.358 C 336.588 27.770,332.291 23.188,327.325 24.881 M65.059 28.097 C 69.990 29.369,72.857 34.684,70.921 38.967 C 70.395 40.132,69.201 41.345,68.240 41.693 C 67.540 41.946,67.477 42.503,68.020 43.625 C 68.366 44.340,68.368 44.377,68.089 45.523 C 67.933 46.165,67.830 47.021,67.861 47.425 C 67.933 48.378,67.669 48.431,67.250 47.548 C 67.067 47.161,66.830 46.843,66.724 46.839 C 66.510 46.833,65.000 48.449,65.000 48.685 C 65.000 48.766,64.915 48.833,64.811 48.833 C 64.509 48.833,64.761 47.513,65.169 46.961 C 65.634 46.332,65.498 46.218,64.668 46.544 C 64.301 46.688,64.000 46.740,64.000 46.660 C 64.000 46.379,64.680 45.882,65.332 45.687 C 66.489 45.340,66.767 44.520,66.171 43.208 C 65.799 42.389,65.490 42.323,64.381 42.826 C 63.872 43.057,63.647 43.274,63.564 43.614 C 63.424 44.185,63.377 44.218,61.917 44.772 C 61.125 45.073,60.448 45.489,59.812 46.066 C 59.296 46.534,58.491 47.209,58.023 47.566 C 57.556 47.923,57.129 48.355,57.076 48.525 C 57.022 48.694,56.908 48.833,56.822 48.833 C 56.554 48.833,56.654 48.106,57.001 47.538 C 57.413 46.861,57.414 46.868,56.958 46.932 C 56.752 46.960,55.993 47.020,55.271 47.064 L 53.959 47.144 54.426 46.657 C 54.690 46.381,55.149 46.125,55.488 46.064 C 56.553 45.873,56.655 45.717,55.917 45.406 C 54.994 45.016,55.672 44.711,56.820 45.000 C 57.992 45.295,58.652 45.091,59.893 44.048 C 61.156 42.986,61.104 43.108,60.667 42.250 C 60.483 41.890,60.333 41.434,60.333 41.236 C 60.333 40.297,60.132 39.852,59.660 39.749 C 59.086 39.622,57.401 38.437,57.162 37.992 C 57.067 37.813,56.822 37.666,56.619 37.665 C 55.802 37.662,53.950 36.274,53.364 35.227 C 53.038 34.644,50.641 37.050,48.926 39.682 C 47.560 41.777,47.543 41.797,47.344 41.500 C 46.578 40.358,47.524 37.994,50.192 34.382 C 50.721 33.666,50.835 33.374,50.841 32.715 C 50.870 29.487,54.577 27.443,56.997 29.322 L 57.411 29.643 58.152 29.036 C 59.595 27.854,62.554 27.451,65.059 28.097 M92.200 28.017 C 99.009 29.433,101.534 39.537,95.614 41.678 C 94.865 41.949,94.830 42.272,95.405 43.572 C 95.711 44.264,95.775 44.600,95.669 44.952 C 95.591 45.208,95.439 45.705,95.331 46.058 C 95.215 46.435,95.180 47.007,95.246 47.451 C 95.386 48.382,95.073 48.381,94.611 47.449 C 94.189 46.598,93.512 46.882,92.655 48.269 C 92.426 48.639,92.233 48.799,92.133 48.700 C 91.906 48.473,92.261 47.283,92.666 46.917 C 93.322 46.324,92.891 46.123,91.976 46.596 C 91.697 46.740,91.420 46.809,91.360 46.748 C 91.176 46.564,92.132 45.856,92.809 45.673 C 94.085 45.330,94.168 42.500,92.902 42.500 C 92.087 42.500,91.156 43.013,91.055 43.518 C 90.931 44.135,90.835 44.203,89.215 44.826 C 88.151 45.235,87.734 45.495,87.341 45.990 C 87.064 46.340,86.586 46.746,86.280 46.891 C 85.973 47.037,85.374 47.529,84.948 47.984 C 84.058 48.935,83.832 48.843,84.325 47.731 C 84.513 47.306,84.667 46.948,84.667 46.937 C 84.667 46.926,83.973 46.961,83.125 47.016 C 82.277 47.071,81.546 47.083,81.500 47.044 C 81.349 46.913,82.340 46.171,82.800 46.070 C 83.047 46.015,83.438 45.912,83.667 45.841 L 84.083 45.710 83.667 45.535 C 83.438 45.439,83.100 45.309,82.917 45.247 C 82.201 45.003,83.343 44.784,84.207 44.999 C 85.463 45.313,86.104 45.108,87.328 44.000 L 88.407 43.024 88.102 42.387 C 87.934 42.037,87.758 41.333,87.711 40.824 L 87.626 39.897 86.823 39.612 C 86.381 39.455,85.621 38.965,85.135 38.522 C 84.648 38.080,84.025 37.666,83.750 37.601 C 83.002 37.425,81.593 36.402,81.080 35.662 C 80.537 34.878,80.496 34.892,79.018 36.359 C 77.858 37.512,76.549 39.205,75.657 40.708 C 75.019 41.784,74.895 41.850,74.663 41.239 C 74.167 39.935,74.830 38.325,77.337 34.750 C 78.193 33.529,78.272 33.339,78.279 32.498 C 78.303 29.352,82.242 27.446,84.545 29.465 C 84.814 29.701,84.878 29.687,85.295 29.300 C 86.747 27.949,89.455 27.446,92.200 28.017 M119.726 28.097 C 126.479 29.838,128.622 39.094,122.875 41.695 C 122.043 42.071,122.046 42.057,122.584 43.402 C 122.962 44.347,122.982 44.520,122.807 45.264 C 122.700 45.714,122.606 46.552,122.598 47.125 C 122.580 48.366,122.288 48.515,121.863 47.502 C 121.709 47.136,121.500 46.836,121.398 46.835 C 121.170 46.833,119.667 48.418,119.667 48.660 C 119.667 48.755,119.582 48.833,119.478 48.833 C 119.175 48.833,119.428 47.513,119.836 46.961 C 120.301 46.332,120.164 46.218,119.335 46.544 C 118.809 46.751,118.667 46.760,118.667 46.589 C 118.667 46.316,119.228 45.946,120.052 45.676 C 121.450 45.217,121.399 42.561,119.993 42.599 C 119.092 42.624,118.440 43.005,118.261 43.612 C 118.096 44.171,117.853 44.329,116.348 44.853 C 115.736 45.066,115.137 45.462,114.485 46.084 C 113.957 46.588,113.444 47.000,113.346 47.000 C 113.247 47.000,112.742 47.428,112.222 47.952 L 111.278 48.903 111.382 48.264 C 111.439 47.913,111.613 47.485,111.769 47.313 C 111.924 47.141,111.984 46.994,111.901 46.986 C 111.452 46.946,109.670 47.027,109.167 47.112 L 108.583 47.209 109.065 46.696 C 109.330 46.414,109.780 46.136,110.065 46.079 C 111.222 45.847,111.268 45.819,110.916 45.562 C 110.744 45.436,110.467 45.333,110.301 45.333 C 110.136 45.333,110.000 45.260,110.000 45.170 C 110.000 44.869,110.831 44.793,111.545 45.028 C 112.516 45.348,113.230 45.119,114.486 44.083 C 115.619 43.150,115.631 43.111,115.167 41.790 C 114.983 41.268,114.833 40.621,114.833 40.351 C 114.833 39.941,114.751 39.842,114.334 39.750 C 113.823 39.638,111.974 38.371,111.723 37.961 C 111.646 37.836,111.277 37.644,110.902 37.535 C 110.005 37.273,108.934 36.483,108.370 35.668 C 108.121 35.308,107.854 35.010,107.778 35.006 C 107.389 34.989,104.612 38.092,103.496 39.792 C 102.103 41.913,102.083 41.927,101.822 40.959 C 101.501 39.764,102.429 37.702,104.675 34.624 C 105.413 33.612,105.500 33.401,105.502 32.621 C 105.505 30.580,106.853 29.109,109.186 28.600 C 109.718 28.484,111.102 28.886,111.658 29.318 L 112.066 29.635 112.795 29.038 C 114.234 27.858,117.225 27.452,119.726 28.097 M59.314 29.333 C 58.982 29.509,58.371 30.030,57.955 30.493 C 57.141 31.398,57.000 31.482,57.000 31.061 C 57.000 30.432,55.868 29.667,54.937 29.667 C 53.124 29.667,51.794 31.007,51.865 32.764 C 51.906 33.754,51.887 33.803,51.064 34.847 C 50.156 35.999,48.833 37.918,48.833 38.083 C 48.833 38.178,50.229 36.580,50.883 35.736 C 51.188 35.342,53.219 33.667,53.392 33.667 C 53.443 33.667,53.680 33.998,53.917 34.402 C 54.533 35.453,55.671 36.444,56.527 36.673 C 57.015 36.803,57.554 37.155,58.184 37.755 C 58.978 38.510,59.268 38.674,60.120 38.851 L 61.123 39.058 61.215 40.269 C 61.345 41.989,61.438 42.103,62.256 41.547 C 62.619 41.300,63.169 40.975,63.478 40.824 C 63.874 40.631,64.168 40.287,64.478 39.651 C 64.832 38.925,65.024 38.721,65.471 38.598 C 69.663 37.439,68.549 30.379,64.167 30.331 L 63.750 30.326 64.133 30.032 C 64.783 29.531,63.503 29.254,62.428 29.663 C 61.927 29.853,61.886 29.738,62.292 29.280 C 62.651 28.873,61.713 28.953,60.803 29.407 C 60.175 29.720,59.851 29.749,60.133 29.467 C 60.660 28.940,60.200 28.865,59.314 29.333 M86.565 29.429 C 86.208 29.665,85.604 30.209,85.222 30.638 L 84.528 31.417 84.362 30.985 C 83.365 28.400,78.953 29.985,79.228 32.829 C 79.316 33.734,79.309 33.752,78.355 34.996 C 77.008 36.750,76.290 37.833,76.473 37.833 C 76.558 37.833,76.746 37.654,76.889 37.435 C 77.589 36.367,80.411 33.667,80.828 33.667 C 80.900 33.667,81.053 33.893,81.168 34.170 C 81.539 35.065,83.026 36.417,83.913 36.666 C 84.424 36.809,84.895 37.093,85.229 37.461 C 85.911 38.211,86.915 38.789,87.772 38.926 L 88.462 39.036 88.631 40.363 C 88.831 41.927,88.875 41.993,89.465 41.607 C 89.713 41.445,90.271 41.148,90.705 40.948 C 91.320 40.663,91.536 40.456,91.688 40.000 C 91.990 39.100,92.303 38.714,92.815 38.612 C 96.980 37.779,95.995 30.364,91.714 30.330 L 91.250 30.326 91.633 30.032 C 92.291 29.525,90.999 29.255,89.904 29.671 C 89.326 29.891,89.199 29.758,89.582 29.334 C 90.029 28.841,89.306 28.874,88.278 29.394 C 87.534 29.771,87.231 29.669,87.700 29.200 C 88.088 28.812,87.238 28.984,86.565 29.429 M114.038 29.277 C 113.737 29.425,113.124 29.948,112.675 30.439 C 111.716 31.489,111.765 31.472,111.498 30.829 C 110.431 28.252,105.695 30.400,106.480 33.104 C 106.621 33.589,106.544 33.740,105.385 35.271 C 103.378 37.920,103.099 38.642,104.912 36.493 C 105.853 35.379,107.756 33.667,108.055 33.667 C 108.099 33.667,108.324 33.990,108.556 34.385 C 109.164 35.423,110.342 36.445,111.193 36.673 C 111.681 36.803,112.221 37.155,112.850 37.755 C 113.650 38.516,113.931 38.674,114.809 38.855 L 115.833 39.067 115.833 39.846 C 115.833 41.506,116.191 42.163,116.798 41.618 C 116.955 41.477,117.439 41.182,117.874 40.962 C 118.507 40.642,118.757 40.381,119.124 39.657 C 119.489 38.938,119.696 38.721,120.131 38.600 C 124.281 37.448,123.172 30.379,118.833 30.331 L 118.417 30.326 118.799 30.032 C 119.458 29.525,118.166 29.255,117.071 29.671 C 116.470 29.900,116.391 29.776,116.845 29.321 L 117.219 28.948 116.592 29.050 C 116.247 29.106,115.673 29.304,115.316 29.490 C 114.762 29.778,114.349 29.716,114.833 29.417 C 115.473 29.022,114.796 28.903,114.038 29.277 M53.417 32.583 C 53.417 33.005,53.352 33.083,53.002 33.083 C 52.572 33.083,52.383 32.711,52.568 32.229 C 52.753 31.747,53.417 32.024,53.417 32.583 M80.896 32.372 C 81.036 32.594,81.014 32.724,80.802 32.936 C 80.302 33.436,79.558 32.783,80.008 32.241 C 80.267 31.928,80.653 31.985,80.896 32.372 M108.160 32.322 C 108.291 32.566,108.268 32.709,108.063 32.913 C 107.556 33.421,106.962 32.940,107.231 32.240 C 107.364 31.893,107.959 31.945,108.160 32.322 M220.370 47.169 C 221.941 47.349,223.886 47.904,225.768 48.710 L 226.953 49.216 227.059 50.817 C 227.191 52.810,227.196 54.333,227.072 54.333 C 227.019 54.333,226.663 54.118,226.280 53.855 C 218.758 48.696,210.339 52.250,210.339 60.583 C 210.339 68.868,218.612 72.290,226.199 67.144 C 226.721 66.790,227.190 66.500,227.241 66.500 C 227.292 66.500,227.333 67.650,227.333 69.056 L 227.333 71.611 225.831 72.325 C 216.393 76.810,206.699 71.585,206.058 61.667 C 205.537 53.590,210.630 47.674,218.667 47.023 C 218.804 47.012,219.571 47.078,220.370 47.169 M170.655 59.750 C 173.370 66.533,175.720 72.402,175.877 72.792 L 176.164 73.500 173.952 73.500 L 171.740 73.500 171.560 73.042 C 171.461 72.790,170.795 71.138,170.080 69.372 L 168.779 66.161 164.278 66.206 L 159.776 66.250 158.997 68.250 C 158.568 69.350,157.936 70.981,157.591 71.875 L 156.966 73.500 154.805 73.500 L 152.644 73.500 152.757 73.125 C 152.854 72.806,155.354 66.250,156.587 63.083 C 156.801 62.533,157.812 59.908,158.833 57.250 C 161.311 50.801,161.395 50.584,161.885 49.333 C 162.119 48.737,162.390 48.041,162.487 47.785 L 162.663 47.321 164.191 47.369 L 165.719 47.417 170.655 59.750 M185.007 56.500 C 185.111 66.835,185.053 66.392,186.496 67.848 C 189.158 70.533,194.619 70.034,196.187 66.961 C 196.882 65.598,196.894 65.444,196.990 56.333 L 197.083 47.417 199.133 47.370 L 201.182 47.323 201.133 56.703 L 201.083 66.083 200.594 67.486 C 197.418 76.585,183.289 75.981,181.090 66.652 C 180.882 65.767,180.838 64.011,180.836 56.453 L 180.833 47.323 182.875 47.370 L 184.917 47.417 185.007 56.500 M236.500 52.645 L 236.583 57.874 239.167 54.740 C 240.588 53.016,242.540 50.663,243.505 49.511 L 245.260 47.417 247.797 47.371 C 249.768 47.335,250.332 47.372,250.329 47.537 C 250.327 47.654,248.520 49.925,246.314 52.583 C 244.109 55.242,241.860 57.955,241.317 58.614 L 240.330 59.811 243.457 63.194 C 245.176 65.054,248.017 68.116,249.768 69.997 L 252.953 73.417 250.102 73.463 L 247.250 73.509 246.167 72.378 C 245.022 71.183,244.198 70.300,240.834 66.666 C 239.689 65.429,238.246 63.892,237.629 63.250 L 236.506 62.083 236.503 67.792 L 236.500 73.500 234.333 73.500 L 232.167 73.500 232.167 60.528 C 232.167 53.393,232.219 47.503,232.283 47.440 C 232.346 47.376,233.303 47.345,234.408 47.370 L 236.417 47.417 236.500 52.645 M260.960 58.375 L 261.002 69.333 266.085 69.333 L 271.167 69.333 271.167 71.417 L 271.167 73.500 264.000 73.500 L 256.833 73.500 256.833 60.412 L 256.833 47.323 258.875 47.370 L 260.917 47.417 260.960 58.375 M292.634 57.500 C 294.865 63.046,296.830 67.958,297.000 68.417 C 297.171 68.875,297.690 70.173,298.155 71.301 C 298.620 72.430,299.000 73.388,299.000 73.431 C 299.000 73.474,298.011 73.489,296.802 73.463 L 294.604 73.417 293.555 70.833 C 292.978 69.412,292.309 67.780,292.067 67.206 L 291.627 66.161 287.133 66.206 L 282.639 66.250 281.807 68.417 C 281.349 69.608,280.725 71.221,280.420 72.000 L 279.866 73.417 277.663 73.463 C 275.608 73.507,275.469 73.490,275.581 73.213 C 275.647 73.050,275.837 72.542,276.004 72.083 C 276.171 71.625,276.617 70.462,276.996 69.500 C 277.375 68.537,277.831 67.345,278.009 66.849 C 278.187 66.354,278.718 64.966,279.189 63.766 C 279.659 62.566,280.217 61.133,280.427 60.583 C 280.638 60.033,281.837 56.921,283.092 53.667 C 284.348 50.413,285.412 47.654,285.458 47.536 C 285.519 47.378,285.940 47.334,287.059 47.369 L 288.578 47.417 292.634 57.500 M308.206 49.500 C 309.109 50.646,311.288 53.408,313.049 55.639 C 314.810 57.870,316.438 59.942,316.667 60.244 C 316.896 60.545,317.983 61.937,319.083 63.336 L 321.083 65.879 321.167 56.648 L 321.250 47.417 323.208 47.370 L 325.167 47.323 325.167 60.411 L 325.167 73.500 323.427 73.500 L 321.688 73.500 320.710 72.292 C 319.753 71.108,318.496 69.507,317.667 68.412 C 317.438 68.109,315.037 65.041,312.333 61.594 L 307.417 55.326 307.374 64.413 L 307.330 73.500 305.249 73.500 L 303.167 73.500 303.167 60.528 C 303.167 53.393,303.219 47.503,303.283 47.439 C 303.348 47.375,304.112 47.343,304.982 47.369 L 306.563 47.417 308.206 49.500 M344.333 47.733 C 355.817 50.274,357.271 67.445,346.432 72.517 C 344.562 73.392,343.639 73.494,337.542 73.497 L 332.000 73.500 332.000 60.528 C 332.000 53.393,332.056 47.499,332.125 47.430 C 332.381 47.173,342.992 47.436,344.333 47.733 M69.515 54.318 C 69.048 55.777,68.667 57.052,68.667 57.152 C 68.667 57.410,68.862 57.389,65.500 57.490 L 62.417 57.583 64.868 59.333 C 66.216 60.296,67.321 61.158,67.324 61.250 C 67.327 61.342,66.927 62.673,66.434 64.208 C 65.942 65.744,65.579 67.000,65.627 67.000 C 65.675 67.000,66.758 66.206,68.034 65.236 C 69.309 64.266,70.442 63.508,70.552 63.553 C 70.661 63.597,71.756 64.391,72.986 65.317 C 74.216 66.242,75.247 66.975,75.277 66.945 C 75.306 66.916,74.956 65.701,74.499 64.246 C 73.439 60.875,73.339 61.280,75.625 59.660 C 76.702 58.897,77.793 58.100,78.050 57.890 L 78.517 57.508 75.467 57.462 L 72.417 57.417 71.554 54.833 C 71.080 53.413,70.686 52.119,70.679 51.958 C 70.646 51.177,70.288 51.901,69.515 54.318 M103.492 51.708 C 103.487 51.731,103.087 52.987,102.603 54.500 L 101.721 57.250 98.570 57.333 L 95.418 57.417 97.834 59.153 C 99.163 60.108,100.313 60.943,100.391 61.010 C 100.468 61.077,100.139 62.379,99.660 63.905 C 99.182 65.430,98.831 66.720,98.881 66.770 C 98.932 66.821,99.970 66.106,101.189 65.181 C 103.864 63.151,103.330 63.145,106.105 65.239 C 107.373 66.196,108.431 66.958,108.456 66.932 C 108.496 66.893,107.932 65.045,106.920 61.890 C 106.651 61.053,106.536 61.180,109.452 59.105 C 110.571 58.308,111.532 57.584,111.587 57.495 C 111.650 57.393,110.550 57.333,108.604 57.333 L 105.523 57.333 104.678 54.702 C 104.213 53.255,103.833 51.980,103.833 51.869 C 103.833 51.706,103.521 51.559,103.492 51.708 M336.167 60.500 L 336.167 69.333 338.958 69.332 C 342.358 69.331,343.593 69.151,344.989 68.453 C 350.739 65.579,351.039 56.036,345.483 52.780 C 344.063 51.948,342.460 51.667,339.140 51.667 L 336.167 51.667 336.167 60.500 M286.856 55.167 C 286.287 56.463,284.379 61.770,284.444 61.875 C 284.552 62.053,289.628 62.031,289.739 61.852 C 289.789 61.770,289.261 60.289,288.564 58.560 C 287.868 56.831,287.240 55.267,287.168 55.083 C 287.045 54.766,287.029 54.770,286.856 55.167 M163.921 55.208 C 163.883 55.323,163.325 56.833,162.680 58.565 C 162.036 60.296,161.549 61.777,161.598 61.856 C 161.706 62.032,166.783 62.050,166.889 61.875 C 166.991 61.706,164.294 55.000,164.124 55.000 C 164.050 55.000,163.959 55.094,163.921 55.208 M76.810 69.085 C 76.202 69.206,75.489 69.414,75.227 69.547 C 72.868 70.739,68.761 71.308,66.292 70.784 L 65.667 70.652 65.667 80.002 L 65.667 89.352 66.390 89.672 C 68.594 90.647,70.755 90.453,73.825 89.006 C 78.053 87.014,82.232 87.246,85.754 89.670 L 86.500 90.183 86.495 80.716 L 86.491 71.250 85.620 70.726 C 82.832 69.047,79.818 68.486,76.810 69.085 M92.568 69.070 C 91.325 69.354,89.355 70.167,88.292 70.836 L 87.500 71.334 87.500 80.750 C 87.500 85.929,87.549 90.167,87.609 90.167 C 87.669 90.167,87.951 89.990,88.234 89.773 C 91.430 87.336,96.038 87.004,100.096 88.917 C 103.219 90.390,105.240 90.646,107.250 89.824 L 108.250 89.415 108.293 80.033 L 108.336 70.651 107.710 70.784 C 107.365 70.857,106.071 70.912,104.833 70.906 C 102.405 70.895,102.746 70.974,98.333 69.404 C 96.794 68.857,94.168 68.704,92.568 69.070 M64.205 71.440 L 63.827 71.750 63.872 81.083 L 63.917 90.415 64.750 90.866 C 67.746 92.487,70.712 92.494,73.905 90.887 C 78.261 88.694,82.530 89.037,85.545 91.821 L 86.524 92.724 86.470 92.076 C 86.407 91.314,85.503 90.530,83.686 89.661 C 80.612 88.192,77.619 88.299,73.988 90.009 C 70.619 91.596,68.540 91.700,65.710 90.424 L 64.669 89.956 64.626 80.542 L 64.583 71.129 64.205 71.440 M109.333 80.642 L 109.333 89.951 108.146 90.498 C 105.617 91.664,103.479 91.546,100.263 90.063 C 96.448 88.305,93.546 88.188,90.372 89.666 C 88.678 90.454,87.500 91.464,87.500 92.127 L 87.500 92.675 88.581 91.758 C 90.975 89.727,93.567 89.098,96.792 89.764 C 98.083 90.031,98.566 90.199,100.833 91.172 C 103.203 92.190,106.471 92.016,109.375 90.717 L 110.333 90.288 110.333 81.011 C 110.333 71.338,110.333 71.333,109.633 71.333 C 109.348 71.333,109.333 71.789,109.333 80.642 M58.586 72.565 C 57.682 73.470,59.024 74.633,59.977 73.771 C 60.163 73.602,60.570 73.500,61.055 73.500 L 61.833 73.500 61.833 74.583 L 61.833 75.667 61.097 75.667 C 60.692 75.667,60.144 75.542,59.879 75.390 C 59.276 75.045,58.540 75.200,58.346 75.713 C 58.039 76.525,59.000 77.257,59.737 76.774 C 59.985 76.611,60.497 76.500,60.994 76.500 L 61.833 76.500 61.833 77.500 L 61.833 78.500 60.994 78.500 C 60.509 78.500,59.985 78.389,59.752 78.236 C 59.262 77.915,58.753 78.047,58.400 78.585 C 57.856 79.416,58.925 80.157,59.879 79.610 C 60.144 79.458,60.692 79.333,61.097 79.333 L 61.833 79.333 61.833 80.417 L 61.833 81.500 61.042 81.495 C 60.606 81.492,60.104 81.379,59.926 81.245 C 59.045 80.578,57.830 81.378,58.401 82.250 C 58.686 82.685,59.699 82.852,59.917 82.500 C 59.973 82.408,60.428 82.333,60.927 82.333 L 61.833 82.333 61.833 83.333 L 61.833 84.333 60.937 84.333 C 60.344 84.333,59.971 84.249,59.833 84.083 C 59.396 83.556,58.167 84.048,58.167 84.750 C 58.167 85.452,59.396 85.944,59.833 85.417 C 59.971 85.251,60.344 85.167,60.937 85.167 L 61.833 85.167 61.833 86.250 L 61.833 87.333 61.042 87.328 C 60.606 87.325,60.104 87.213,59.926 87.078 C 59.416 86.692,58.716 86.770,58.402 87.249 C 57.828 88.125,58.800 88.916,59.757 88.351 C 60.122 88.136,60.639 88.000,61.093 88.000 L 61.833 88.000 61.833 89.083 L 61.833 90.167 60.994 90.167 C 60.503 90.167,59.985 90.055,59.745 89.898 C 59.221 89.555,58.548 89.712,58.311 90.234 C 57.924 91.082,58.926 91.805,59.745 91.268 C 60.432 90.819,61.521 90.920,62.254 91.503 C 64.234 93.077,66.581 93.834,69.477 93.832 C 71.887 93.831,72.221 93.742,74.993 92.365 L 77.236 91.250 79.160 91.256 C 80.869 91.262,81.204 91.313,82.167 91.716 C 83.439 92.249,84.382 92.967,84.009 93.118 C 83.078 93.497,82.706 94.706,83.329 95.329 C 83.819 95.819,84.174 95.860,87.404 95.803 L 90.363 95.750 90.765 95.282 C 91.366 94.583,90.900 93.167,90.069 93.167 C 89.192 93.167,90.946 92.029,92.643 91.498 C 94.825 90.815,97.264 91.193,99.487 92.559 C 102.867 94.638,108.298 94.210,111.723 91.595 C 112.623 90.908,113.801 90.768,114.367 91.280 C 114.983 91.838,115.984 91.124,115.772 90.278 C 115.625 89.694,114.941 89.515,114.288 89.890 C 114.017 90.046,113.445 90.167,112.979 90.167 L 112.151 90.167 112.200 89.125 L 112.250 88.083 113.036 88.033 C 113.635 87.994,113.939 88.068,114.310 88.342 C 115.194 88.996,116.351 87.907,115.658 87.073 C 115.394 86.755,114.430 86.766,114.160 87.091 C 114.007 87.276,113.707 87.335,113.098 87.299 L 112.250 87.250 112.200 86.208 L 112.151 85.167 113.034 85.172 C 113.544 85.175,114.053 85.280,114.240 85.422 C 114.680 85.754,115.225 85.730,115.558 85.362 C 116.348 84.488,115.190 83.359,114.240 84.078 C 114.054 84.219,113.545 84.325,113.042 84.328 L 112.167 84.333 112.167 83.333 L 112.167 82.333 113.157 82.333 C 113.701 82.333,114.193 82.408,114.250 82.500 C 114.581 83.035,115.833 82.557,115.833 81.895 C 115.833 81.120,114.654 80.663,114.167 81.250 C 114.029 81.416,113.656 81.500,113.063 81.500 L 112.167 81.500 112.167 80.417 L 112.167 79.333 113.042 79.339 C 113.545 79.342,114.054 79.448,114.240 79.589 C 114.662 79.908,115.243 79.900,115.571 79.571 C 116.321 78.822,115.393 77.685,114.466 78.217 C 114.169 78.388,113.614 78.500,113.070 78.500 L 112.167 78.500 112.167 77.500 L 112.167 76.500 113.016 76.500 C 113.523 76.500,114.063 76.617,114.355 76.789 C 115.286 77.339,116.282 76.272,115.571 75.486 C 115.221 75.099,114.703 75.077,114.204 75.426 C 113.962 75.595,113.560 75.667,113.042 75.634 L 112.250 75.583 112.250 74.583 L 112.250 73.583 113.098 73.534 C 113.707 73.498,114.007 73.557,114.160 73.742 C 114.485 74.133,115.448 74.075,115.675 73.651 C 116.186 72.697,115.211 71.906,114.254 72.497 C 113.569 72.921,112.832 72.924,112.014 72.507 C 111.662 72.328,111.328 72.228,111.271 72.285 C 111.213 72.342,111.167 76.577,111.167 81.696 L 111.167 91.004 110.125 91.481 C 106.480 93.149,102.960 93.237,99.648 91.742 C 95.297 89.777,91.655 90.147,89.001 92.823 L 87.917 93.917 88.800 93.967 C 89.783 94.024,90.123 94.376,89.579 94.774 C 89.114 95.114,84.786 95.095,84.502 94.752 C 84.129 94.303,84.428 94.000,85.245 94.000 C 86.211 94.000,86.196 93.841,85.125 92.770 C 82.492 90.139,78.082 89.640,74.744 91.595 C 71.527 93.481,67.915 93.553,64.417 91.802 C 62.660 90.923,62.833 92.054,62.833 81.474 C 62.833 76.355,62.793 72.167,62.743 72.167 C 62.694 72.167,62.359 72.317,62.000 72.500 C 61.240 72.888,60.389 72.932,60.013 72.603 C 59.478 72.134,59.029 72.123,58.586 72.565 M154.620 80.875 C 154.894 81.540,155.861 83.933,156.768 86.195 C 157.674 88.456,158.454 90.268,158.499 90.223 C 158.545 90.177,159.523 87.802,160.672 84.945 L 162.762 79.750 163.771 79.701 C 165.089 79.637,164.816 79.238,166.661 83.917 C 167.597 86.290,169.158 90.047,169.244 90.133 C 169.384 90.272,169.407 90.222,170.398 87.708 C 173.995 78.576,173.402 79.667,174.774 79.667 C 175.742 79.667,175.862 79.701,175.786 79.958 C 175.739 80.119,174.940 82.125,174.010 84.417 C 173.080 86.708,171.704 90.138,170.952 92.038 C 169.104 96.704,169.491 96.934,166.469 89.378 C 165.123 86.012,163.956 83.235,163.876 83.209 C 163.797 83.182,163.381 84.043,162.953 85.122 C 162.525 86.201,161.605 88.471,160.909 90.167 C 160.213 91.862,159.451 93.760,159.216 94.384 C 158.519 96.231,158.388 96.091,156.576 91.583 C 155.728 89.475,154.323 85.987,153.454 83.833 C 151.657 79.383,151.684 79.667,153.070 79.667 L 154.120 79.667 154.620 80.875 M248.750 80.750 L 248.750 81.750 246.044 81.796 L 243.337 81.842 243.294 88.629 L 243.250 95.417 242.127 95.466 L 241.004 95.515 240.960 88.716 L 240.917 81.917 238.292 81.871 L 235.667 81.825 235.667 80.744 L 235.667 79.663 242.208 79.706 L 248.750 79.750 248.750 80.750 M327.032 80.074 C 329.489 80.966,330.587 83.706,329.434 86.064 C 329.038 86.873,328.831 87.076,327.519 87.947 C 327.484 87.971,327.867 88.435,328.371 88.979 C 328.875 89.524,329.797 90.782,330.420 91.776 C 331.044 92.770,331.842 93.974,332.193 94.451 C 333.012 95.562,333.053 95.500,331.504 95.500 L 330.175 95.500 329.203 94.042 C 328.669 93.240,328.027 92.229,327.778 91.797 C 326.605 89.759,325.159 88.670,323.625 88.668 L 323.000 88.667 323.000 92.091 L 323.000 95.515 321.875 95.466 L 320.750 95.417 320.707 87.750 C 320.683 83.533,320.702 79.981,320.750 79.855 C 320.883 79.509,325.964 79.686,327.032 80.074 M187.708 81.192 C 187.869 81.382,188.000 81.754,188.000 82.018 C 188.000 83.116,186.531 83.599,185.845 82.728 C 184.865 81.481,186.684 79.982,187.708 81.192 M323.000 84.060 L 323.000 86.500 324.392 86.500 C 328.695 86.500,328.641 82.006,324.335 81.711 L 323.000 81.619 323.000 84.060 M299.633 85.036 L 301.250 85.083 301.300 86.036 L 301.350 86.988 299.716 87.036 L 298.083 87.083 298.033 89.583 C 297.945 93.886,298.281 94.246,301.458 93.246 C 302.193 93.014,302.005 94.945,301.262 95.256 C 299.794 95.869,297.971 95.708,296.985 94.878 C 296.084 94.120,295.958 93.581,295.869 90.125 L 295.790 87.000 294.978 87.000 C 293.904 87.000,293.886 87.037,296.042 84.874 L 297.917 82.992 297.966 83.990 L 298.016 84.988 299.633 85.036 M179.906 85.015 C 181.964 85.533,182.358 86.397,182.463 90.624 C 182.554 94.265,182.567 94.313,183.331 93.918 C 183.773 93.690,183.852 93.687,183.933 93.899 C 184.454 95.256,181.518 96.335,180.608 95.121 L 180.300 94.709 179.544 95.131 C 177.541 96.251,175.261 95.326,175.056 93.311 C 174.901 91.790,175.890 90.802,178.522 89.846 L 180.250 89.219 180.238 88.418 C 180.212 86.663,178.138 86.318,176.255 87.755 C 175.243 88.527,175.167 88.498,175.167 87.333 C 175.167 85.464,177.383 84.379,179.906 85.015 M206.818 85.453 C 208.180 86.285,208.333 86.816,208.333 90.692 C 208.333 94.211,208.364 94.332,209.153 93.923 C 209.827 93.575,209.833 93.578,209.833 94.313 C 209.833 95.601,206.701 96.186,206.297 94.973 C 206.250 94.833,205.984 94.892,205.407 95.172 C 203.179 96.253,201.000 95.238,201.000 93.120 C 201.000 91.525,201.797 90.758,204.410 89.838 L 206.083 89.249 206.134 88.561 C 206.272 86.671,204.078 86.279,202.042 87.829 L 201.167 88.495 201.167 87.339 C 201.167 85.107,204.457 84.009,206.818 85.453 M226.906 85.015 C 228.953 85.530,229.367 86.421,229.455 90.500 C 229.539 94.440,229.492 94.244,230.267 93.920 C 231.060 93.589,231.028 93.572,230.968 94.292 C 230.868 95.506,228.587 96.109,227.601 95.183 L 227.222 94.827 226.479 95.156 C 223.863 96.314,221.618 95.005,222.072 92.586 C 222.303 91.353,223.253 90.623,225.750 89.758 C 227.409 89.184,227.532 89.022,227.160 87.898 C 226.687 86.465,224.159 86.609,222.766 88.149 C 222.267 88.700,222.167 88.577,222.167 87.417 C 222.167 85.472,224.343 84.369,226.906 85.015 M252.422 85.295 C 254.012 86.110,254.167 86.578,254.167 90.574 C 254.167 94.139,254.223 94.349,255.069 93.910 C 255.690 93.588,255.667 93.571,255.667 94.339 C 255.667 95.554,253.285 96.137,252.417 95.135 L 252.083 94.750 251.354 95.118 C 249.150 96.230,247.070 95.404,246.872 93.340 C 246.720 91.760,247.740 90.731,250.363 89.818 C 252.284 89.149,252.432 88.957,251.939 87.778 C 251.459 86.630,249.546 86.557,248.193 87.635 C 246.908 88.658,247.000 88.677,247.000 87.379 C 247.000 86.110,247.089 85.959,248.167 85.409 C 249.462 84.747,251.259 84.699,252.422 85.295 M274.580 85.019 C 274.960 85.125,275.526 85.487,275.908 85.869 C 276.333 86.294,276.642 86.483,276.762 86.392 C 278.766 84.874,279.871 84.548,281.241 85.071 C 283.119 85.788,283.500 86.935,283.500 91.872 L 283.500 95.516 282.458 95.466 L 281.417 95.417 281.333 91.636 L 281.250 87.854 280.775 87.359 C 279.917 86.465,278.579 86.535,277.552 87.530 L 277.000 88.065 277.000 91.783 L 277.000 95.500 276.000 95.500 L 275.000 95.500 274.995 92.708 C 274.988 89.147,274.817 87.765,274.321 87.237 C 273.527 86.392,271.917 86.564,271.015 87.591 L 270.500 88.178 270.500 91.847 L 270.500 95.516 269.458 95.466 L 268.417 95.417 268.370 90.583 C 268.312 84.623,268.244 84.970,269.462 85.034 C 270.264 85.076,270.422 85.136,270.466 85.417 C 270.584 86.157,270.643 86.172,271.417 85.649 C 272.615 84.840,273.384 84.687,274.580 85.019 M291.248 85.407 C 292.629 86.216,292.742 86.587,292.803 90.500 C 292.861 94.218,292.886 94.321,293.639 93.931 C 294.324 93.577,294.333 93.581,294.333 94.252 C 294.333 95.511,291.976 96.142,290.983 95.150 L 290.642 94.808 289.863 95.180 C 287.670 96.225,285.432 95.228,285.439 93.209 C 285.444 91.584,286.289 90.761,288.885 89.847 L 290.583 89.249 290.634 88.561 C 290.778 86.582,288.246 86.270,286.252 88.020 L 285.667 88.535 285.667 87.359 C 285.667 85.144,288.881 84.019,291.248 85.407 M307.951 85.084 C 309.898 85.662,310.331 86.730,310.332 90.948 C 310.333 94.206,310.368 94.330,311.165 93.918 C 311.606 93.690,311.685 93.687,311.766 93.899 C 312.275 95.224,309.403 96.324,308.464 95.163 L 308.164 94.793 307.290 95.178 C 305.027 96.175,302.955 95.241,302.932 93.213 C 302.914 91.612,303.780 90.764,306.364 89.855 L 308.083 89.250 308.135 88.632 C 308.306 86.564,305.321 86.246,303.599 88.149 C 303.101 88.700,303.000 88.577,303.000 87.423 C 303.000 85.402,305.324 84.304,307.951 85.084 M339.310 85.453 C 340.655 86.284,340.742 86.578,340.804 90.498 C 340.863 94.162,340.902 94.312,341.690 93.904 C 342.323 93.577,342.333 93.584,342.333 94.313 C 342.333 95.584,339.202 96.190,338.804 94.996 C 338.766 94.882,338.472 94.938,337.997 95.148 C 335.625 96.196,333.481 95.282,333.450 93.208 C 333.425 91.601,334.288 90.761,336.910 89.838 L 338.583 89.249 338.633 88.574 C 338.773 86.669,336.591 86.282,334.525 87.846 L 333.667 88.495 333.667 87.339 C 333.667 85.109,336.969 84.005,339.310 85.453 M187.794 90.300 L 187.838 95.516 186.794 95.466 L 185.750 95.417 185.706 90.418 C 185.654 84.529,185.565 84.969,186.790 85.033 L 187.750 85.083 187.794 90.300 M195.357 85.240 C 198.181 85.839,199.560 87.483,199.558 90.250 C 199.557 94.018,196.725 96.250,192.958 95.451 L 192.333 95.318 192.333 97.992 L 192.333 100.667 191.250 100.667 L 190.167 100.667 190.167 92.944 C 190.167 88.697,190.217 85.172,190.278 85.111 C 190.482 84.907,194.235 85.003,195.357 85.240 M217.284 85.455 C 219.457 86.167,220.522 87.613,220.633 90.000 C 220.814 93.913,217.845 96.333,213.958 95.440 L 213.333 95.296 213.333 97.981 L 213.333 100.667 212.250 100.667 L 211.167 100.667 211.167 92.944 C 211.167 88.697,211.223 85.165,211.292 85.095 C 211.560 84.822,216.206 85.101,217.284 85.455 M259.528 88.708 C 259.600 93.441,259.762 93.833,261.643 93.833 C 262.326 93.833,262.602 93.736,263.195 93.283 L 263.917 92.734 264.000 88.908 L 264.083 85.083 265.083 85.083 L 266.083 85.083 266.127 90.300 L 266.171 95.516 265.127 95.466 C 264.127 95.419,264.081 95.398,264.031 94.958 C 263.977 94.493,263.772 94.361,263.582 94.669 C 263.175 95.327,261.122 95.801,259.988 95.499 C 257.836 94.926,257.456 94.014,257.366 89.206 C 257.287 84.929,257.266 85.000,258.590 85.000 L 259.472 85.000 259.528 88.708 M346.167 88.833 C 346.254 92.747,346.312 93.066,347.038 93.575 C 347.798 94.107,349.658 93.729,350.344 92.904 C 350.530 92.680,350.602 91.781,350.667 88.850 L 350.750 85.083 351.750 85.083 L 352.750 85.083 352.750 90.250 L 352.750 95.417 351.708 95.466 L 350.667 95.516 350.667 95.008 C 350.667 94.394,350.655 94.393,349.859 94.919 C 347.913 96.207,345.469 95.688,344.455 93.771 C 344.118 93.134,344.087 92.802,344.030 89.287 C 343.956 84.725,343.893 84.969,345.123 85.033 L 346.083 85.083 346.167 88.833 M192.333 90.151 L 192.333 93.350 192.953 93.609 C 195.207 94.551,197.657 92.602,197.434 90.045 C 197.262 88.067,196.283 87.250,193.868 87.068 L 192.333 86.952 192.333 90.151 M213.333 90.147 L 213.333 93.342 213.792 93.526 C 216.222 94.506,218.500 92.940,218.500 90.291 C 218.500 88.211,217.432 87.262,214.872 87.068 L 213.333 86.952 213.333 90.147 M178.903 90.985 C 176.867 91.927,176.506 93.661,178.255 94.099 C 179.652 94.450,180.333 93.755,180.333 91.981 C 180.333 90.279,180.370 90.305,178.903 90.985 M204.917 90.929 C 203.601 91.474,203.100 91.981,203.100 92.767 C 203.100 94.011,204.548 94.553,205.756 93.761 C 206.163 93.495,206.427 90.485,206.042 90.507 C 205.973 90.511,205.467 90.701,204.917 90.929 M226.034 90.901 C 224.186 91.679,223.623 92.805,224.596 93.778 C 225.798 94.980,227.333 93.920,227.333 91.888 C 227.333 90.318,227.363 90.341,226.034 90.901 M250.867 90.876 C 249.085 91.559,248.455 92.804,249.409 93.758 C 250.598 94.947,252.064 93.975,252.131 91.952 C 252.186 90.312,252.233 90.352,250.867 90.876 M289.417 90.916 C 287.591 91.661,287.046 92.738,288.008 93.700 C 288.577 94.270,289.445 94.293,290.256 93.761 C 290.663 93.495,290.926 90.492,290.542 90.504 C 290.473 90.506,289.967 90.692,289.417 90.916 M306.563 91.083 C 304.500 92.087,304.421 94.087,306.445 94.081 C 307.890 94.076,308.167 93.740,308.167 91.981 C 308.167 90.252,308.215 90.279,306.563 91.083 M337.417 90.924 C 335.586 91.674,335.046 92.738,336.008 93.700 C 336.577 94.270,337.445 94.293,338.256 93.761 C 338.663 93.495,338.927 90.485,338.542 90.507 C 338.473 90.511,337.967 90.698,337.417 90.924 M86.840 99.866 C 86.751 100.077,86.330 101.356,85.903 102.708 L 85.128 105.167 82.064 105.167 C 80.379 105.167,79.004 105.223,79.008 105.292 C 79.013 105.360,80.068 106.164,81.352 107.078 C 82.636 107.992,83.746 108.817,83.818 108.912 C 83.891 109.006,83.547 110.350,83.055 111.899 C 82.562 113.448,82.180 114.736,82.206 114.762 C 82.232 114.787,83.327 113.990,84.641 112.991 L 87.029 111.173 89.431 112.994 C 90.752 113.996,91.833 114.718,91.833 114.599 C 91.833 114.480,91.458 113.205,91.000 111.766 C 90.542 110.328,90.167 109.088,90.167 109.013 C 90.167 108.937,90.710 108.491,91.375 108.022 C 93.961 106.198,94.919 105.481,94.971 105.330 C 95.003 105.238,93.782 105.156,91.983 105.129 L 88.940 105.083 88.148 102.667 C 87.713 101.337,87.351 100.123,87.345 99.968 C 87.326 99.512,87.015 99.449,86.840 99.866 M353.500 105.917 L 353.500 106.500 253.127 106.458 C 156.450 106.418,152.752 106.406,152.697 106.115 C 152.665 105.949,152.680 105.706,152.731 105.574 C 152.811 105.365,165.932 105.333,253.161 105.333 L 353.500 105.333 353.500 105.917 M157.750 114.752 C 159.400 116.714,160.806 118.323,160.875 118.327 C 160.944 118.330,161.000 116.721,161.000 114.750 L 161.000 111.167 162.000 111.167 L 163.000 111.167 163.000 116.508 L 163.000 121.850 162.045 121.800 L 161.089 121.750 158.086 118.183 L 155.083 114.616 155.038 118.225 L 154.993 121.833 153.913 121.833 L 152.833 121.833 152.833 116.500 L 152.833 111.167 153.792 111.175 L 154.750 111.184 157.750 114.752 M180.667 111.995 L 180.667 112.824 178.292 112.870 L 175.917 112.917 175.867 114.152 C 175.805 115.700,175.740 115.661,178.384 115.664 L 180.518 115.667 180.467 116.458 L 180.417 117.250 178.125 117.296 L 175.833 117.343 175.833 118.750 L 175.833 120.158 178.292 120.204 L 180.750 120.250 180.801 121.042 L 180.852 121.833 177.342 121.833 L 173.833 121.833 173.833 116.500 L 173.833 111.167 177.250 111.167 L 180.667 111.167 180.667 111.995 M193.443 114.329 C 194.127 116.023,194.718 117.441,194.758 117.480 C 194.835 117.557,194.933 117.339,196.501 113.625 L 197.539 111.167 198.445 111.167 L 199.352 111.167 199.659 111.875 C 199.828 112.265,200.435 113.693,201.009 115.049 C 201.582 116.405,202.111 117.455,202.183 117.382 C 202.256 117.310,202.577 116.575,202.896 115.750 C 203.216 114.925,203.621 113.912,203.797 113.500 C 203.973 113.087,204.247 112.394,204.406 111.958 L 204.694 111.167 205.764 111.167 C 207.105 111.167,207.397 110.017,203.796 118.917 C 202.214 122.827,202.082 122.888,200.974 120.217 C 199.037 115.546,198.573 114.510,198.434 114.553 C 198.351 114.579,197.572 116.269,196.701 118.309 C 194.784 122.800,194.688 122.871,193.726 120.500 C 193.410 119.721,192.939 118.558,192.678 117.917 C 191.469 114.938,190.000 111.257,190.000 111.207 C 190.000 111.176,190.495 111.174,191.100 111.201 L 192.199 111.250 193.443 114.329 M238.000 111.262 C 238.000 111.372,233.856 117.465,232.454 119.417 L 231.975 120.083 235.029 120.167 L 238.083 120.250 238.135 120.960 C 238.202 121.892,238.486 121.846,233.038 121.794 L 228.330 121.750 228.737 121.167 C 230.234 119.022,234.333 112.974,234.333 112.911 C 234.333 112.868,233.058 112.833,231.500 112.833 L 228.667 112.833 228.667 112.000 L 228.667 111.167 233.333 111.167 C 235.900 111.167,238.000 111.209,238.000 111.262 M255.000 112.000 L 255.000 112.833 252.577 112.833 L 250.153 112.833 250.202 114.208 L 250.250 115.583 252.551 115.630 L 254.851 115.676 254.801 116.463 L 254.750 117.250 252.458 117.296 L 250.167 117.343 250.167 118.750 L 250.167 120.158 252.625 120.204 L 255.083 120.250 255.083 121.000 L 255.083 121.750 251.542 121.795 L 248.000 121.840 248.000 116.503 L 248.000 111.167 251.500 111.167 L 255.000 111.167 255.000 112.000 M272.520 115.000 C 273.432 117.063,274.476 119.409,274.839 120.215 C 275.203 121.021,275.500 121.719,275.500 121.765 C 275.500 121.986,273.277 121.735,273.152 121.500 C 273.080 121.362,272.832 120.819,272.603 120.292 L 272.185 119.333 269.868 119.333 L 267.551 119.333 267.282 119.958 C 267.134 120.302,266.902 120.865,266.765 121.208 L 266.517 121.833 265.425 121.833 C 264.825 121.833,264.333 121.794,264.333 121.745 C 264.333 121.696,264.531 121.190,264.772 120.620 C 265.430 119.064,267.158 114.865,267.531 113.917 C 267.711 113.458,268.052 112.649,268.288 112.118 L 268.718 111.153 269.790 111.201 L 270.861 111.250 272.520 115.000 M287.333 115.662 L 287.333 120.158 289.875 120.204 L 292.417 120.250 292.467 121.042 L 292.518 121.833 288.842 121.833 L 285.167 121.833 285.167 116.500 L 285.167 111.167 286.250 111.167 L 287.333 111.167 287.333 115.662 M309.117 114.417 C 309.887 116.158,310.925 118.499,311.425 119.619 C 311.925 120.738,312.333 121.695,312.333 121.744 C 312.333 121.793,311.847 121.833,311.253 121.833 L 310.173 121.833 309.859 121.208 C 309.686 120.865,309.454 120.302,309.343 119.958 L 309.141 119.333 306.757 119.333 L 304.374 119.333 303.895 120.542 L 303.416 121.750 302.292 121.799 C 301.673 121.826,301.167 121.823,301.167 121.792 C 301.167 121.761,301.475 120.989,301.853 120.076 C 302.230 119.164,302.783 117.817,303.082 117.083 C 303.380 116.350,303.978 114.888,304.411 113.833 C 304.843 112.779,305.265 111.744,305.347 111.534 C 305.486 111.181,305.582 111.155,306.608 111.201 L 307.718 111.250 309.117 114.417 M327.000 114.813 L 330.083 118.438 330.128 114.802 L 330.173 111.167 331.170 111.167 L 332.167 111.167 332.167 116.508 L 332.167 121.850 331.212 121.800 L 330.257 121.750 327.325 118.260 C 325.712 116.340,324.304 114.740,324.196 114.704 C 324.050 114.655,324.000 115.552,324.000 118.236 L 324.000 121.833 323.000 121.833 L 322.000 121.833 322.000 116.500 L 322.000 111.167 322.958 111.177 L 323.917 111.188 327.000 114.813 M350.207 111.799 C 354.489 113.909,353.977 120.250,349.418 121.576 C 348.772 121.763,347.760 121.833,345.683 121.833 L 342.833 121.833 342.833 116.611 C 342.833 113.739,342.889 111.333,342.957 111.265 C 343.025 111.197,344.433 111.166,346.087 111.196 L 349.092 111.250 350.207 111.799 M345.125 112.926 C 345.056 112.997,345.000 114.662,345.000 116.626 L 345.000 120.196 346.820 120.140 C 348.534 120.087,348.681 120.054,349.361 119.576 C 351.510 118.066,351.437 114.690,349.228 113.395 C 348.450 112.939,345.445 112.596,345.125 112.926 M269.039 115.496 C 268.135 117.836,268.073 117.667,269.833 117.667 C 270.695 117.667,271.333 117.598,271.333 117.504 C 271.333 117.293,270.405 114.958,270.033 114.232 L 269.744 113.670 269.039 115.496 M305.855 115.567 C 304.970 117.824,304.909 117.667,306.667 117.667 C 307.756 117.667,308.167 117.610,308.166 117.458 C 308.166 117.210,306.863 114.143,306.675 113.947 C 306.603 113.872,306.234 114.601,305.855 115.567 " stroke="none" fill="#fcfcfc" fill-rule="evenodd"></path></g></svg>