<?xml version="1.0" encoding="UTF-8"?>
<svg id="UoA-Logo-Primary-RGB-Reversed" xmlns="http://www.w3.org/2000/svg" version="1.1" viewBox="0 0 822 323.4">
  <!-- Generator: Adobe Illustrator 29.3.0, SVG Export Plug-In . SVG Version: 2.1.0 Build 146)  -->
  <defs>
    <style>
      .st0 {
        fill: #fff;
      }
    </style>
  </defs>
  <path class="st0" d="M369.4,237.2c-5.4,0-10-.9-13.7-2.8-3.7-1.9-6.5-4.6-8.4-8.2s-2.8-7.7-2.8-12.6v-39.9h11.5v39.2c0,4.8,1.1,8.4,3.4,10.8,2.2,2.4,5.6,3.6,10.1,3.6s7.8-1.2,10.1-3.6c2.2-2.4,3.4-6,3.4-10.8v-39.2h11.5v39.9c0,4.9-.9,9.1-2.8,12.6-1.9,3.5-4.7,6.2-8.4,8.1-3.7,1.9-8.3,2.8-13.7,2.8h0ZM404.7,236.1v-45.9h10.9v6.8h.3c1.3-2.5,3.1-4.4,5.5-5.7,2.4-1.4,5.2-2,8.4-2s6.3.7,8.8,2.1c2.4,1.4,4.3,3.5,5.5,6.2s1.9,6,1.9,9.9v28.7h-10.9v-27.1c0-3.3-.8-5.8-2.4-7.6-1.6-1.8-3.8-2.7-6.7-2.7s-4,.5-5.6,1.4c-1.6,1-2.8,2.3-3.6,4-.9,1.7-1.3,3.6-1.3,5.6v26.4h-10.9,0ZM460.9,184.3c-1.2,0-2.3-.3-3.3-.8-1-.5-1.7-1.3-2.3-2.3s-.8-2.1-.8-3.3.3-2.3.8-3.3c.5-1,1.3-1.7,2.3-2.3,1-.6,2.1-.8,3.3-.8s2.4.3,3.3.8,1.7,1.3,2.3,2.3c.6,1,.8,2.1.8,3.3s-.3,2.3-.8,3.3c-.6,1-1.3,1.7-2.3,2.3-1,.5-2.1.8-3.3.8ZM455.5,236.1v-45.9h10.9v45.9h-10.9ZM490,236.1l-17.7-45.9h11.2l8.8,25.8c.5,1.6,1.1,3.3,1.6,4.9.5,1.6.9,3.1,1.2,4.4h.2c.3-1.3.8-2.8,1.2-4.4s1-3.2,1.5-4.9l8.7-25.8h11.2l-17.4,45.9h-10.4ZM542.7,237.1c-4.6,0-8.6-1-11.9-3-3.4-2-6-4.8-7.8-8.4-1.8-3.6-2.7-7.8-2.7-12.5s.9-9,2.8-12.7c1.9-3.6,4.5-6.4,7.9-8.4,3.4-2,7.3-3,11.8-3s8.1,1,11.3,2.9c3.2,1.9,5.7,4.6,7.4,8,1.7,3.4,2.6,7.4,2.6,11.9s0,1.3,0,2.1c0,.8-.1,1.5-.2,2.2h-32.8c.3,2.7,1,4.9,2,6.7,1.1,1.8,2.4,3.1,4.1,4s3.7,1.3,6,1.3,3.2-.3,4.6-.8c1.3-.5,2.5-1.3,3.4-2.2.9-1,1.5-2.1,1.9-3.5h10.6c-.5,3.1-1.8,5.8-3.6,8.1-1.9,2.3-4.3,4.1-7.2,5.3s-6.2,1.9-9.9,1.9h0ZM553.2,208.5c-.2-2.3-.7-4.3-1.6-6-.9-1.7-2.1-3-3.6-3.9-1.6-.9-3.4-1.3-5.5-1.3s-3.8.4-5.4,1.1c-1.6.8-2.9,2-4,3.6-1.1,1.7-1.8,3.8-2.2,6.4h22.3,0ZM572,236.1v-45.9h10.9v8.8h.2c1.2-3,2.9-5.3,5.2-6.8,2.2-1.5,4.9-2.3,8-2.3s2.1,0,2.6.2v10.2c-.3,0-.8-.2-1.2-.2s-.9,0-1.4,0c-2.7,0-5,.5-7,1.6-2,1.1-3.6,2.6-4.7,4.7-1.1,2-1.7,4.3-1.7,7v22.8h-10.9ZM623.1,237.2c-6.2,0-11.1-1.4-14.6-4.1-3.5-2.8-5.4-6.7-5.7-11.8h10.7c.1,2.4,1,4.2,2.6,5.6,1.6,1.4,3.9,2,6.9,2s4.7-.5,6.2-1.4c1.4-1,2.1-2.2,2.1-3.7s-.3-2.3-1-3c-.6-.7-1.7-1.4-3.1-1.9-1.5-.5-3.5-1-6.3-1.6-4.1-.8-7.3-1.7-9.6-2.7-2.3-1.1-4.1-2.4-5.2-4.1-1.1-1.7-1.7-3.8-1.7-6.5s.7-5.4,2.1-7.6c1.4-2.2,3.5-3.9,6.3-5.2,2.8-1.2,6.2-1.9,10.1-1.9s7.1.6,9.9,1.7,4.9,2.8,6.5,5c1.5,2.2,2.4,4.9,2.6,8h-10.5c-.2-2-1-3.6-2.4-4.7-1.4-1.1-3.4-1.7-6.1-1.7s-3,.2-4.2.6c-1.2.4-2.1,1-2.7,1.7-.6.8-.9,1.6-.9,2.7s.3,2.1.9,2.7c.6.7,1.6,1.2,3,1.7,1.4.5,3.4.9,6.1,1.4,4.2.8,7.5,1.7,10,2.7,2.4,1.1,4.2,2.4,5.4,4.2,1.2,1.7,1.8,4,1.8,6.7s-.7,5.8-2.2,8-3.7,4-6.6,5.3c-2.9,1.3-6.4,1.9-10.6,1.9h0ZM656,184.3c-1.2,0-2.3-.3-3.3-.8-1-.5-1.7-1.3-2.3-2.3-.5-1-.8-2.1-.8-3.3s.3-2.3.8-3.3c.5-1,1.3-1.7,2.3-2.3,1-.6,2.1-.8,3.3-.8s2.4.3,3.3.8,1.7,1.3,2.3,2.3c.6,1,.8,2.1.8,3.3s-.3,2.3-.8,3.3c-.6,1-1.3,1.7-2.3,2.3-1,.5-2.1.8-3.3.8ZM650.6,236.1v-45.9h10.9v45.9h-10.9ZM689.9,236.8c-3.5,0-6.4-.6-8.5-1.8s-3.6-2.8-4.5-4.8c-.9-2-1.3-4.4-1.3-7.1v-24h-7.7v-8.8h7.7v-12h10.9v12h10.2v8.8h-10.2v23.5c0,1.6.5,2.9,1.5,3.8,1,.9,2.6,1.3,4.8,1.3s2.5-.1,3.9-.3v8.5c-2.2.7-4.4,1-6.7,1h0ZM704.4,253v-8.8h4c2.2,0,3.9-.4,5.2-1.1,1.3-.7,2.2-2,3-3.7l1.3-3-17.7-46.1h11.2l8.8,25.8c.9,2.8,1.8,5.9,2.8,9.3h.3c.9-3.4,1.7-6.5,2.6-9.3l8.7-25.8h11.2l-19.6,51.8c-1.4,3.7-3.5,6.4-6.2,8.2-2.8,1.8-6.5,2.7-11.3,2.7h-4ZM365.2,323.4c-4.4,0-8.3-1-11.8-2.9-3.5-2-6.2-4.8-8.2-8.4-2-3.6-3-7.8-3-12.6s1-8.9,2.9-12.6c1.9-3.6,4.7-6.5,8.2-8.5,3.5-2,7.5-3,12-3s8.5,1,12,3c3.5,2,6.2,4.8,8.1,8.4,1.9,3.6,2.9,7.8,2.9,12.6s-1,9-2.9,12.6c-2,3.6-4.7,6.4-8.2,8.4s-7.5,2.9-11.9,2.9h0ZM365.2,314.4c2.3,0,4.4-.6,6.2-1.8s3.2-2.9,4.3-5.1c1-2.2,1.6-4.9,1.6-8s-.5-5.8-1.5-8.1c-1-2.3-2.4-4-4.3-5.2s-3.9-1.8-6.3-1.8-4.5.6-6.3,1.8c-1.8,1.2-3.2,2.9-4.3,5.2-1,2.3-1.5,4.9-1.5,8.1s.5,5.8,1.6,8c1,2.2,2.5,3.9,4.3,5.1,1.8,1.2,3.9,1.8,6.2,1.8h0ZM416,257.3c.8,0,1.7,0,2.7.2,1,.1,1.9.3,2.9.5h0v8.4c-1-.2-2.2-.3-3.4-.3-2.3,0-4,.5-5.1,1.6-1.1,1.1-1.6,2.5-1.6,4.4v4.4h10.1v8.8h-10.1v37.1h-10.9v-37.1h-8.4v-8.8h8.4v-4.5c0-2.9.5-5.4,1.6-7.6,1.1-2.2,2.8-3.9,5-5.2,2.3-1.3,5.1-1.9,8.6-1.9h0ZM446.1,322.4l22.6-62.4h14.2l22.6,62.4h-12.3l-4.9-14.5h-24.9l-5,14.5h-12.3ZM466.1,299h19.2l-7.1-20.8c-.8-2.5-1.6-5.1-2.3-7.9h-.3c-.7,2.8-1.5,5.4-2.3,7.9l-7.1,20.8h0ZM526,323.4c-3.4,0-6.3-.7-8.8-2.1-2.4-1.4-4.3-3.5-5.6-6.2-1.3-2.7-1.9-6-1.9-9.9v-28.7h10.9v27.2c0,3.3.8,5.8,2.4,7.6,1.6,1.8,3.8,2.7,6.7,2.7s4-.5,5.6-1.4c1.6-1,2.8-2.3,3.6-4s1.3-3.6,1.3-5.6v-26.5h10.9v45.9h-10.9v-6.8h-.3c-1.3,2.5-3.1,4.4-5.5,5.7s-5.2,2-8.4,2h0ZM582.2,323.4c-4.3,0-8.2-.9-11.7-2.7-3.5-1.8-6.2-4.5-8.2-8.1-2-3.6-3-7.9-3-13s1-9.4,2.9-13c2-3.6,4.7-6.4,8.1-8.3,3.4-1.9,7.4-2.9,11.8-2.9s7.6.8,10.7,2.4c3,1.6,5.4,3.8,7.2,6.6,1.7,2.8,2.8,5.9,3.3,9.4h-10.5c-.3-1.8-.9-3.4-1.8-4.9-.9-1.4-2-2.6-3.5-3.4-1.5-.9-3.2-1.3-5.3-1.3s-4.7.6-6.5,1.9c-1.8,1.2-3.2,3-4.2,5.3-1,2.3-1.5,5-1.5,8s.5,5.8,1.5,8.1c1,2.3,2.4,4,4.2,5.2,1.8,1.2,4,1.8,6.5,1.8s3.8-.4,5.2-1.2,2.6-1.9,3.5-3.3c.9-1.4,1.5-2.9,1.8-4.7h10.5c-.5,3.5-1.6,6.6-3.3,9.3-1.7,2.7-4.1,4.9-7.2,6.4s-6.6,2.4-10.6,2.4h0ZM611.2,322.4v-62.4h10.7v37.5l17.7-21h12.6l-18.8,21.7,20.3,24.2h-12.8l-18.9-22.6v22.6h-10.7,0ZM670.5,322.4h-10.9v-62.4h10.9v62.4ZM693.2,323.1c-3,0-5.6-.6-7.8-1.7-2.2-1.1-3.9-2.7-5-4.7-1.2-2-1.7-4.4-1.7-7.1,0-4,1.3-7.1,3.9-9.3,2.6-2.2,6.2-3.7,10.8-4.4l10.4-1.6c1-.1,1.8-.3,2.4-.6.6-.2,1-.6,1.3-1,.3-.4.4-1,.4-1.7,0-1.4-.3-2.6-1-3.6-.7-1.1-1.7-1.9-3-2.4-1.3-.6-2.9-.9-4.7-.9s-3.2.3-4.5.9c-1.3.6-2.3,1.4-3,2.4-.7,1.1-1.2,2.3-1.4,3.7h-10.5c.3-3.3,1.3-6.1,2.9-8.4s3.9-4.2,6.7-5.5c2.8-1.3,6.1-1.9,9.9-1.9s7.4.6,10.2,1.9c2.9,1.3,5.1,3.1,6.6,5.5,1.5,2.4,2.3,5.2,2.3,8.4v31.2h-10.5v-6.8h-.3c-1.4,2.5-3.3,4.3-5.7,5.6-2.4,1.3-5.3,2-8.6,2h0ZM696.4,314.7c2.4,0,4.4-.6,6.1-1.7,1.7-1.1,3-2.6,3.9-4.5.9-1.9,1.3-4,1.3-6.1v-1.9c-.4.3-1,.5-1.6.7s-1.4.4-2.4.5l-8.8,1.4c-1.7.3-3.1.9-4.1,1.8-1,.9-1.6,2.2-1.6,3.9s.3,2.2.8,3.1c.6.9,1.4,1.6,2.5,2.1,1.1.5,2.3.7,3.8.7h0ZM727.7,322.4v-45.9h10.9v6.8h.3c1.3-2.5,3.1-4.4,5.5-5.7,2.4-1.4,5.2-2,8.4-2s6.3.7,8.8,2.1c2.4,1.4,4.3,3.5,5.5,6.2,1.3,2.7,1.9,6,1.9,9.9v28.7h-10.9v-27.1c0-3.3-.8-5.8-2.4-7.6-1.6-1.8-3.8-2.7-6.7-2.7s-4,.5-5.6,1.4c-1.6,1-2.8,2.3-3.6,4-.9,1.7-1.3,3.6-1.3,5.6v26.5h-10.9,0ZM796,323.4c-3.7,0-7-.9-9.9-2.8-2.9-1.9-5.2-4.6-6.9-8.2-1.7-3.6-2.5-7.9-2.5-12.8s.8-9,2.4-12.6c1.6-3.6,3.9-6.5,6.8-8.4,2.9-2,6.3-3,10.2-3s4.2.3,6.1.9c1.9.6,3.6,1.5,5.1,2.7,1.5,1.2,2.7,2.5,3.7,4.2h.2v-23.2h10.9v62.4h-10.9v-6.7h-.2c-1,1.7-2.3,3.1-3.9,4.2s-3.3,2-5.2,2.6c-1.9.6-3.9.9-5.9.9h0ZM799.6,314c2.4,0,4.4-.6,6.2-1.8,1.8-1.2,3.1-2.9,4.1-5.1,1-2.2,1.5-4.7,1.5-7.7s-.5-5.5-1.4-7.7c-1-2.2-2.3-3.9-4.1-5.1-1.8-1.2-3.9-1.8-6.3-1.8s-4.4.6-6.2,1.8c-1.8,1.2-3.2,2.9-4.2,5-1,2.2-1.5,4.8-1.5,7.8s.5,5.6,1.5,7.7c1,2.2,2.4,3.9,4.2,5,1.8,1.2,3.9,1.8,6.2,1.8h0ZM360.3,62.4L342.5,0h5.5l13.9,49.2c.3,1,.5,1.9.7,2.8.2.9.4,1.8.6,2.5h.1c.2-.8.4-1.6.6-2.5.2-.9.5-1.9.8-2.8L378.9,0h4.7l14.2,49.2c.3,1,.5,1.9.7,2.8.2.9.4,1.7.6,2.4h.1c.2-.7.4-1.5.6-2.4.2-.9.4-1.8.7-2.8L414.5,0h5.5l-17.7,62.4h-5.5l-14.1-49.1c-.5-1.6-.9-3.3-1.3-5h-.2c-.4,1.7-.8,3.4-1.3,5.1l-14.2,49.1h-5.5,0ZM436.9,63.3c-2.9,0-5.4-.5-7.6-1.6-2.2-1.1-3.8-2.6-5-4.5-1.1-1.9-1.7-4.2-1.7-6.7,0-3.8,1.2-6.7,3.6-8.8,2.4-2.1,5.9-3.5,10.5-4.1l10.9-1.6c1.3-.1,2.4-.4,3.1-.7.7-.3,1.2-.8,1.6-1.4.3-.6.5-1.3.5-2.3,0-2.1-.5-4-1.5-5.5-1-1.5-2.4-2.7-4.1-3.5-1.8-.8-3.8-1.2-6.1-1.2s-4.3.4-6.1,1.2-3.1,2-4.1,3.5c-1,1.5-1.6,3.4-1.7,5.5h-5.3c.2-3.1,1-5.7,2.5-8,1.5-2.3,3.4-4,6-5.2s5.4-1.8,8.7-1.8,6.4.6,9,1.8c2.6,1.2,4.6,2.9,6,5.2,1.4,2.3,2.1,4.9,2.1,8v30.7h-5.4v-9.1h-.2c-1.3,3.1-3.3,5.6-5.9,7.4-2.6,1.8-5.9,2.7-9.8,2.7h0ZM438.1,58.7c3.2,0,5.9-.8,8.1-2.3,2.2-1.6,3.9-3.6,5-6.2,1.1-2.6,1.6-5.4,1.6-8.4v-3.3c-.5.4-1.2.8-2,1.1-.8.3-1.8.5-3.1.7l-10.3,1.4c-2.8.4-5.1,1.2-6.8,2.6-1.7,1.4-2.6,3.4-2.6,6s.4,3.2,1.2,4.5c.8,1.3,2,2.2,3.5,2.9,1.5.7,3.3,1,5.3,1h0ZM471.4,9.7c-.8,0-1.4-.2-2.1-.5-.6-.4-1.1-.9-1.5-1.5-.4-.6-.5-1.3-.5-2.1s.2-1.4.5-2.1c.4-.6.9-1.1,1.5-1.5.6-.3,1.3-.5,2.1-.5s1.5.2,2.1.5c.6.3,1.1.8,1.4,1.5.3.6.5,1.3.5,2.1s-.2,1.4-.5,2.1c-.3.6-.8,1.1-1.4,1.5-.6.4-1.3.5-2.1.5ZM468.7,62.4V17.7h5.5v44.7h-5.5ZM507.3,63.4c-2.3,0-4.6-.4-6.7-1.2s-4-2-5.6-3.6-3-3.4-3.9-5.6h-.2v26.2h-5.5V17.8h5.5v9.4h.2c1-2.1,2.2-3.9,3.8-5.5,1.6-1.6,3.5-2.8,5.6-3.6,2.1-.8,4.4-1.3,6.9-1.3,3.8,0,7.1,1,10.1,2.9,3,1.9,5.3,4.6,6.9,8.2,1.7,3.5,2.5,7.6,2.5,12.3s-.8,8.9-2.5,12.4c-1.7,3.5-4,6.2-7,8.1-3,1.9-6.3,2.8-10,2.8ZM505.9,58.5c2.9,0,5.6-.8,7.9-2.3,2.3-1.5,4.1-3.7,5.4-6.5,1.3-2.8,2-6,2-9.8s-.7-6.9-1.9-9.7c-1.3-2.8-3.1-4.9-5.4-6.5-2.3-1.5-5-2.3-7.9-2.3s-5.6.8-7.9,2.3c-2.3,1.5-4.1,3.7-5.3,6.5-1.3,2.8-1.9,6-1.9,9.6s.6,6.9,1.9,9.7c1.3,2.8,3.1,5,5.4,6.5,2.3,1.5,4.9,2.3,7.9,2.3h0ZM548,63.3c-2.9,0-5.4-.5-7.6-1.6-2.2-1.1-3.8-2.6-5-4.5-1.1-1.9-1.7-4.2-1.7-6.7,0-3.8,1.2-6.7,3.6-8.8,2.4-2.1,5.9-3.5,10.5-4.1l10.9-1.6c1.3-.1,2.4-.4,3.1-.7.7-.3,1.2-.8,1.6-1.4.3-.6.5-1.3.5-2.3,0-2.1-.5-4-1.5-5.5-1-1.5-2.4-2.7-4.1-3.5-1.8-.8-3.8-1.2-6.1-1.2s-4.3.4-6.1,1.2-3.1,2-4.1,3.5c-1,1.5-1.6,3.4-1.7,5.5h-5.3c.2-3.1,1-5.7,2.5-8,1.5-2.3,3.4-4,6-5.2,2.5-1.2,5.4-1.8,8.7-1.8s6.4.6,9,1.8c2.6,1.2,4.6,2.9,6,5.2,1.4,2.3,2.1,4.9,2.1,8v30.7h-5.4v-9.1h-.2c-1.3,3.1-3.3,5.6-5.9,7.4-2.6,1.8-5.9,2.7-9.8,2.7h0ZM549.2,58.7c3.2,0,5.9-.8,8.1-2.3,2.2-1.6,3.9-3.6,5-6.2,1.1-2.6,1.6-5.4,1.6-8.4v-3.3c-.5.4-1.2.8-2,1.1-.8.3-1.8.5-3.1.7l-10.3,1.4c-2.8.4-5.1,1.2-6.8,2.6-1.7,1.4-2.6,3.4-2.6,6s.4,3.2,1.2,4.5c.8,1.3,2,2.2,3.5,2.9,1.5.7,3.3,1,5.3,1h0ZM601.7,63.4c-2.3,0-4.6-.4-6.7-1.2s-4-2-5.6-3.6-3-3.4-3.9-5.6h-.2v26.2h-5.5V17.8h5.5v9.4h.2c1-2.1,2.2-3.9,3.8-5.5,1.6-1.6,3.5-2.8,5.6-3.6,2.1-.8,4.4-1.3,6.9-1.3,3.8,0,7.1,1,10.1,2.9,3,1.9,5.3,4.6,6.9,8.2,1.7,3.5,2.5,7.6,2.5,12.3s-.8,8.9-2.5,12.4-4,6.2-7,8.1c-3,1.9-6.3,2.8-10,2.8h0ZM600.4,58.5c2.9,0,5.6-.8,7.9-2.3,2.3-1.5,4.1-3.7,5.4-6.5,1.3-2.8,2-6,2-9.8s-.6-6.9-1.9-9.7c-1.3-2.8-3.1-4.9-5.4-6.5s-5-2.3-7.9-2.3-5.7.8-7.9,2.3c-2.3,1.5-4.1,3.7-5.3,6.5-1.3,2.8-1.9,6-1.9,9.6s.6,6.9,1.9,9.7c1.3,2.8,3.1,5,5.4,6.5,2.3,1.5,4.9,2.3,7.9,2.3h0ZM642.4,63.3c-2.9,0-5.4-.5-7.6-1.6-2.2-1.1-3.8-2.6-5-4.5-1.1-1.9-1.7-4.2-1.7-6.7,0-3.8,1.2-6.7,3.6-8.8,2.4-2.1,5.9-3.5,10.5-4.1l10.9-1.6c1.3-.1,2.4-.4,3.1-.7.7-.3,1.2-.8,1.6-1.4.3-.6.5-1.3.5-2.3,0-2.1-.5-4-1.5-5.5-1-1.5-2.4-2.7-4.1-3.5-1.8-.8-3.8-1.2-6.1-1.2s-4.3.4-6.1,1.2-3.1,2-4.1,3.5c-1,1.5-1.6,3.4-1.7,5.5h-5.3c.2-3.1,1-5.7,2.5-8s3.4-4,6-5.2,5.4-1.8,8.7-1.8,6.4.6,9,1.8c2.6,1.2,4.6,2.9,6,5.2,1.4,2.3,2.1,4.9,2.1,8v30.7h-5.4v-9.1h-.2c-1.3,3.1-3.3,5.6-5.9,7.4-2.6,1.8-5.9,2.7-9.8,2.7h0ZM643.6,58.7c3.2,0,5.9-.8,8.1-2.3,2.2-1.6,3.9-3.6,5-6.2,1.1-2.6,1.6-5.4,1.6-8.4v-3.3c-.5.4-1.2.8-2,1.1-.8.3-1.8.5-3.1.7l-10.3,1.4c-2.8.4-5.1,1.2-6.8,2.6-1.7,1.4-2.6,3.4-2.6,6s.4,3.2,1.2,4.5c.8,1.3,2,2.2,3.5,2.9,1.5.7,3.3,1,5.3,1h0ZM362.4,147.9v-57.5h-20.1v-5h45.6v5h-20.1v57.5h-5.5ZM399.6,148.8c-2.9,0-5.4-.5-7.6-1.6-2.2-1.1-3.8-2.6-5-4.5-1.1-1.9-1.7-4.2-1.7-6.7,0-3.8,1.2-6.7,3.6-8.8,2.4-2.1,5.9-3.5,10.5-4.1l10.9-1.6c1.3-.1,2.4-.4,3.1-.7.7-.3,1.2-.8,1.6-1.4.3-.6.5-1.3.5-2.3,0-2.1-.5-4-1.5-5.5s-2.4-2.7-4.1-3.5c-1.8-.8-3.8-1.2-6.1-1.2s-4.3.4-6.1,1.2-3.1,2-4.1,3.6c-1,1.5-1.6,3.4-1.7,5.5h-5.3c.2-3.1,1-5.7,2.5-8,1.5-2.3,3.4-4,6-5.2,2.5-1.2,5.4-1.8,8.7-1.8s6.4.6,9,1.8,4.6,2.9,6,5.2c1.4,2.3,2.1,4.9,2.1,8v30.7h-5.4v-9.1h-.2c-1.3,3.1-3.3,5.6-5.9,7.4-2.6,1.8-5.9,2.7-9.8,2.7h0ZM400.8,144.1c3.2,0,5.9-.8,8.1-2.3,2.2-1.6,3.9-3.6,5-6.2,1.1-2.6,1.6-5.4,1.6-8.4v-3.3c-.5.4-1.2.8-2,1.1-.8.3-1.8.5-3.1.7l-10.3,1.4c-2.8.4-5.1,1.2-6.8,2.6-1.7,1.4-2.6,3.4-2.6,6s.4,3.2,1.2,4.5c.8,1.3,2,2.2,3.5,2.9,1.5.7,3.3,1,5.3,1h0ZM447.5,148.9c-3.3,0-6.2-.7-8.6-2.1-2.4-1.4-4.2-3.4-5.5-6.1-1.3-2.7-1.9-6-1.9-9.8v-27.7h5.5v27.1c0,4.4,1,7.8,3.1,10.2,2,2.4,4.9,3.6,8.7,3.6s5.4-.7,7.5-2c2.1-1.3,3.7-3.1,4.8-5.4,1.1-2.3,1.7-4.8,1.7-7.6v-25.8h5.5v44.7h-5.5v-8.5h-.2c-1.3,2.9-3.2,5.3-5.9,7-2.6,1.7-5.8,2.6-9.3,2.6h0ZM480.5,147.9v-44.7h5.5v8h.1c.7-1.9,1.7-3.5,3-4.8,1.4-1.3,2.9-2.4,4.8-3.1s3.8-1.1,5.9-1.1c3.5,0,6.4.8,8.7,2.5,2.3,1.7,3.9,4,4.8,7.1h.1c1.2-3.1,3-5.5,5.5-7.1s5.4-2.4,8.8-2.4,5.8.7,8.1,2c2.3,1.3,4,3.2,5.2,5.7,1.2,2.5,1.8,5.5,1.8,8.9v29.1h-5.5v-28.5c0-3.9-.9-7-2.8-9.1s-4.6-3.2-8.1-3.2-4.7.6-6.5,1.8-3.2,2.8-4.1,5c-.9,2.1-1.4,4.6-1.4,7.5v26.6h-5.5v-28.5c0-3.9-.9-7-2.8-9.1-1.9-2.1-4.5-3.2-8-3.2s-4.6.6-6.4,1.8c-1.8,1.2-3.2,2.9-4.2,5-1,2.2-1.5,4.6-1.5,7.4v26.5h-5.5ZM566.3,148.8c-2.9,0-5.4-.5-7.6-1.6-2.2-1.1-3.8-2.6-5-4.5-1.1-1.9-1.7-4.2-1.7-6.7,0-3.8,1.2-6.7,3.6-8.8,2.4-2.1,5.9-3.5,10.5-4.1l10.9-1.6c1.3-.1,2.4-.4,3.1-.7.7-.3,1.2-.8,1.6-1.4.3-.6.5-1.3.5-2.3,0-2.1-.5-4-1.5-5.5-1-1.5-2.4-2.7-4.1-3.5-1.8-.8-3.8-1.2-6.1-1.2s-4.3.4-6.1,1.2-3.1,2-4.1,3.6c-1,1.5-1.6,3.4-1.7,5.5h-5.3c.2-3.1,1-5.7,2.5-8,1.5-2.3,3.4-4,6-5.2,2.5-1.2,5.4-1.8,8.7-1.8s6.4.6,9,1.8,4.6,2.9,6,5.2c1.4,2.3,2.1,4.9,2.1,8v30.7h-5.4v-9.1h-.2c-1.3,3.1-3.3,5.6-5.9,7.4s-5.9,2.7-9.8,2.7h0ZM567.5,144.1c3.2,0,5.9-.8,8.1-2.3,2.2-1.6,3.9-3.6,5-6.2,1.1-2.6,1.6-5.4,1.6-8.4v-3.3c-.5.4-1.2.8-2,1.1-.8.3-1.8.5-3.1.7l-10.3,1.4c-2.8.4-5.1,1.2-6.8,2.6-1.7,1.4-2.6,3.4-2.6,6s.4,3.2,1.2,4.5c.8,1.3,2,2.2,3.5,2.9,1.5.7,3.3,1,5.3,1h0ZM613.6,148.3c-2.7,0-5-.5-6.7-1.4-1.7-.9-2.9-2.2-3.7-3.8-.8-1.6-1.1-3.5-1.1-5.7v-29.4h-8.2v-4.8h8.2v-12h5.5v12h10.9v4.8h-10.9v29.1c0,2,.5,3.5,1.6,4.7,1.1,1.1,3,1.7,5.7,1.7s2.2,0,3.5-.3v4.5c-1.6.4-3.2.6-4.8.6h0ZM639.2,148.8c-2.9,0-5.4-.5-7.6-1.6-2.2-1.1-3.8-2.6-5-4.5-1.1-1.9-1.7-4.2-1.7-6.7,0-3.8,1.2-6.7,3.6-8.8,2.4-2.1,5.9-3.5,10.5-4.1l10.9-1.6c1.3-.1,2.4-.4,3.1-.7.7-.3,1.2-.8,1.6-1.4.3-.6.5-1.3.5-2.3,0-2.1-.5-4-1.5-5.5s-2.4-2.7-4.1-3.5c-1.8-.8-3.8-1.2-6.1-1.2s-4.3.4-6.1,1.2-3.1,2-4.1,3.6c-1,1.5-1.6,3.4-1.7,5.5h-5.3c.2-3.1,1-5.7,2.5-8,1.5-2.3,3.4-4,6-5.2s5.4-1.8,8.7-1.8,6.4.6,9,1.8,4.6,2.9,6,5.2c1.4,2.3,2.1,4.9,2.1,8v30.7h-5.4v-9.1h-.2c-1.3,3.1-3.3,5.6-5.9,7.4-2.6,1.8-5.9,2.7-9.8,2.7h0ZM640.3,144.1c3.2,0,5.9-.8,8.1-2.3,2.2-1.6,3.9-3.6,5-6.2,1.1-2.6,1.6-5.4,1.6-8.4v-3.3c-.5.4-1.2.8-2,1.1-.8.3-1.8.5-3.1.7l-10.3,1.4c-2.8.4-5.1,1.2-6.8,2.6-1.7,1.4-2.6,3.4-2.6,6s.4,3.2,1.2,4.5c.8,1.3,2,2.2,3.5,2.9,1.5.7,3.3,1,5.3,1h0ZM690.8,147.9v-62.4h23.2c3.9,0,7.3.7,10.1,2.1s4.9,3.4,6.3,6c1.4,2.6,2.2,5.6,2.2,9s-.6,6.1-1.9,8.7c-1.3,2.5-3.1,4.5-5.6,6-2.5,1.5-5.5,2.4-9,2.6l17.3,28h-6.4l-17-27.8h-13.6v27.8h-5.7ZM713,115.1c4.4,0,7.9-1.1,10.3-3.2,2.4-2.2,3.6-5.2,3.6-9.2s-.5-4.8-1.6-6.6c-1.1-1.8-2.7-3.2-4.7-4.2-2.1-1-4.5-1.4-7.3-1.4h-16.7v24.7h16.5,0ZM753.9,148.8c-2.9,0-5.4-.5-7.6-1.6-2.2-1.1-3.8-2.6-5-4.5s-1.7-4.2-1.7-6.7c0-3.8,1.2-6.7,3.6-8.8,2.4-2.1,5.9-3.5,10.5-4.1l10.9-1.6c1.3-.1,2.4-.4,3.1-.7.7-.3,1.2-.8,1.6-1.4.3-.6.5-1.3.5-2.3,0-2.1-.5-4-1.5-5.5-1-1.5-2.4-2.7-4.1-3.5-1.8-.8-3.8-1.2-6.1-1.2s-4.3.4-6.1,1.2-3.1,2-4.1,3.6c-1,1.5-1.6,3.4-1.7,5.5h-5.3c.2-3.1,1-5.7,2.5-8s3.4-4,6-5.2,5.4-1.8,8.7-1.8,6.4.6,9,1.8,4.6,2.9,6,5.2,2.1,4.9,2.1,8v30.7h-5.4v-9.1h-.2c-1.3,3.1-3.3,5.6-5.9,7.4-2.6,1.8-5.9,2.7-9.8,2.7h0ZM755,144.1c3.2,0,5.9-.8,8.1-2.3,2.2-1.6,3.9-3.6,5-6.2,1.1-2.6,1.6-5.4,1.6-8.4v-3.3c-.5.4-1.2.8-2,1.1-.8.3-1.8.5-3.1.7l-10.3,1.4c-2.8.4-5.1,1.2-6.8,2.6-1.7,1.4-2.6,3.4-2.6,6s.4,3.2,1.2,4.5c.8,1.3,2,2.2,3.5,2.9,1.5.7,3.3,1,5.3,1h0ZM801.2,148.9c-3.3,0-6.2-.7-8.6-2.1-2.4-1.4-4.2-3.4-5.5-6.1-1.3-2.7-1.9-6-1.9-9.8v-27.7h5.5v27.1c0,4.4,1,7.8,3.1,10.2,2,2.4,4.9,3.6,8.7,3.6s5.4-.7,7.5-2c2.1-1.3,3.7-3.1,4.8-5.4,1.1-2.3,1.7-4.8,1.7-7.6v-25.8h5.5v44.7h-5.5v-8.5h-.2c-1.3,2.9-3.2,5.3-5.9,7-2.6,1.7-5.8,2.6-9.3,2.6h0ZM141.2,0H0v142.5c0,11.8,4.6,42.8,22.2,76.1,24.4,46.1,64,80.8,117.8,103.3l1.2.5,1.2-.5c53.8-22.5,93.4-57.3,117.8-103.3,17.6-33.2,22.2-64.3,22.2-76.1V0h-141.2ZM156.8,297.8l-15.6-11.4-15.6,11.4,6-18.4-15.6-11.4h19.3l6-18.4,6,18.4h19.3l-15.6,11.4,6,18.4h0ZM222.8,224.8l-7.4,3.8c-6.5,3.3-11.8,4.8-17.8,4.8s-13.3-1.9-21.2-6c-3.2-1.7-6.6-2.5-10-2.5-5.2,0-10.5,2-14.6,5.4l-.3.3c1.9.7,3.3,2.5,3.3,4.7s-2.2,5-5,5h-17c-2.8,0-5-2.2-5-5s1.4-4,3.3-4.7l-.3-.3c-4.1-3.4-9.4-5.4-14.6-5.4s-6.8.9-10,2.5c-7.9,4.1-14.7,6-21.2,6s-11.2-1.4-17.8-4.8l-7.4-3.8v-60.7l3.2-1.5v60.3l5.7,2.9c6,3.1,10.9,4.4,16.3,4.4s12.3-1.8,19.8-5.7c3.7-1.9,7.6-2.9,11.5-2.9,5.9,0,11.9,2.2,16.6,6.1l2.9,2.4,3.8,3.2h-4.9s-1.7,0-1.7,0c-1,0-1.8.8-1.8,1.8s.8,1.8,1.8,1.8h17c1,0,1.8-.8,1.8-1.8s-.8-1.8-1.8-1.8h-6.7l3.8-3.2,2.9-2.4c4.7-3.9,10.7-6.1,16.6-6.1s7.8,1,11.5,2.9c7.4,3.9,13.7,5.7,19.8,5.7s10.3-1.3,16.3-4.4l5.7-2.9v-60.3l3.2,1.5v60.7h0ZM71.6,219.7c5,2.6,8.9,3.7,13.2,3.7s10.2-1.6,16.6-4.9c4.7-2.4,9.6-3.7,14.6-3.7,7.5,0,15.1,2.8,21,7.7l2.3,1.9v4.1l-4.4-3.6c-5.3-4.4-12.2-7-19-7s-9,1.1-13.2,3.3c-6.9,3.6-12.6,5.3-18.1,5.3s-9.2-1.2-14.6-4l-3.7-1.9v-59.8l3.2-1.5v59.4l2,1h0ZM116,211.2c-5.3,0-10.8,1.2-16.3,4.1-11.9,6.2-18.4,5.4-26.5,1.2v-59c10.2,2.4,18.2,1.4,28.5-3,12.4-5.3,25.1-3.6,37.6,5v60.2c-6-5-14.3-8.6-23.3-8.6h0ZM95,126l6,18.4-15.6-11.4-15.6,11.4,6-18.4-15.6-11.4h19.3l6-18.4,6,18.4h19.3l-15.6,11.4h0ZM212.7,144.4l-15.6-11.4-15.6,11.4,6-18.4-15.6-11.4h19.3l6-18.4,6,18.4h19.3l-15.6,11.4,6,18.4h0ZM180.6,154.5c10.3,4.4,18.3,5.3,28.5,3v59c-8,4.1-14.5,5-26.5-1.2-5.5-2.9-11-4.1-16.3-4.1-9,0-17.3,3.5-23.3,8.6v-60.2c12.5-8.6,25.2-10.2,37.6-5h0ZM145.4,222.5c5.9-4.9,13.5-7.7,21-7.7s10,1.2,14.6,3.7c6.4,3.3,11.7,4.9,16.6,4.9s8.2-1.1,13.2-3.7l2-1v-59.4l3.2,1.5v59.8l-3.7,1.9c-5.5,2.8-9.9,4-14.6,4s-11.2-1.7-18.1-5.3c-4.2-2.2-8.7-3.3-13.2-3.3-6.7,0-13.6,2.5-19,7l-4.4,3.6v-4.1l2.3-1.9h0ZM276.2,84.6c-22.5,0-22.5,11.8-45,11.8s-22.5-12.1-45-12.1-22.6,12.1-45.1,12.1h0c-22.5,0-22.6-12.1-45.1-12.1s-22.5,12.1-45,12.1-22.5-11.8-45-11.8V6.2h270v78.4ZM125.2,31.7c-4,0-7.2,3.2-7.2,7.2,0,1.6.6,3.2-.9,6.1-1.9,3.7-3.5,6.4-5.3,10.3-.2.5-1.8,4.1-1,4.1s1.6-2.4,3.2-4.6c2.4-3.4,4-4.9,6.3-6.7,2.7-1.9,8-3.2,15.1-.6,3.5,1.3,6.4,2.4,8.8,6.2,2.5,4.1,0,10.5-1.1,12.2-1.1,1.7-3.7,2-4.4,2-.7,0-2.2,0-2.9.2-1.4.3-1.3,1.4-1.3,1.6h27.6c-.2-1.8-1.6-1.8-2.7-2,0,0,0-6,3.1-11.2,1.5-2.5,2.8-3.5,4.4-5.4,3-3,4.8-7.1,4.8-11.7,0-9.3-7.6-16.7-16.7-16.7s-8.4-.3-16.7,5.1c-4.8,3.1-6,3.7-13.3,3.7h0ZM148.3,60.9c1.2-2.4,3.4-5.1,3.4-5.1,3.4.7,6,3.8,6,7.2s-.3,2.4-.8,3.4c0,0-.7,1.4-2.2,1.4h-9.1s1-3.3,2.8-6.9h0ZM69.3,22.9c-1.9,0-8.4-.3-16.7,5.1-4.8,3.1-6,3.7-13.3,3.7s-7.2,3.2-7.2,7.2c0,1.6.6,3.2-.9,6.1-1.9,3.7-3.5,6.4-5.3,10.3-.2.5-1.8,4.1-1,4.1s1.6-2.4,3.2-4.6c2.4-3.4,4-4.9,6.3-6.7,2.7-1.9,8-3.2,15.1-.6,3.5,1.3,6.4,2.4,8.8,6.2,2.5,4.1,0,10.5-1.1,12.2s-3.7,2-4.4,2c-.7,0-2.2,0-2.9.2-1.4.3-1.3,1.4-1.3,1.6h27.6c-.2-1.8-1.6-1.8-2.7-2,0,0,0-6,3.1-11.2,1.5-2.5,2.8-3.5,4.4-5.4,3-3,4.8-7.1,4.8-11.7,0-9.3-7.6-16.7-16.7-16.7h0ZM71,66.4s-.7,1.4-2.2,1.4h-9.1s1-3.3,2.8-6.9c1.2-2.4,3.4-5.1,3.4-5.1,3.4.7,6,3.8,6,7.2s-.3,2.4-.8,3.4h0ZM196.6,59.4c.7,0,1.6-2.4,3.2-4.6,2.4-3.4,4-4.9,6.3-6.7,2.7-1.9,8-3.2,15.1-.6,3.5,1.3,6.4,2.4,8.8,6.2,2.5,4.1,0,10.5-1.1,12.2s-3.7,2-4.4,2c-.7,0-2.2,0-2.9.2-1.4.3-1.3,1.4-1.3,1.6h27.6c-.2-1.8-1.6-1.8-2.7-2,0,0,0-6,3.1-11.2,1.5-2.5,2.8-3.5,4.4-5.4,3-3,4.8-7.1,4.8-11.7,0-9.3-7.6-16.7-16.7-16.7s-8.4-.3-16.7,5.1c-4.8,3.1-6,3.7-13.3,3.7s-7.2,3.2-7.2,7.2c0,1.6.6,3.2-.9,6.1-1.9,3.7-3.5,6.4-5.3,10.3-.2.5-1.8,4.1-1,4.1h0ZM234.1,60.9c1.2-2.4,3.4-5.1,3.4-5.1,3.4.7,6,3.8,6,7.2s-.3,2.4-.8,3.4c0,0-.7,1.4-2.2,1.4h-9.1s1-3.3,2.8-6.9h0Z"/>
</svg>