<svg xmlns="http://www.w3.org/2000/svg" viewBox="0 0 326.18 317.23"><defs><style>.cls-1,.cls-10,.cls-11,.cls-15,.cls-16,.cls-17,.cls-19,.cls-2,.cls-20,.cls-6,.cls-7,.cls-8,.cls-9{fill:none;}.cls-1{stroke:#000;}.cls-1,.cls-10,.cls-11,.cls-15,.cls-16,.cls-17,.cls-2,.cls-3,.cls-6,.cls-7,.cls-8,.cls-9{stroke-miterlimit:10;}.cls-2,.cls-3{stroke:#8a9191;}.cls-3{fill:#0094a6;}.cls-4{fill:#8a9191;}.cls-5{font-size:9px;}.cls-13,.cls-5{font-family:Verdana, Verdana;}.cls-10,.cls-11,.cls-15,.cls-16,.cls-17,.cls-6,.cls-7,.cls-8,.cls-9{stroke:#606060;}.cls-7{stroke-dasharray:0.25 0.25 0.13 0.25;}.cls-8{stroke-dasharray:6.16 6.16 3.08 6.16;}.cls-9{stroke-dasharray:6.16 3.08 6.16 6.16 3.08 6.16;}.cls-10{stroke-dasharray:5.56 5.56 2.78 5.56;}.cls-11{stroke-dasharray:5.56 2.78 5.56 5.56 2.78 5.56;}.cls-12{letter-spacing:0em;}.cls-13{font-size:6px;}.cls-14{letter-spacing:-0.11em;}.cls-15{stroke-dasharray:6.63 6.63 3.31 6.63;}.cls-16{stroke-dasharray:6.07 6.07 3.04 6.07;}.cls-17{stroke-dasharray:6.07 3.04 6.07 6.07 3.04 6.07;}.cls-18{letter-spacing:-0.01em;}.cls-19{stroke:#666;}.cls-19,.cls-20{stroke-linecap:round;stroke-linejoin:round;stroke-width:0.25px;}.cls-20{stroke:#4d4d4d;}</style></defs><title>cer-level5-20170905</title><g id="Layer_1" data-name="Layer 1"><text x="-9.82" y="-10"></text></g><g id="Layer_2" data-name="Layer 2"><polygon class="cls-1" points="77.68 50.5 0.68 305.5 264.68 301.5 294.68 301.5 294.68 212.5 325.68 212.5 325.68 40.5 295.68 40.5 295.68 0.5 274.68 0.5 274.68 5.5 254.68 5.5 242.68 50.5 226.18 50.5 77.68 50.5"/><polyline class="cls-2" points="36.68 282.5 48.68 282.5 48.68 285.5 263.68 282.5 263.68 301"/><polyline class="cls-2" points="276.68 239.5 276.68 212.5 295.18 212.5"/><polygon class="cls-2" points="257.68 212.5 257.68 273.5 164.68 274.5 164.68 212.5 257.68 212.5"/><rect class="cls-2" x="82.68" y="212.5" width="36" height="61"/><polyline class="cls-2" points="153.68 235.5 153.68 212.5 118.68 212.5 118.68 249.25 153.68 249.5 153.68 273.5 118.68 273.5"/><line class="cls-2" x1="151.68" y1="154.5" x2="151.68" y2="201.5"/><polygon class="cls-2" points="141.68 154.5 141.68 201.5 76.68 201.5 89.68 154.5 116.68 154.5 141.68 154.5"/><path class="cls-1" d="M150.5,210.5" transform="translate(-9.82 -10)"/><polygon class="cls-2" points="151.68 82.5 111.68 83.5 94.68 139.5 151.68 139.5 151.68 82.5"/><line class="cls-2" x1="276.68" y1="90" x2="276.68" y2="62.5"/><polyline class="cls-2" points="295.68 89.5 295.68 55.5 274.68 55.5 274.68 36.5 280.68 36.5"/><polyline class="cls-2" points="280.68 25.5 275.68 25.5 275.68 1"/><polyline class="cls-2" points="248.98 25.5 263.68 25.5 263.68 73.5 104.68 75.5 67.68 201.5 63.68 201.5 63.68 215.5 38.68 215.5 38.68 230.5 73.68 230.5 73.68 214.5 74.68 273.5 37.68 273.5 12.47 265.29"/><line class="cls-2" x1="280.68" y1="30.5" x2="295.91" y2="30.5"/><line class="cls-1" x1="295.68" y1="0.5" x2="295.68" y2="30.5"/><polyline class="cls-2" points="305.68 201.5 279.68 201.5 279.68 154.5 305.68 154.5"/><rect class="cls-3" x="119.18" y="213" width="34" height="36"/><rect class="cls-3" x="164.68" y="154.5" width="60" height="46"/><rect class="cls-4" x="276.18" y="247" width="18" height="54"/><rect class="cls-3" x="224.68" y="154.5" width="32" height="23"/><rect class="cls-2" x="224.68" y="177.5" width="32" height="23"/><rect class="cls-2" x="223.68" y="83.5" width="32" height="59"/><rect class="cls-3" x="163.68" y="83.5" width="60" height="59"/><rect class="cls-4" x="276.18" y="90" width="20" height="52"/><text class="cls-5" transform="translate(185.23 167.84)">CeR <tspan x="1.45" y="10.8">Rm </tspan><tspan x="0.37" y="21.6">585</tspan></text><text class="cls-5" transform="translate(127.73 222.84)">CeR <tspan x="1.45" y="10.8">Rm </tspan><tspan x="0.37" y="21.6">580</tspan></text><text class="cls-5" transform="translate(241.18 161.84)"> <tspan x="-11.29" y="10.8">585a</tspan></text><text class="cls-5" transform="translate(185.23 103.84)">CeR <tspan x="1.45" y="10.8">Rm </tspan><tspan x="-14.65" y="21.6">520 &amp; 590</tspan></text><text class="cls-5" transform="translate(288.67 281.93) rotate(-89.82)">Lifts</text><text class="cls-5" transform="translate(289.67 125.93) rotate(-89.82)">Lifts</text><line class="cls-6" x1="272.18" y1="272" x2="269.18" y2="272"/><line class="cls-7" x1="269.05" y1="272" x2="268.3" y2="272"/><polyline class="cls-6" points="268.18 272 265.18 272 265.18 269"/><line class="cls-8" x1="265.18" y1="265.92" x2="265.18" y2="247.45"/><line class="cls-9" x1="265.18" y1="244.37" x2="265.18" y2="155.08"/><polyline class="cls-6" points="265.18 152 265.18 149 262.18 149"/><line class="cls-10" x1="259.4" y1="149" x2="242.73" y2="149"/><line class="cls-11" x1="239.95" y1="149" x2="214.95" y2="149"/><line class="cls-6" x1="212.18" y1="149" x2="209.18" y2="149"/><text class="cls-5" transform="translate(142.21 8.34)">LEVEL 5<tspan x="-14.94" y="10.8">BUILDING 302</tspan><tspan x="-21.77" y="21.6">SCIENCE CENTRE</tspan><tspan x="-44.21" y="32.4">UNIVERSITY OF </tspan><tspan class="cls-12" x="30.61" y="32.4">A</tspan><tspan x="36.71" y="32.4">UCKLAND</tspan></text><line class="cls-1" x1="216.68" y1="154.5" x2="208.68" y2="154.5"/><line class="cls-1" x1="198.68" y1="142.5" x2="189.68" y2="142.5"/><line class="cls-1" x1="224.68" y1="160.5" x2="224.68" y2="169.5"/><line class="cls-1" x1="153.68" y1="249.5" x2="153.68" y2="235.5"/><line class="cls-2" x1="295.68" y1="40.5" x2="295.68" y2="55.5"/><text class="cls-13" transform="translate(289.36 52.85) rotate(-90)"><tspan class="cls-14">T</tspan><tspan x="3.05" y="0">oilets</tspan></text><text class="cls-13" transform="translate(289.36 24.85) rotate(-90)"><tspan class="cls-14">T</tspan><tspan x="3.05" y="0">oilets</tspan></text><path class="cls-1" d="M199,116.5" transform="translate(-9.82 -10)"/><path class="cls-1" d="M208,116.5" transform="translate(-9.82 -10)"/><line class="cls-6" x1="192.18" y1="148" x2="189.18" y2="148.05"/><line class="cls-15" x1="185.86" y1="148.11" x2="165.99" y2="148.46"/><polyline class="cls-6" points="162.68 148.5 159.68 148.5 159.64 151.5"/><line class="cls-16" x1="159.61" y1="154.54" x2="159.41" y2="172.75"/><line class="cls-17" x1="159.38" y1="175.79" x2="158.74" y2="233.46"/><line class="cls-6" x1="158.71" y1="236.5" x2="158.68" y2="239.5"/><text class="cls-5" transform="translate(147.97 314.5)"><tspan class="cls-18">S</tspan><tspan x="6.02" y="0">ymonds St</tspan></text><text class="cls-13" transform="translate(257.36 49.85) rotate(-90)"><tspan class="cls-14">T</tspan><tspan x="3.05" y="0">oilets</tspan></text></g><g id="Layer_3" data-name="Layer 3"><path class="cls-19" d="M290.23,213.81V220" transform="translate(-9.82 -10)"/><path class="cls-19" d="M313.21,218.7l-.22.59-.16.39h-1" transform="translate(-9.82 -10)"/><path class="cls-19" d="M303,214h-1v.54" transform="translate(-9.82 -10)"/><path class="cls-19" d="M304.74,219.18v.54h-1" transform="translate(-9.82 -10)"/><path class="cls-19" d="M291.33,214h-1v.54" transform="translate(-9.82 -10)"/><path class="cls-19" d="M314.37,216.39c0,.12,0,.23,0,.35a.18.18,0,1,0,.35,0c0-.12,0-.23,0-.35" transform="translate(-9.82 -10)"/><path class="cls-19" d="M311.81,216.65v1.22" transform="translate(-9.82 -10)"/><path class="cls-19" d="M296.58,216.11c0,.11,0,.22,0,.33s.06.19.18.19.17-.06.18-.19,0-.22,0-.33" transform="translate(-9.82 -10)"/><path class="cls-19" d="M304.74,215.8V217" transform="translate(-9.82 -10)"/><path class="cls-19" d="M313.22,214.12v1.22" transform="translate(-9.82 -10)"/><path class="cls-19" d="M290.34,216.7v1.22" transform="translate(-9.82 -10)"/><path class="cls-19" d="M290.34,215.22v1.2" transform="translate(-9.82 -10)"/><path class="cls-19" d="M291.19,215.22v1.2" transform="translate(-9.82 -10)"/><path class="cls-19" d="M292.08,215.22v1.2" transform="translate(-9.82 -10)"/><path class="cls-19" d="M293,215.22v1.2" transform="translate(-9.82 -10)"/><path class="cls-19" d="M293.88,215.22v1.2" transform="translate(-9.82 -10)"/><path class="cls-19" d="M294.8,215.22v1.2" transform="translate(-9.82 -10)"/><path class="cls-19" d="M295.69,215.22v1.2" transform="translate(-9.82 -10)"/><path class="cls-19" d="M297.49,215.22v1.2" transform="translate(-9.82 -10)"/><path class="cls-19" d="M298.41,215.22v1.2" transform="translate(-9.82 -10)"/><path class="cls-19" d="M299.32,215.22v1.2" transform="translate(-9.82 -10)"/><path class="cls-19" d="M300.21,215.22v1.2" transform="translate(-9.82 -10)"/><path class="cls-19" d="M301.13,215.22v1.2" transform="translate(-9.82 -10)"/><path class="cls-19" d="M302,215.22v1.2" transform="translate(-9.82 -10)"/><path class="cls-19" d="M303.82,215.22v1.2" transform="translate(-9.82 -10)"/><path class="cls-19" d="M313.22,215.62v1.18" transform="translate(-9.82 -10)"/><path class="cls-19" d="M312.33,215.17v1.17" transform="translate(-9.82 -10)"/><path class="cls-19" d="M311.81,215.17v1.17" transform="translate(-9.82 -10)"/><path class="cls-19" d="M304.74,217.33v1.17" transform="translate(-9.82 -10)"/><path class="cls-19" d="M304.74,214v1.15" transform="translate(-9.82 -10)"/><path class="cls-19" d="M311.81,218.52v1.15" transform="translate(-9.82 -10)"/><path class="cls-19" d="M312.33,218.52v1.14" transform="translate(-9.82 -10)"/><path class="cls-19" d="M302,218.59v1.13" transform="translate(-9.82 -10)"/><path class="cls-19" d="M294.8,218.59v1.13" transform="translate(-9.82 -10)"/><path class="cls-19" d="M297.49,218.59v1.13" transform="translate(-9.82 -10)"/><path class="cls-19" d="M290.34,218.59v1.13" transform="translate(-9.82 -10)"/><path class="cls-19" d="M313.22,217.52v1.13" transform="translate(-9.82 -10)"/><path class="cls-19" d="M293,218.59v1.11" transform="translate(-9.82 -10)"/><path class="cls-19" d="M292.08,218.59v1.11" transform="translate(-9.82 -10)"/><path class="cls-19" d="M291.19,218.59v1.11" transform="translate(-9.82 -10)"/><path class="cls-19" d="M293.88,218.59v1.11" transform="translate(-9.82 -10)"/><path class="cls-19" d="M295.69,218.59v1.11" transform="translate(-9.82 -10)"/><path class="cls-19" d="M296.6,218.59v1.11" transform="translate(-9.82 -10)"/><path class="cls-19" d="M298.41,218.59v1.11" transform="translate(-9.82 -10)"/><path class="cls-19" d="M299.32,218.59v1.11" transform="translate(-9.82 -10)"/><path class="cls-19" d="M300.21,218.59v1.13h-1" transform="translate(-9.82 -10)"/><path class="cls-19" d="M301.13,218.59v1.11" transform="translate(-9.82 -10)"/><path class="cls-19" d="M302.93,218.59v1.11" transform="translate(-9.82 -10)"/><path class="cls-19" d="M303.82,218.59v1.11" transform="translate(-9.82 -10)"/><path class="cls-19" d="M313.88,217l-.16.42-.25.62a.34.34,0,0,0,0,.06" transform="translate(-9.82 -10)"/><path class="cls-19" d="M314.13,215.17c0,.36,0,.72,0,1.08a1.17,1.17,0,0,1-.11.34.8.8,0,0,1-.06.11" transform="translate(-9.82 -10)"/><path class="cls-19" d="M302.93,215.22c0,.32,0,.63,0,.95a1,1,0,0,1,0,.11" transform="translate(-9.82 -10)"/><path class="cls-19" d="M312.77,214h-1v.54" transform="translate(-9.82 -10)"/><path class="cls-19" d="M302,216.7v1.22" transform="translate(-9.82 -10)"/><path class="cls-19" d="M301.13,216.7v1.22" transform="translate(-9.82 -10)"/><path class="cls-19" d="M300.21,216.7v1.22" transform="translate(-9.82 -10)"/><path class="cls-19" d="M299.32,216.7v1.22" transform="translate(-9.82 -10)"/><path class="cls-19" d="M298.41,216.7v1.22" transform="translate(-9.82 -10)"/><path class="cls-19" d="M297.49,216.7v1.22" transform="translate(-9.82 -10)"/><path class="cls-19" d="M296.6,216.7v1.22" transform="translate(-9.82 -10)"/><path class="cls-19" d="M312.33,216.65v1.22" transform="translate(-9.82 -10)"/><path class="cls-19" d="M295.69,216.7v1.22" transform="translate(-9.82 -10)"/><path class="cls-19" d="M294.8,216.7v1.22" transform="translate(-9.82 -10)"/><path class="cls-19" d="M293,216.7v1.22" transform="translate(-9.82 -10)"/><path class="cls-19" d="M303.82,216.7v1.22" transform="translate(-9.82 -10)"/><path class="cls-19" d="M293.88,216.7v1.22" transform="translate(-9.82 -10)"/><path class="cls-19" d="M291.19,216.7v1.22" transform="translate(-9.82 -10)"/><path class="cls-19" d="M292.08,216.7v1.22" transform="translate(-9.82 -10)"/><path class="cls-19" d="M314.67,214H315l-.3.75c0,.09-.06.19-.09.28" transform="translate(-9.82 -10)"/><path class="cls-19" d="M314.91,216.67h.16c.09,0,.14,0,.14-.13a.14.14,0,0,0-.14-.14h-.19v.53" transform="translate(-9.82 -10)"/><path class="cls-19" d="M297.13,216.38h.16a.13.13,0,0,0,.13-.14.12.12,0,0,0-.13-.13h-.2v.52" transform="translate(-9.82 -10)"/><path class="cls-19" d="M303.75,216.86h-13" transform="translate(-9.82 -10)"/><path class="cls-19" d="M292,219.72h1" transform="translate(-9.82 -10)"/><path class="cls-19" d="M296.6,215.22v.87" transform="translate(-9.82 -10)"/><path class="cls-19" d="M313.95,216.81H312" transform="translate(-9.82 -10)"/><path class="cls-19" d="M291.91,214h1" transform="translate(-9.82 -10)"/><path class="cls-19" d="M303.63,214h1.05" transform="translate(-9.82 -10)"/><path class="cls-19" d="M295.9,214h-1.05" transform="translate(-9.82 -10)"/><path class="cls-19" d="M303.16,219.72h-1" transform="translate(-9.82 -10)"/><path class="cls-19" d="M291.45,219.72h-1.05" transform="translate(-9.82 -10)"/><path class="cls-19" d="M299.09,214h1" transform="translate(-9.82 -10)"/><path class="cls-19" d="M314.42,214h-1.05" transform="translate(-9.82 -10)"/><path class="cls-19" d="M300.82,219.72h1.05" transform="translate(-9.82 -10)"/><path class="cls-19" d="M296,219.72h-1" transform="translate(-9.82 -10)"/><path class="cls-19" d="M296.27,219.72h1" transform="translate(-9.82 -10)"/><path class="cls-19" d="M294.26,214h-1" transform="translate(-9.82 -10)"/><path class="cls-19" d="M309.75,213.81v.12h.69v-.12" transform="translate(-9.82 -10)"/><path class="cls-19" d="M314.39,215.59l-.16.49-.06.15" transform="translate(-9.82 -10)"/><path class="cls-19" d="M298.83,214h-1.05" transform="translate(-9.82 -10)"/><path class="cls-19" d="M300.7,214h1.05" transform="translate(-9.82 -10)"/><path class="cls-19" d="M296.16,214h1" transform="translate(-9.82 -10)"/><path class="cls-19" d="M302.93,216.7v.73" transform="translate(-9.82 -10)"/><path class="cls-19" d="M294.38,219.72h-1.05" transform="translate(-9.82 -10)"/><path class="cls-19" d="M302.41,215.92l.64.43" transform="translate(-9.82 -10)"/><path class="cls-19" d="M293,214v.54" transform="translate(-9.82 -10)"/><path class="cls-19" d="M294.8,214v.54" transform="translate(-9.82 -10)"/><path class="cls-19" d="M300.21,214v.54" transform="translate(-9.82 -10)"/><path class="cls-19" d="M297.89,219.72h1.05" transform="translate(-9.82 -10)"/><path class="cls-19" d="M301.13,214v.52" transform="translate(-9.82 -10)"/><path class="cls-19" d="M299.32,214v.52" transform="translate(-9.82 -10)"/><path class="cls-19" d="M303.82,214v.52" transform="translate(-9.82 -10)"/><path class="cls-19" d="M298.41,214v.52" transform="translate(-9.82 -10)"/><path class="cls-19" d="M302.93,214v.52" transform="translate(-9.82 -10)"/><path class="cls-19" d="M297.45,214s0,0,0,.06,0,.32,0,.48" transform="translate(-9.82 -10)"/><path class="cls-19" d="M296.6,214v.52" transform="translate(-9.82 -10)"/><path class="cls-19" d="M295.69,214v.52" transform="translate(-9.82 -10)"/><path class="cls-19" d="M293.88,214v.52" transform="translate(-9.82 -10)"/><path class="cls-19" d="M292.08,214v.52" transform="translate(-9.82 -10)"/><path class="cls-19" d="M291.19,214v.52" transform="translate(-9.82 -10)"/><path class="cls-19" d="M314.13,214v.52" transform="translate(-9.82 -10)"/><path class="cls-19" d="M312.33,214v.52" transform="translate(-9.82 -10)"/><path class="cls-19" d="M313.52,216.34l.28.33.11.14-.38.46" transform="translate(-9.82 -10)"/><path class="cls-19" d="M303.18,217.29l-.25.14v.48" transform="translate(-9.82 -10)"/><path class="cls-19" d="M299.4,213.81v.13h-.32v-.13" transform="translate(-9.82 -10)"/><path class="cls-19" d="M303.74,216.89l-.28.19" transform="translate(-9.82 -10)"/><path class="cls-19" d="M304.52,213.81v.11l-.34,0v-.13" transform="translate(-9.82 -10)"/><path class="cls-19" d="M302.9,217.48l-.23.14" transform="translate(-9.82 -10)"/><path class="cls-19" d="M303.62,216.73l-.23-.14" transform="translate(-9.82 -10)"/><path class="cls-19" d="M303.11,216.4l.23.14" transform="translate(-9.82 -10)"/><path class="cls-19" d="M302.61,217.67c-.07,0-.17.06-.2.15" transform="translate(-9.82 -10)"/><path class="cls-19" d="M303.41,217.13l-.19.12" transform="translate(-9.82 -10)"/><path class="cls-19" d="M299,213.81V214" transform="translate(-9.82 -10)"/><path class="cls-19" d="M299.49,213.81V214" transform="translate(-9.82 -10)"/><path class="cls-19" d="M299.13,213.81v.12" transform="translate(-9.82 -10)"/><path class="cls-19" d="M302.93,216.31v.11" transform="translate(-9.82 -10)"/><path class="cls-19" d="M314.53,215.24l0,.09" transform="translate(-9.82 -10)"/><path class="cls-19" d="M313.34,218.34l0,.09" transform="translate(-9.82 -10)"/><path class="cls-19" d="M304.74,215.43v.09" transform="translate(-9.82 -10)"/><path class="cls-19" d="M304.74,218.8v.09" transform="translate(-9.82 -10)"/><path class="cls-19" d="M312.33,218.15v.09" transform="translate(-9.82 -10)"/><path class="cls-19" d="M311.81,218.15v.09" transform="translate(-9.82 -10)"/><path class="cls-19" d="M314.13,214.77v.09" transform="translate(-9.82 -10)"/><path class="cls-19" d="M303.74,216.82l-.07,0" transform="translate(-9.82 -10)"/><path class="cls-19" d="M296.1,76.77,294.77,76l.82-.14.55-3h-7.48V81" transform="translate(-9.82 -10)"/><path class="cls-19" d="M303.13,81V72.87h-5.2l-.64,3.6-.79.15" transform="translate(-9.82 -10)"/><path class="cls-19" d="M296.37,80.6V79.51h6.72" transform="translate(-9.82 -10)"/><path class="cls-19" d="M288.7,79.51h6.69V80.6" transform="translate(-9.82 -10)"/><path class="cls-19" d="M295.39,97.14v1.53H293.1" transform="translate(-9.82 -10)"/><path class="cls-19" d="M288.67,97.57v1.09H291" transform="translate(-9.82 -10)"/><path class="cls-19" d="M296.23,76.82l-.56.09-.26.05L295,79.49" transform="translate(-9.82 -10)"/><path class="cls-19" d="M297.9,77.44l-.8.14c-.05.26-.1.52-.15.77s-.12.68-.18,1a.75.75,0,0,0,0,.13" transform="translate(-9.82 -10)"/><path class="cls-19" d="M303.13,97.57v1.09H301.6" transform="translate(-9.82 -10)"/><path class="cls-19" d="M293,98.67H291.1" transform="translate(-9.82 -10)"/><path class="cls-19" d="M290.19,97.39c0,.15,0,.29,0,.44s.09.25.27.25.27-.08.27-.25,0-.29,0-.44" transform="translate(-9.82 -10)"/><path class="cls-19" d="M296.37,88.05v1.64" transform="translate(-9.82 -10)"/><path class="cls-19" d="M300.7,85.11h-1.64" transform="translate(-9.82 -10)"/><path class="cls-19" d="M291,93.07h-1.64" transform="translate(-9.82 -10)"/><path class="cls-19" d="M291,84.67h-1.64" transform="translate(-9.82 -10)"/><path class="cls-19" d="M300.7,93.5h-1.64" transform="translate(-9.82 -10)"/><path class="cls-19" d="M291,94.45h-1.64" transform="translate(-9.82 -10)"/><path class="cls-19" d="M300.7,83.69h-1.64" transform="translate(-9.82 -10)"/><path class="cls-19" d="M296.37,83.51v1.64" transform="translate(-9.82 -10)"/><path class="cls-19" d="M291,83.25h-1.64" transform="translate(-9.82 -10)"/><path class="cls-19" d="M300.7,94.92h-1.64" transform="translate(-9.82 -10)"/><path class="cls-19" d="M288.67,95.54v1.64" transform="translate(-9.82 -10)"/><path class="cls-19" d="M291,95.87h-1.64" transform="translate(-9.82 -10)"/><path class="cls-19" d="M300.7,82.31h-1.64" transform="translate(-9.82 -10)"/><path class="cls-19" d="M296.37,92.6v1.64" transform="translate(-9.82 -10)"/><path class="cls-19" d="M300.7,92.12h-1.64" transform="translate(-9.82 -10)"/><path class="cls-19" d="M291,86.05h-1.64" transform="translate(-9.82 -10)"/><path class="cls-19" d="M291,91.65h-1.64" transform="translate(-9.82 -10)"/><path class="cls-19" d="M288.67,86.45v1.64" transform="translate(-9.82 -10)"/><path class="cls-19" d="M288.67,91v1.64" transform="translate(-9.82 -10)"/><path class="cls-19" d="M300.7,86.49h-1.64" transform="translate(-9.82 -10)"/><path class="cls-19" d="M300.7,90.71h-1.64" transform="translate(-9.82 -10)"/><path class="cls-19" d="M291,87.47h-1.64" transform="translate(-9.82 -10)"/><path class="cls-19" d="M291,90.27h-1.64" transform="translate(-9.82 -10)"/><path class="cls-19" d="M300.7,87.91h-1.64" transform="translate(-9.82 -10)"/><path class="cls-19" d="M291,88.85h-1.64" transform="translate(-9.82 -10)"/><path class="cls-19" d="M300.7,89.29h-1.64" transform="translate(-9.82 -10)"/><path class="cls-19" d="M300.7,98.67h-1.64" transform="translate(-9.82 -10)"/><path class="cls-19" d="M288.67,81.91v1.64" transform="translate(-9.82 -10)"/><path class="cls-19" d="M291,97.25h-1.64" transform="translate(-9.82 -10)"/><path class="cls-19" d="M300.7,96.3h-1.64" transform="translate(-9.82 -10)"/><path class="cls-19" d="M300.7,97.72h-1.64" transform="translate(-9.82 -10)"/><path class="cls-19" d="M300.7,80.89h-1.64" transform="translate(-9.82 -10)"/><path class="cls-19" d="M291,80.46h-1.64" transform="translate(-9.82 -10)"/><path class="cls-19" d="M291,81.84h-1.64" transform="translate(-9.82 -10)"/><path class="cls-19" d="M296.37,81v1.6" transform="translate(-9.82 -10)"/><path class="cls-19" d="M298.66,85.11h-1.6" transform="translate(-9.82 -10)"/><path class="cls-19" d="M288.67,93v1.6" transform="translate(-9.82 -10)"/><path class="cls-19" d="M296.37,85.54v1.6" transform="translate(-9.82 -10)"/><path class="cls-19" d="M298.66,92.12h-1.6" transform="translate(-9.82 -10)"/><path class="cls-19" d="M293,86.05h-1.6" transform="translate(-9.82 -10)"/><path class="cls-19" d="M298.66,80.89h-1.6" transform="translate(-9.82 -10)"/><path class="cls-19" d="M298.66,97.72h-1.6" transform="translate(-9.82 -10)"/><path class="cls-19" d="M298.66,86.49h-1.6" transform="translate(-9.82 -10)"/><path class="cls-19" d="M293,80.46h-1.6" transform="translate(-9.82 -10)"/><path class="cls-19" d="M298.66,90.71h-1.6" transform="translate(-9.82 -10)"/><path class="cls-19" d="M293,87.47h-1.6" transform="translate(-9.82 -10)"/><path class="cls-19" d="M296.37,90.09v1.6" transform="translate(-9.82 -10)"/><path class="cls-19" d="M298.66,87.91h-1.6" transform="translate(-9.82 -10)"/><path class="cls-19" d="M298.66,89.29h-1.6" transform="translate(-9.82 -10)"/><path class="cls-19" d="M298.66,98.67h-1.6" transform="translate(-9.82 -10)"/><path class="cls-19" d="M288.67,88.49v1.6" transform="translate(-9.82 -10)"/><path class="cls-19" d="M293,81.84h-1.6" transform="translate(-9.82 -10)"/><path class="cls-19" d="M296.37,94.63v1.6" transform="translate(-9.82 -10)"/><path class="cls-19" d="M298.66,83.69h-1.6" transform="translate(-9.82 -10)"/><path class="cls-19" d="M288.67,83.95v1.6" transform="translate(-9.82 -10)"/><path class="cls-19" d="M293,83.25h-1.6" transform="translate(-9.82 -10)"/><path class="cls-19" d="M298.66,94.92h-1.6" transform="translate(-9.82 -10)"/><path class="cls-19" d="M298.66,96.3h-1.6" transform="translate(-9.82 -10)"/><path class="cls-19" d="M293,97.25h-1.6" transform="translate(-9.82 -10)"/><path class="cls-19" d="M293,84.67h-1.6" transform="translate(-9.82 -10)"/><path class="cls-19" d="M298.66,82.31h-1.6" transform="translate(-9.82 -10)"/><path class="cls-19" d="M298.66,93.5h-1.6" transform="translate(-9.82 -10)"/><path class="cls-19" d="M303.13,83.69H301.6" transform="translate(-9.82 -10)"/><path class="cls-19" d="M296.37,97.14v1.53" transform="translate(-9.82 -10)"/><path class="cls-19" d="M303.13,94.92H301.6" transform="translate(-9.82 -10)"/><path class="cls-19" d="M303.13,90.71H301.6" transform="translate(-9.82 -10)"/><path class="cls-19" d="M295.39,87.47H293.9" transform="translate(-9.82 -10)"/><path class="cls-19" d="M303.09,96.3H301.6" transform="translate(-9.82 -10)"/><path class="cls-19" d="M303.09,89.29H301.6" transform="translate(-9.82 -10)"/><path class="cls-19" d="M303.13,88.09v-1.6H301.6" transform="translate(-9.82 -10)"/><path class="cls-19" d="M303.09,97.72H301.6" transform="translate(-9.82 -10)"/><path class="cls-19" d="M295.39,83.25H293.9" transform="translate(-9.82 -10)"/><path class="cls-19" d="M295.39,94.45H293.9" transform="translate(-9.82 -10)"/><path class="cls-19" d="M303.09,87.91H301.6" transform="translate(-9.82 -10)"/><path class="cls-19" d="M303.09,82.31H301.6" transform="translate(-9.82 -10)"/><path class="cls-19" d="M303.09,92.12H301.6" transform="translate(-9.82 -10)"/><path class="cls-19" d="M303.09,80.89H301.6" transform="translate(-9.82 -10)"/><path class="cls-19" d="M303.09,85.11H301.6" transform="translate(-9.82 -10)"/><path class="cls-19" d="M303.09,93.5H301.6" transform="translate(-9.82 -10)"/><path class="cls-19" d="M295.35,88.85H293.9" transform="translate(-9.82 -10)"/><path class="cls-19" d="M295.35,81.84H293.9" transform="translate(-9.82 -10)"/><path class="cls-19" d="M295.35,95.87H293.9" transform="translate(-9.82 -10)"/><path class="cls-19" d="M295.35,90.27H293.9" transform="translate(-9.82 -10)"/><path class="cls-19" d="M295.35,80.46H293.9" transform="translate(-9.82 -10)"/><path class="cls-19" d="M295.35,86.05H293.9" transform="translate(-9.82 -10)"/><path class="cls-19" d="M295.39,90.09v1.56H293.9" transform="translate(-9.82 -10)"/><path class="cls-19" d="M291,97.76h.29a.18.18,0,0,0,0-.36H291v.69" transform="translate(-9.82 -10)"/><path class="cls-19" d="M295.35,97.25H293.9" transform="translate(-9.82 -10)"/><path class="cls-19" d="M295.35,93.07H293.9" transform="translate(-9.82 -10)"/><path class="cls-19" d="M295.35,84.67H293.9" transform="translate(-9.82 -10)"/><path class="cls-19" d="M291.39,88.63,292,88l0,0v9.09" transform="translate(-9.82 -10)"/><path class="cls-19" d="M297.82,77.42l-.82-.49-.47-.27" transform="translate(-9.82 -10)"/><path class="cls-19" d="M295.39,94.63v1.6" transform="translate(-9.82 -10)"/><path class="cls-19" d="M303.13,81.91v1.64" transform="translate(-9.82 -10)"/><path class="cls-19" d="M295.39,83.51v1.64" transform="translate(-9.82 -10)"/><path class="cls-19" d="M303.13,83.95v1.6" transform="translate(-9.82 -10)"/><path class="cls-19" d="M295.39,92.6v1.64" transform="translate(-9.82 -10)"/><path class="cls-19" d="M303.13,91v1.64" transform="translate(-9.82 -10)"/><path class="cls-19" d="M303.13,93v1.6" transform="translate(-9.82 -10)"/><path class="cls-19" d="M295.39,85.54v1.6" transform="translate(-9.82 -10)"/><path class="cls-19" d="M293,90.27h-1.6" transform="translate(-9.82 -10)"/><path class="cls-19" d="M293,95.87h-1.6" transform="translate(-9.82 -10)"/><path class="cls-19" d="M293,94.45h-1.6" transform="translate(-9.82 -10)"/><path class="cls-19" d="M293,91.65h-1.6" transform="translate(-9.82 -10)"/><path class="cls-19" d="M293,88.85h-1.6" transform="translate(-9.82 -10)"/><path class="cls-19" d="M293,93.07h-1.6" transform="translate(-9.82 -10)"/><path class="cls-19" d="M303.13,95.54v1.64" transform="translate(-9.82 -10)"/><path class="cls-19" d="M295.39,81v1.6" transform="translate(-9.82 -10)"/><path class="cls-19" d="M295.39,88.05v1.64" transform="translate(-9.82 -10)"/><path class="cls-19" d="M303.13,88.49v1.6" transform="translate(-9.82 -10)"/><path class="cls-19" d="M292.08,88.05l.58.58" transform="translate(-9.82 -10)"/><path class="cls-20" d="M66.61,227.08v5.42l2.59.46.11.6" transform="translate(-9.82 -10)"/><path class="cls-20" d="M65.3,227h6.91" transform="translate(-9.82 -10)"/><path class="cls-20" d="M65.67,239h6.54" transform="translate(-9.82 -10)"/><path class="cls-20" d="M66.73,239v-5.51H65.45" transform="translate(-9.82 -10)"/><path class="cls-20" d="M69.61,233.56l.1.7.6.12,1,.16.89.16,0,0" transform="translate(-9.82 -10)"/><path class="cls-20" d="M70,232.48l.13.65,2,.36" transform="translate(-9.82 -10)"/><path class="cls-20" d="M66.77,233.74l.66.1.81.15.41.06a.17.17,0,0,1,.16.17,4.63,4.63,0,0,0,.1.53" transform="translate(-9.82 -10)"/><path class="cls-20" d="M51.18,233.46H50.12v1.31" transform="translate(-9.82 -10)"/><path class="cls-20" d="M51.06,227h-.94v1.31" transform="translate(-9.82 -10)"/><path class="cls-20" d="M52.12,229.14v1.41" transform="translate(-9.82 -10)"/><path class="cls-20" d="M55.88,237.28v1.41" transform="translate(-9.82 -10)"/><path class="cls-20" d="M55.75,229.14v1.41" transform="translate(-9.82 -10)"/><path class="cls-20" d="M61.79,229.14v1.41" transform="translate(-9.82 -10)"/><path class="cls-20" d="M56.1,239H57.5" transform="translate(-9.82 -10)"/><path class="cls-20" d="M56.1,232.62H57.5" transform="translate(-9.82 -10)"/><path class="cls-20" d="M57,229.14v1.41" transform="translate(-9.82 -10)"/><path class="cls-20" d="M65.42,229.14v1.41" transform="translate(-9.82 -10)"/><path class="cls-20" d="M64.33,237.28v1.41" transform="translate(-9.82 -10)"/><path class="cls-20" d="M52.19,239h1.41" transform="translate(-9.82 -10)"/><path class="cls-20" d="M52.19,232.62h1.41" transform="translate(-9.82 -10)"/><path class="cls-20" d="M52.28,237.28v1.41" transform="translate(-9.82 -10)"/><path class="cls-20" d="M61.92,237.28v1.41" transform="translate(-9.82 -10)"/><path class="cls-20" d="M64.2,229.14v1.41" transform="translate(-9.82 -10)"/><path class="cls-20" d="M63,229.14v1.41" transform="translate(-9.82 -10)"/><path class="cls-20" d="M54.69,237.28v1.41" transform="translate(-9.82 -10)"/><path class="cls-20" d="M63.14,237.28v1.41" transform="translate(-9.82 -10)"/><path class="cls-20" d="M54.56,229.14v1.41" transform="translate(-9.82 -10)"/><path class="cls-20" d="M53.34,229.14v1.41" transform="translate(-9.82 -10)"/><path class="cls-20" d="M53.47,237.28v1.41" transform="translate(-9.82 -10)"/><path class="cls-20" d="M50.12,237.28v1.41" transform="translate(-9.82 -10)"/><path class="cls-20" d="M59.51,237.28v1.41" transform="translate(-9.82 -10)"/><path class="cls-20" d="M59.38,229.14v1.41" transform="translate(-9.82 -10)"/><path class="cls-20" d="M50.12,229.14v1.41" transform="translate(-9.82 -10)"/><path class="cls-20" d="M58.29,237.28v1.41" transform="translate(-9.82 -10)"/><path class="cls-20" d="M60.57,229.14v1.41" transform="translate(-9.82 -10)"/><path class="cls-20" d="M50.93,229.14v1.41" transform="translate(-9.82 -10)"/><path class="cls-20" d="M58.16,229.14v1.41" transform="translate(-9.82 -10)"/><path class="cls-20" d="M51.06,237.28v1.41" transform="translate(-9.82 -10)"/><path class="cls-20" d="M61.76,232.62h1.41" transform="translate(-9.82 -10)"/><path class="cls-20" d="M60.7,237.28v1.41" transform="translate(-9.82 -10)"/><path class="cls-20" d="M61.76,239h1.41" transform="translate(-9.82 -10)"/><path class="cls-20" d="M57.1,237.28v1.41" transform="translate(-9.82 -10)"/><path class="cls-20" d="M65.55,237.28v1.41" transform="translate(-9.82 -10)"/><path class="cls-20" d="M53.94,239h1.38" transform="translate(-9.82 -10)"/><path class="cls-20" d="M53.94,232.62h1.38" transform="translate(-9.82 -10)"/><path class="cls-20" d="M54.56,230.9v1.38" transform="translate(-9.82 -10)"/><path class="cls-20" d="M61.79,230.9v1.38" transform="translate(-9.82 -10)"/><path class="cls-20" d="M59.38,230.9v1.38" transform="translate(-9.82 -10)"/><path class="cls-20" d="M60,239h1.38" transform="translate(-9.82 -10)"/><path class="cls-20" d="M63,230.9v1.38" transform="translate(-9.82 -10)"/><path class="cls-20" d="M60,232.62h1.38" transform="translate(-9.82 -10)"/><path class="cls-20" d="M60.57,230.9v1.38" transform="translate(-9.82 -10)"/><path class="cls-20" d="M55.75,230.9v1.38" transform="translate(-9.82 -10)"/><path class="cls-20" d="M57,230.9v1.38" transform="translate(-9.82 -10)"/><path class="cls-20" d="M57.85,239h1.38" transform="translate(-9.82 -10)"/><path class="cls-20" d="M57.85,232.62h1.38" transform="translate(-9.82 -10)"/><path class="cls-20" d="M58.16,230.9v1.38" transform="translate(-9.82 -10)"/><path class="cls-20" d="M65.42,230.9v1.38" transform="translate(-9.82 -10)"/><path class="cls-20" d="M50.93,230.9v1.38" transform="translate(-9.82 -10)"/><path class="cls-20" d="M64.2,230.9v1.38" transform="translate(-9.82 -10)"/><path class="cls-20" d="M52.12,230.9v1.38" transform="translate(-9.82 -10)"/><path class="cls-20" d="M63.95,232.62h1.38" transform="translate(-9.82 -10)"/><path class="cls-20" d="M63.95,239h1.38" transform="translate(-9.82 -10)"/><path class="cls-20" d="M53.34,230.9v1.38" transform="translate(-9.82 -10)"/><path class="cls-20" d="M64.33,235.56v1.38" transform="translate(-9.82 -10)"/><path class="cls-20" d="M50.12,230.9v1.38" transform="translate(-9.82 -10)"/><path class="cls-20" d="M65.55,235.56v1.38" transform="translate(-9.82 -10)"/><path class="cls-20" d="M53.34,227v1.31" transform="translate(-9.82 -10)"/><path class="cls-20" d="M57.1,233.46v1.31" transform="translate(-9.82 -10)"/><path class="cls-20" d="M63,227v1.31" transform="translate(-9.82 -10)"/><path class="cls-20" d="M53.47,233.46v1.31" transform="translate(-9.82 -10)"/><path class="cls-20" d="M63.14,233.46v1.31" transform="translate(-9.82 -10)"/><path class="cls-20" d="M57,227v1.31" transform="translate(-9.82 -10)"/><path class="cls-20" d="M50.12,232.62H51.4" transform="translate(-9.82 -10)"/><path class="cls-20" d="M61.79,227.08v1.28" transform="translate(-9.82 -10)"/><path class="cls-20" d="M55.88,233.49v1.28" transform="translate(-9.82 -10)"/><path class="cls-20" d="M64.33,233.49v1.28" transform="translate(-9.82 -10)"/><path class="cls-20" d="M55.75,227.08v1.28" transform="translate(-9.82 -10)"/><path class="cls-20" d="M58.16,227.08v1.28" transform="translate(-9.82 -10)"/><path class="cls-20" d="M59.23,227h1.35v1.31" transform="translate(-9.82 -10)"/><path class="cls-20" d="M65.42,227.08v1.28" transform="translate(-9.82 -10)"/><path class="cls-20" d="M51.06,233.49v1.28" transform="translate(-9.82 -10)"/><path class="cls-20" d="M50.93,227.08v1.28" transform="translate(-9.82 -10)"/><path class="cls-20" d="M59.35,233.46H60.7v1.31" transform="translate(-9.82 -10)"/><path class="cls-20" d="M65.55,233.49v1.28" transform="translate(-9.82 -10)"/><path class="cls-20" d="M59.38,227.08v1.28" transform="translate(-9.82 -10)"/><path class="cls-20" d="M59.51,233.49v1.28" transform="translate(-9.82 -10)"/><path class="cls-20" d="M54.56,227.08v1.28" transform="translate(-9.82 -10)"/><path class="cls-20" d="M52.28,233.49v1.28" transform="translate(-9.82 -10)"/><path class="cls-20" d="M54.69,233.49v1.28" transform="translate(-9.82 -10)"/><path class="cls-20" d="M61.92,233.49v1.28" transform="translate(-9.82 -10)"/><path class="cls-20" d="M58.29,233.49v1.28" transform="translate(-9.82 -10)"/><path class="cls-20" d="M50.12,239H51.4" transform="translate(-9.82 -10)"/><path class="cls-20" d="M52.12,227.08v1.28" transform="translate(-9.82 -10)"/><path class="cls-20" d="M64.2,227.08v1.28" transform="translate(-9.82 -10)"/><path class="cls-20" d="M51.06,236.12v.11" transform="translate(-9.82 -10)"/><path class="cls-20" d="M51.06,236.37v.33" transform="translate(-9.82 -10)"/><path class="cls-20" d="M51.06,236.81v.13" transform="translate(-9.82 -10)"/><path class="cls-20" d="M51.29,236.36H63.41l-.28.31v.29" transform="translate(-9.82 -10)"/><path class="cls-20" d="M69.6,233.62l-.42.7-.23.41" transform="translate(-9.82 -10)"/><path class="cls-20" d="M69.38,233.57l.63-1.06" transform="translate(-9.82 -10)"/><path class="cls-20" d="M63.14,227h1.38" transform="translate(-9.82 -10)"/><path class="cls-20" d="M63.26,233.46h1.41" transform="translate(-9.82 -10)"/><path class="cls-20" d="M53.56,227H55" transform="translate(-9.82 -10)"/><path class="cls-20" d="M53.69,233.46H55.1" transform="translate(-9.82 -10)"/><path class="cls-20" d="M61.38,227h1.41" transform="translate(-9.82 -10)"/><path class="cls-20" d="M61.51,233.46h1.41" transform="translate(-9.82 -10)"/><path class="cls-20" d="M55.44,233.46h1.38" transform="translate(-9.82 -10)"/><path class="cls-20" d="M55.31,227h1.38" transform="translate(-9.82 -10)"/><path class="cls-20" d="M65.67,232.62h.91" transform="translate(-9.82 -10)"/><path class="cls-20" d="M59.51,235.56v1.38" transform="translate(-9.82 -10)"/><path class="cls-20" d="M50.12,236.93v-1.38" transform="translate(-9.82 -10)"/><path class="cls-20" d="M53.47,235.56v1.38" transform="translate(-9.82 -10)"/><path class="cls-20" d="M54.69,235.56v1.38" transform="translate(-9.82 -10)"/><path class="cls-20" d="M61.92,235.56v1.38" transform="translate(-9.82 -10)"/><path class="cls-20" d="M52.28,235.56v1.38" transform="translate(-9.82 -10)"/><path class="cls-20" d="M58.29,235.56v1.38" transform="translate(-9.82 -10)"/><path class="cls-20" d="M55.88,235.56v1.38" transform="translate(-9.82 -10)"/><path class="cls-20" d="M57.1,235.56v1.38" transform="translate(-9.82 -10)"/><path class="cls-20" d="M60.7,235.56v1.38" transform="translate(-9.82 -10)"/><path class="cls-20" d="M51.53,233.46h1.38" transform="translate(-9.82 -10)"/><path class="cls-20" d="M51.4,227h1.38" transform="translate(-9.82 -10)"/><path class="cls-20" d="M57.6,233.46H59" transform="translate(-9.82 -10)"/><path class="cls-20" d="M57.47,227h1.41" transform="translate(-9.82 -10)"/><path class="cls-20" d="M50.15,236.34l.53,0" transform="translate(-9.82 -10)"/><path class="cls-20" d="M63.14,236v-.48" transform="translate(-9.82 -10)"/><path class="cls-20" d="M62.85,235.81l.5.5" transform="translate(-9.82 -10)"/><path class="cls-20" d="M62.85,236.9l.27-.22" transform="translate(-9.82 -10)"/><path class="cls-20" d="M63.14,236.61l0-.48" transform="translate(-9.82 -10)"/><path class="cls-20" d="M52.12,228.71v.09" transform="translate(-9.82 -10)"/><path class="cls-20" d="M60.57,228.71v.09" transform="translate(-9.82 -10)"/><path class="cls-20" d="M58.16,228.71v.09" transform="translate(-9.82 -10)"/><path class="cls-20" d="M64.2,228.71v.09" transform="translate(-9.82 -10)"/><path class="cls-20" d="M53.12,227h.09" transform="translate(-9.82 -10)"/><path class="cls-20" d="M53.25,233.46h.09" transform="translate(-9.82 -10)"/><path class="cls-20" d="M51.75,232.62h.09" transform="translate(-9.82 -10)"/><path class="cls-20" d="M51.75,239h.09" transform="translate(-9.82 -10)"/><path class="cls-20" d="M65.42,228.71v.09" transform="translate(-9.82 -10)"/><path class="cls-20" d="M51.06,235.56l0,.09" transform="translate(-9.82 -10)"/><path class="cls-20" d="M50.93,228.71v.09" transform="translate(-9.82 -10)"/><path class="cls-20" d="M59.38,228.71v.09" transform="translate(-9.82 -10)"/><path class="cls-20" d="M50.12,228.71v.09" transform="translate(-9.82 -10)"/><path class="cls-20" d="M54.56,228.71v.09" transform="translate(-9.82 -10)"/><path class="cls-20" d="M60.95,227H61" transform="translate(-9.82 -10)"/><path class="cls-20" d="M63,228.71v.09" transform="translate(-9.82 -10)"/><path class="cls-20" d="M57,227h.09" transform="translate(-9.82 -10)"/><path class="cls-20" d="M57,228.71v.09" transform="translate(-9.82 -10)"/><path class="cls-20" d="M61.79,228.71v.09" transform="translate(-9.82 -10)"/><path class="cls-20" d="M55.75,228.71v.09" transform="translate(-9.82 -10)"/><path class="cls-20" d="M53.34,228.71v.09" transform="translate(-9.82 -10)"/><path class="cls-20" d="M50.12,235.12v.06" transform="translate(-9.82 -10)"/><path class="cls-20" d="M55.88,235.12v.06" transform="translate(-9.82 -10)"/><path class="cls-20" d="M54.69,235.12v.06" transform="translate(-9.82 -10)"/><path class="cls-20" d="M55.69,232.62h.06" transform="translate(-9.82 -10)"/><path class="cls-20" d="M65.55,235.12v.06" transform="translate(-9.82 -10)"/><path class="cls-20" d="M51.06,235.12v.06" transform="translate(-9.82 -10)"/><path class="cls-20" d="M61.92,235.12v.06" transform="translate(-9.82 -10)"/><path class="cls-20" d="M61.1,233.46h.06" transform="translate(-9.82 -10)"/><path class="cls-20" d="M59.51,235.12v.06" transform="translate(-9.82 -10)"/><path class="cls-20" d="M55.69,239h.06" transform="translate(-9.82 -10)"/><path class="cls-20" d="M63.51,232.62h.06" transform="translate(-9.82 -10)"/><path class="cls-20" d="M63.51,239h.06" transform="translate(-9.82 -10)"/><path class="cls-20" d="M52.28,235.12v.06" transform="translate(-9.82 -10)"/><path class="cls-20" d="M60.7,235.12v.06" transform="translate(-9.82 -10)"/><path class="cls-20" d="M57.19,233.46h.06" transform="translate(-9.82 -10)"/><path class="cls-20" d="M58.29,235.12v.06" transform="translate(-9.82 -10)"/><path class="cls-20" d="M53.47,235.12v.06" transform="translate(-9.82 -10)"/><path class="cls-20" d="M64.33,235.12v.06" transform="translate(-9.82 -10)"/><path class="cls-20" d="M63.14,235.12v.06" transform="translate(-9.82 -10)"/><path class="cls-20" d="M59.6,232.62h.06" transform="translate(-9.82 -10)"/><path class="cls-20" d="M64.89,227H65" transform="translate(-9.82 -10)"/><path class="cls-20" d="M65,233.46h.06" transform="translate(-9.82 -10)"/><path class="cls-20" d="M57.1,235.12v.06" transform="translate(-9.82 -10)"/><path class="cls-20" d="M59.6,239h.06" transform="translate(-9.82 -10)"/><path class="cls-19" d="M154.61,180.68H153v21.26" transform="translate(-9.82 -10)"/><path class="cls-19" d="M160.4,178.58h.77v22.86" transform="translate(-9.82 -10)"/><path class="cls-19" d="M157.46,178.09V165.44" transform="translate(-9.82 -10)"/><path class="cls-19" d="M157.46,210.35V200l0,0-1.32,3" transform="translate(-9.82 -10)"/><path class="cls-19" d="M159.43,199.85h-4.71" transform="translate(-9.82 -10)"/><path class="cls-19" d="M159.43,165.14h-4.71" transform="translate(-9.82 -10)"/><path class="cls-19" d="M154.61,165.14H153v2.09" transform="translate(-9.82 -10)"/><path class="cls-19" d="M154.61,211H153v-1.54h1.61" transform="translate(-9.82 -10)"/><path class="cls-19" d="M161.17,208.91V211h-.77" transform="translate(-9.82 -10)"/><path class="cls-19" d="M157.08,173.11h-.46c-.19,0-.27.12-.27.37s.08.37.27.37h.46" transform="translate(-9.82 -10)"/><path class="cls-19" d="M157.31,169h-1.74" transform="translate(-9.82 -10)"/><path class="cls-19" d="M157.31,170.92h-1.74" transform="translate(-9.82 -10)"/><path class="cls-19" d="M157.31,172.86h-1.74" transform="translate(-9.82 -10)"/><path class="cls-19" d="M157.31,176.69h-1.74" transform="translate(-9.82 -10)"/><path class="cls-19" d="M157.31,178.58h-1.74" transform="translate(-9.82 -10)"/><path class="cls-19" d="M157.31,180.53h-1.74" transform="translate(-9.82 -10)"/><path class="cls-19" d="M157.31,180.68h-1.74" transform="translate(-9.82 -10)"/><path class="cls-19" d="M157.31,203.68h-1.74" transform="translate(-9.82 -10)"/><path class="cls-19" d="M157.31,205.62h-1.74" transform="translate(-9.82 -10)"/><path class="cls-19" d="M157.31,209.46h-1.74" transform="translate(-9.82 -10)"/><path class="cls-19" d="M157.31,211h-1.74" transform="translate(-9.82 -10)"/><path class="cls-19" d="M159.43,180.53h-1.7" transform="translate(-9.82 -10)"/><path class="cls-19" d="M159.43,180.68h-1.7" transform="translate(-9.82 -10)"/><path class="cls-19" d="M159.43,203.68h-1.7" transform="translate(-9.82 -10)"/><path class="cls-19" d="M159.43,205.62h-1.7" transform="translate(-9.82 -10)"/><path class="cls-19" d="M159.43,207.56h-1.7" transform="translate(-9.82 -10)"/><path class="cls-19" d="M159.43,209.46h-1.7" transform="translate(-9.82 -10)"/><path class="cls-19" d="M159.43,211h-1.7" transform="translate(-9.82 -10)"/><path class="cls-19" d="M159.43,178.58h-1.7" transform="translate(-9.82 -10)"/><path class="cls-19" d="M159.43,169h-1.7" transform="translate(-9.82 -10)"/><path class="cls-19" d="M159.43,176.69h-1.7" transform="translate(-9.82 -10)"/><path class="cls-19" d="M159.43,170.92h-1.7" transform="translate(-9.82 -10)"/><path class="cls-19" d="M159.43,174.75h-1.7" transform="translate(-9.82 -10)"/><path class="cls-19" d="M159.43,172.86h-1.7" transform="translate(-9.82 -10)"/><path class="cls-19" d="M154.61,205.62H153" transform="translate(-9.82 -10)"/><path class="cls-19" d="M161.17,165.14h-1.62" transform="translate(-9.82 -10)"/><path class="cls-19" d="M154.61,180.53H153" transform="translate(-9.82 -10)"/><path class="cls-19" d="M154.61,170.92H153" transform="translate(-9.82 -10)"/><path class="cls-19" d="M154.61,178.58H153" transform="translate(-9.82 -10)"/><path class="cls-19" d="M154.61,176.69H153" transform="translate(-9.82 -10)"/><path class="cls-19" d="M154.61,174.75H153v2.19" transform="translate(-9.82 -10)"/><path class="cls-19" d="M154.61,172.86H153" transform="translate(-9.82 -10)"/><path class="cls-19" d="M154.61,201.79H153" transform="translate(-9.82 -10)"/><path class="cls-19" d="M154.61,203.68H153" transform="translate(-9.82 -10)"/><path class="cls-19" d="M154.61,207.56H153" transform="translate(-9.82 -10)"/><path class="cls-19" d="M154.61,169H153" transform="translate(-9.82 -10)"/><path class="cls-19" d="M154.61,199.85H153" transform="translate(-9.82 -10)"/><path class="cls-19" d="M154.61,167.08H153" transform="translate(-9.82 -10)"/><path class="cls-19" d="M161.13,199.85h-1.58" transform="translate(-9.82 -10)"/><path class="cls-19" d="M156.15,208.31c0,.13,0,.27,0,.4s.07.25.19.25.19-.09.19-.25,0-.28,0-.45h-.73" transform="translate(-9.82 -10)"/><path class="cls-19" d="M161.17,205.47v2.19" transform="translate(-9.82 -10)"/><path class="cls-19" d="M157.31,207.56h-1.74" transform="translate(-9.82 -10)"/><path class="cls-19" d="M161.17,168.92v2.19" transform="translate(-9.82 -10)"/><path class="cls-19" d="M153,203.18v2.24" transform="translate(-9.82 -10)"/><path class="cls-19" d="M161.17,172.36v2.24" transform="translate(-9.82 -10)"/><path class="cls-19" d="M158.81,203l-.62-1.39-.68-1.52" transform="translate(-9.82 -10)"/><path class="cls-19" d="M153,168.48v2.24" transform="translate(-9.82 -10)"/><path class="cls-19" d="M156.11,168.38l.62-1.39.68-1.52" transform="translate(-9.82 -10)"/><path class="cls-19" d="M158.81,168.38l-.81-1.84-.48-1.07" transform="translate(-9.82 -10)"/><path class="cls-19" d="M153,173.46v-2.19" transform="translate(-9.82 -10)"/><path class="cls-19" d="M153,208.16V206" transform="translate(-9.82 -10)"/><path class="cls-19" d="M161.17,177.34v-2.19" transform="translate(-9.82 -10)"/><path class="cls-19" d="M159.43,167.08l-1.16,0" transform="translate(-9.82 -10)"/><path class="cls-19" d="M159.43,201.79l-1.12,0" transform="translate(-9.82 -10)"/><path class="cls-19" d="M156.67,174.73l-1.1,0" transform="translate(-9.82 -10)"/><path class="cls-19" d="M156.63,167.08h-1.06" transform="translate(-9.82 -10)"/><path class="cls-19" d="M156.59,201.79h-1" transform="translate(-9.82 -10)"/><path class="cls-19" d="M161.17,166.14v2.24" transform="translate(-9.82 -10)"/><path class="cls-19" d="M161.17,202.68v2.24" transform="translate(-9.82 -10)"/><path class="cls-19" d="M156.54,207.17h-.46c-.19,0-.27.12-.27.37s.08.37.27.37h.46" transform="translate(-9.82 -10)"/><path class="cls-19" d="M153,177.49v2.19" transform="translate(-9.82 -10)"/><path class="cls-19" d="M161.17,174.75h-.77" transform="translate(-9.82 -10)"/><path class="cls-19" d="M161.17,201.79h-.77" transform="translate(-9.82 -10)"/><path class="cls-19" d="M156.69,174.25c0,.12,0,.25,0,.37s.07.27.19.27.18-.1.19-.25,0-.28,0-.45h-.73" transform="translate(-9.82 -10)"/><path class="cls-19" d="M161.13,209.46h-.73" transform="translate(-9.82 -10)"/><path class="cls-19" d="M161.13,207.56h-.73" transform="translate(-9.82 -10)"/><path class="cls-19" d="M161.13,205.62h-.73" transform="translate(-9.82 -10)"/><path class="cls-19" d="M161.13,203.68h-.73" transform="translate(-9.82 -10)"/><path class="cls-19" d="M161.13,180.68h-.73" transform="translate(-9.82 -10)"/><path class="cls-19" d="M161.13,180.53h-.73" transform="translate(-9.82 -10)"/><path class="cls-19" d="M161.13,176.69h-.73" transform="translate(-9.82 -10)"/><path class="cls-19" d="M161.13,172.86h-.73" transform="translate(-9.82 -10)"/><path class="cls-19" d="M161.13,170.92h-.73" transform="translate(-9.82 -10)"/><path class="cls-19" d="M161.13,169h-.73" transform="translate(-9.82 -10)"/><path class="cls-19" d="M161.13,167.08h-.73" transform="translate(-9.82 -10)"/><path class="cls-19" d="M157.31,201.79h-.64" transform="translate(-9.82 -10)"/><path class="cls-19" d="M157.31,167.08h-.6" transform="translate(-9.82 -10)"/><path class="cls-19" d="M158.25,201.79h-.52" transform="translate(-9.82 -10)"/><path class="cls-19" d="M158.22,167.08h-.48" transform="translate(-9.82 -10)"/><path class="cls-19" d="M157.31,174.75l-.23,0" transform="translate(-9.82 -10)"/><path class="cls-19" d="M157,174.78h-.15" transform="translate(-9.82 -10)"/><path class="cls-19" d="M289.23,154.81V161" transform="translate(-9.82 -10)"/><path class="cls-19" d="M312.21,159.7l-.22.59-.16.39h-1" transform="translate(-9.82 -10)"/><path class="cls-19" d="M302,155h-1v.54" transform="translate(-9.82 -10)"/><path class="cls-19" d="M303.74,160.18v.54h-1" transform="translate(-9.82 -10)"/><path class="cls-19" d="M290.33,155h-1v.54" transform="translate(-9.82 -10)"/><path class="cls-19" d="M313.37,157.39c0,.12,0,.23,0,.35a.18.18,0,1,0,.35,0c0-.12,0-.23,0-.35" transform="translate(-9.82 -10)"/><path class="cls-19" d="M310.81,157.65v1.22" transform="translate(-9.82 -10)"/><path class="cls-19" d="M295.58,157.11c0,.11,0,.22,0,.33s.06.19.18.19.17-.06.18-.19,0-.22,0-.33" transform="translate(-9.82 -10)"/><path class="cls-19" d="M303.74,156.8V158" transform="translate(-9.82 -10)"/><path class="cls-19" d="M312.22,155.12v1.22" transform="translate(-9.82 -10)"/><path class="cls-19" d="M289.34,157.7v1.22" transform="translate(-9.82 -10)"/><path class="cls-19" d="M289.34,156.22v1.2" transform="translate(-9.82 -10)"/><path class="cls-19" d="M290.19,156.22v1.2" transform="translate(-9.82 -10)"/><path class="cls-19" d="M291.08,156.22v1.2" transform="translate(-9.82 -10)"/><path class="cls-19" d="M292,156.22v1.2" transform="translate(-9.82 -10)"/><path class="cls-19" d="M292.88,156.22v1.2" transform="translate(-9.82 -10)"/><path class="cls-19" d="M293.8,156.22v1.2" transform="translate(-9.82 -10)"/><path class="cls-19" d="M294.69,156.22v1.2" transform="translate(-9.82 -10)"/><path class="cls-19" d="M296.49,156.22v1.2" transform="translate(-9.82 -10)"/><path class="cls-19" d="M297.41,156.22v1.2" transform="translate(-9.82 -10)"/><path class="cls-19" d="M298.32,156.22v1.2" transform="translate(-9.82 -10)"/><path class="cls-19" d="M299.21,156.22v1.2" transform="translate(-9.82 -10)"/><path class="cls-19" d="M300.13,156.22v1.2" transform="translate(-9.82 -10)"/><path class="cls-19" d="M301,156.22v1.2" transform="translate(-9.82 -10)"/><path class="cls-19" d="M302.82,156.22v1.2" transform="translate(-9.82 -10)"/><path class="cls-19" d="M312.22,156.62v1.18" transform="translate(-9.82 -10)"/><path class="cls-19" d="M311.33,156.17v1.17" transform="translate(-9.82 -10)"/><path class="cls-19" d="M310.81,156.17v1.17" transform="translate(-9.82 -10)"/><path class="cls-19" d="M303.74,158.33v1.17" transform="translate(-9.82 -10)"/><path class="cls-19" d="M303.74,155v1.15" transform="translate(-9.82 -10)"/><path class="cls-19" d="M310.81,159.52v1.15" transform="translate(-9.82 -10)"/><path class="cls-19" d="M311.33,159.52v1.14" transform="translate(-9.82 -10)"/><path class="cls-19" d="M301,159.59v1.13" transform="translate(-9.82 -10)"/><path class="cls-19" d="M293.8,159.59v1.13" transform="translate(-9.82 -10)"/><path class="cls-19" d="M296.49,159.59v1.13" transform="translate(-9.82 -10)"/><path class="cls-19" d="M289.34,159.59v1.13" transform="translate(-9.82 -10)"/><path class="cls-19" d="M312.22,158.52v1.13" transform="translate(-9.82 -10)"/><path class="cls-19" d="M292,159.59v1.11" transform="translate(-9.82 -10)"/><path class="cls-19" d="M291.08,159.59v1.11" transform="translate(-9.82 -10)"/><path class="cls-19" d="M290.19,159.59v1.11" transform="translate(-9.82 -10)"/><path class="cls-19" d="M292.88,159.59v1.11" transform="translate(-9.82 -10)"/><path class="cls-19" d="M294.69,159.59v1.11" transform="translate(-9.82 -10)"/><path class="cls-19" d="M295.6,159.59v1.11" transform="translate(-9.82 -10)"/><path class="cls-19" d="M297.41,159.59v1.11" transform="translate(-9.82 -10)"/><path class="cls-19" d="M298.32,159.59v1.11" transform="translate(-9.82 -10)"/><path class="cls-19" d="M299.21,159.59v1.13h-1" transform="translate(-9.82 -10)"/><path class="cls-19" d="M300.13,159.59v1.11" transform="translate(-9.82 -10)"/><path class="cls-19" d="M301.93,159.59v1.11" transform="translate(-9.82 -10)"/><path class="cls-19" d="M302.82,159.59v1.11" transform="translate(-9.82 -10)"/><path class="cls-19" d="M312.88,158l-.16.42-.25.62a.34.34,0,0,0,0,.06" transform="translate(-9.82 -10)"/><path class="cls-19" d="M313.13,156.17c0,.36,0,.72,0,1.08a1.17,1.17,0,0,1-.11.34.8.8,0,0,1-.06.11" transform="translate(-9.82 -10)"/><path class="cls-19" d="M301.93,156.22c0,.32,0,.63,0,.95a1,1,0,0,1,0,.11" transform="translate(-9.82 -10)"/><path class="cls-19" d="M311.77,155h-1v.54" transform="translate(-9.82 -10)"/><path class="cls-19" d="M301,157.7v1.22" transform="translate(-9.82 -10)"/><path class="cls-19" d="M300.13,157.7v1.22" transform="translate(-9.82 -10)"/><path class="cls-19" d="M299.21,157.7v1.22" transform="translate(-9.82 -10)"/><path class="cls-19" d="M298.32,157.7v1.22" transform="translate(-9.82 -10)"/><path class="cls-19" d="M297.41,157.7v1.22" transform="translate(-9.82 -10)"/><path class="cls-19" d="M296.49,157.7v1.22" transform="translate(-9.82 -10)"/><path class="cls-19" d="M295.6,157.7v1.22" transform="translate(-9.82 -10)"/><path class="cls-19" d="M311.33,157.65v1.22" transform="translate(-9.82 -10)"/><path class="cls-19" d="M294.69,157.7v1.22" transform="translate(-9.82 -10)"/><path class="cls-19" d="M293.8,157.7v1.22" transform="translate(-9.82 -10)"/><path class="cls-19" d="M292,157.7v1.22" transform="translate(-9.82 -10)"/><path class="cls-19" d="M302.82,157.7v1.22" transform="translate(-9.82 -10)"/><path class="cls-19" d="M292.88,157.7v1.22" transform="translate(-9.82 -10)"/><path class="cls-19" d="M290.19,157.7v1.22" transform="translate(-9.82 -10)"/><path class="cls-19" d="M291.08,157.7v1.22" transform="translate(-9.82 -10)"/><path class="cls-19" d="M313.67,155H314l-.3.75c0,.09-.06.19-.09.28" transform="translate(-9.82 -10)"/><path class="cls-19" d="M313.91,157.67h.16c.09,0,.14,0,.14-.13a.14.14,0,0,0-.14-.14h-.19v.53" transform="translate(-9.82 -10)"/><path class="cls-19" d="M296.13,157.38h.16a.13.13,0,0,0,.13-.14.12.12,0,0,0-.13-.13h-.2v.52" transform="translate(-9.82 -10)"/><path class="cls-19" d="M302.75,157.86h-13" transform="translate(-9.82 -10)"/><path class="cls-19" d="M291,160.72h1" transform="translate(-9.82 -10)"/><path class="cls-19" d="M295.6,156.22v.87" transform="translate(-9.82 -10)"/><path class="cls-19" d="M312.95,157.81H311" transform="translate(-9.82 -10)"/><path class="cls-19" d="M290.91,155h1" transform="translate(-9.82 -10)"/><path class="cls-19" d="M302.63,155h1.05" transform="translate(-9.82 -10)"/><path class="cls-19" d="M294.9,155h-1.05" transform="translate(-9.82 -10)"/><path class="cls-19" d="M302.16,160.72h-1" transform="translate(-9.82 -10)"/><path class="cls-19" d="M290.45,160.72h-1.05" transform="translate(-9.82 -10)"/><path class="cls-19" d="M298.09,155h1" transform="translate(-9.82 -10)"/><path class="cls-19" d="M313.42,155h-1.05" transform="translate(-9.82 -10)"/><path class="cls-19" d="M299.82,160.72h1.05" transform="translate(-9.82 -10)"/><path class="cls-19" d="M295,160.72h-1" transform="translate(-9.82 -10)"/><path class="cls-19" d="M295.27,160.72h1" transform="translate(-9.82 -10)"/><path class="cls-19" d="M293.26,155h-1" transform="translate(-9.82 -10)"/><path class="cls-19" d="M308.75,154.81v.12h.69v-.12" transform="translate(-9.82 -10)"/><path class="cls-19" d="M313.39,156.59l-.16.49-.06.15" transform="translate(-9.82 -10)"/><path class="cls-19" d="M297.83,155h-1.05" transform="translate(-9.82 -10)"/><path class="cls-19" d="M299.7,155h1.05" transform="translate(-9.82 -10)"/><path class="cls-19" d="M295.16,155h1" transform="translate(-9.82 -10)"/><path class="cls-19" d="M301.93,157.7v.73" transform="translate(-9.82 -10)"/><path class="cls-19" d="M293.38,160.72h-1.05" transform="translate(-9.82 -10)"/><path class="cls-19" d="M301.41,156.92l.64.43" transform="translate(-9.82 -10)"/><path class="cls-19" d="M292,155v.54" transform="translate(-9.82 -10)"/><path class="cls-19" d="M293.8,155v.54" transform="translate(-9.82 -10)"/><path class="cls-19" d="M299.21,155v.54" transform="translate(-9.82 -10)"/><path class="cls-19" d="M296.89,160.72h1.05" transform="translate(-9.82 -10)"/><path class="cls-19" d="M300.13,155v.52" transform="translate(-9.82 -10)"/><path class="cls-19" d="M298.32,155v.52" transform="translate(-9.82 -10)"/><path class="cls-19" d="M302.82,155v.52" transform="translate(-9.82 -10)"/><path class="cls-19" d="M297.41,155v.52" transform="translate(-9.82 -10)"/><path class="cls-19" d="M301.93,155v.52" transform="translate(-9.82 -10)"/><path class="cls-19" d="M296.45,155s0,0,0,.06,0,.32,0,.48" transform="translate(-9.82 -10)"/><path class="cls-19" d="M295.6,155v.52" transform="translate(-9.82 -10)"/><path class="cls-19" d="M294.69,155v.52" transform="translate(-9.82 -10)"/><path class="cls-19" d="M292.88,155v.52" transform="translate(-9.82 -10)"/><path class="cls-19" d="M291.08,155v.52" transform="translate(-9.82 -10)"/><path class="cls-19" d="M290.19,155v.52" transform="translate(-9.82 -10)"/><path class="cls-19" d="M313.13,155v.52" transform="translate(-9.82 -10)"/><path class="cls-19" d="M311.33,155v.52" transform="translate(-9.82 -10)"/><path class="cls-19" d="M312.52,157.34l.28.33.11.14-.38.46" transform="translate(-9.82 -10)"/><path class="cls-19" d="M302.18,158.29l-.25.14v.48" transform="translate(-9.82 -10)"/><path class="cls-19" d="M298.4,154.81v.13h-.32v-.13" transform="translate(-9.82 -10)"/><path class="cls-19" d="M302.74,157.89l-.28.19" transform="translate(-9.82 -10)"/><path class="cls-19" d="M303.52,154.81v.11l-.34,0v-.13" transform="translate(-9.82 -10)"/><path class="cls-19" d="M301.9,158.48l-.23.14" transform="translate(-9.82 -10)"/><path class="cls-19" d="M302.62,157.73l-.23-.14" transform="translate(-9.82 -10)"/><path class="cls-19" d="M302.11,157.4l.23.14" transform="translate(-9.82 -10)"/><path class="cls-19" d="M301.61,158.67c-.07,0-.17.06-.2.15" transform="translate(-9.82 -10)"/><path class="cls-19" d="M302.41,158.13l-.19.12" transform="translate(-9.82 -10)"/><path class="cls-19" d="M298,154.81V155" transform="translate(-9.82 -10)"/><path class="cls-19" d="M298.49,154.81V155" transform="translate(-9.82 -10)"/><path class="cls-19" d="M298.13,154.81v.12" transform="translate(-9.82 -10)"/><path class="cls-19" d="M301.93,157.31v.11" transform="translate(-9.82 -10)"/><path class="cls-19" d="M313.53,156.24l0,.09" transform="translate(-9.82 -10)"/><path class="cls-19" d="M312.34,159.34l0,.09" transform="translate(-9.82 -10)"/><path class="cls-19" d="M303.74,156.43v.09" transform="translate(-9.82 -10)"/><path class="cls-19" d="M303.74,159.8v.09" transform="translate(-9.82 -10)"/><path class="cls-19" d="M311.33,159.15v.09" transform="translate(-9.82 -10)"/><path class="cls-19" d="M310.81,159.15v.09" transform="translate(-9.82 -10)"/><path class="cls-19" d="M313.13,155.77v.09" transform="translate(-9.82 -10)"/><path class="cls-19" d="M302.74,157.82l-.07,0" transform="translate(-9.82 -10)"/><path class="cls-19" d="M295.7,245.77l1.32.77-.82.14-.55,3h7.48v-8.13" transform="translate(-9.82 -10)"/><path class="cls-19" d="M288.67,241.53v8.13h5.2l.64-3.6.79-.15" transform="translate(-9.82 -10)"/><path class="cls-19" d="M295.43,241.93V243H288.7" transform="translate(-9.82 -10)"/><path class="cls-19" d="M303.09,243h-6.69v-1.09" transform="translate(-9.82 -10)"/><path class="cls-19" d="M296.41,225.4v-1.53h2.29" transform="translate(-9.82 -10)"/><path class="cls-19" d="M303.13,225v-1.09h-2.29" transform="translate(-9.82 -10)"/><path class="cls-19" d="M295.57,245.71l.56-.09.26-.05.45-2.53" transform="translate(-9.82 -10)"/><path class="cls-19" d="M293.9,245.09l.8-.14c.05-.26.1-.52.15-.77s.12-.68.18-1a.75.75,0,0,0,0-.13" transform="translate(-9.82 -10)"/><path class="cls-19" d="M288.67,225v-1.09h1.53" transform="translate(-9.82 -10)"/><path class="cls-19" d="M298.84,223.87h1.85" transform="translate(-9.82 -10)"/><path class="cls-19" d="M301.6,225.14c0-.15,0-.29,0-.44s-.09-.25-.27-.25-.27.08-.27.25,0,.29,0,.44" transform="translate(-9.82 -10)"/><path class="cls-19" d="M295.43,234.48v-1.64" transform="translate(-9.82 -10)"/><path class="cls-19" d="M291.1,237.43h1.64" transform="translate(-9.82 -10)"/><path class="cls-19" d="M300.84,229.47h1.64" transform="translate(-9.82 -10)"/><path class="cls-19" d="M300.84,237.86h1.64" transform="translate(-9.82 -10)"/><path class="cls-19" d="M291.1,229h1.64" transform="translate(-9.82 -10)"/><path class="cls-19" d="M300.84,228.09h1.64" transform="translate(-9.82 -10)"/><path class="cls-19" d="M291.1,238.84h1.64" transform="translate(-9.82 -10)"/><path class="cls-19" d="M295.43,239v-1.64" transform="translate(-9.82 -10)"/><path class="cls-19" d="M300.84,239.28h1.64" transform="translate(-9.82 -10)"/><path class="cls-19" d="M291.1,227.61h1.64" transform="translate(-9.82 -10)"/><path class="cls-19" d="M303.13,227v-1.64" transform="translate(-9.82 -10)"/><path class="cls-19" d="M300.84,226.67h1.64" transform="translate(-9.82 -10)"/><path class="cls-19" d="M291.1,240.22h1.64" transform="translate(-9.82 -10)"/><path class="cls-19" d="M295.43,229.94V228.3" transform="translate(-9.82 -10)"/><path class="cls-19" d="M291.1,230.41h1.64" transform="translate(-9.82 -10)"/><path class="cls-19" d="M300.84,236.48h1.64" transform="translate(-9.82 -10)"/><path class="cls-19" d="M300.84,230.88h1.64" transform="translate(-9.82 -10)"/><path class="cls-19" d="M303.13,236.08v-1.64" transform="translate(-9.82 -10)"/><path class="cls-19" d="M303.13,231.54V229.9" transform="translate(-9.82 -10)"/><path class="cls-19" d="M291.1,236h1.64" transform="translate(-9.82 -10)"/><path class="cls-19" d="M291.1,231.83h1.64" transform="translate(-9.82 -10)"/><path class="cls-19" d="M300.84,235.06h1.64" transform="translate(-9.82 -10)"/><path class="cls-19" d="M300.84,232.27h1.64" transform="translate(-9.82 -10)"/><path class="cls-19" d="M291.1,234.63h1.64" transform="translate(-9.82 -10)"/><path class="cls-19" d="M300.84,233.68h1.64" transform="translate(-9.82 -10)"/><path class="cls-19" d="M291.1,233.25h1.64" transform="translate(-9.82 -10)"/><path class="cls-19" d="M291.1,223.87h1.64" transform="translate(-9.82 -10)"/><path class="cls-19" d="M303.13,240.62V239" transform="translate(-9.82 -10)"/><path class="cls-19" d="M300.84,225.29h1.64" transform="translate(-9.82 -10)"/><path class="cls-19" d="M291.1,226.23h1.64" transform="translate(-9.82 -10)"/><path class="cls-19" d="M291.1,224.81h1.64" transform="translate(-9.82 -10)"/><path class="cls-19" d="M291.1,241.64h1.64" transform="translate(-9.82 -10)"/><path class="cls-19" d="M300.84,242.08h1.64" transform="translate(-9.82 -10)"/><path class="cls-19" d="M300.84,240.7h1.64" transform="translate(-9.82 -10)"/><path class="cls-19" d="M295.43,241.53v-1.6" transform="translate(-9.82 -10)"/><path class="cls-19" d="M293.14,237.43h1.6" transform="translate(-9.82 -10)"/><path class="cls-19" d="M303.13,229.5v-1.6" transform="translate(-9.82 -10)"/><path class="cls-19" d="M295.43,237v-1.6" transform="translate(-9.82 -10)"/><path class="cls-19" d="M293.14,230.41h1.6" transform="translate(-9.82 -10)"/><path class="cls-19" d="M298.84,236.48h1.6" transform="translate(-9.82 -10)"/><path class="cls-19" d="M293.14,241.64h1.6" transform="translate(-9.82 -10)"/><path class="cls-19" d="M293.14,224.81h1.6" transform="translate(-9.82 -10)"/><path class="cls-19" d="M293.14,236h1.6" transform="translate(-9.82 -10)"/><path class="cls-19" d="M298.84,242.08h1.6" transform="translate(-9.82 -10)"/><path class="cls-19" d="M293.14,231.83h1.6" transform="translate(-9.82 -10)"/><path class="cls-19" d="M298.84,235.06h1.6" transform="translate(-9.82 -10)"/><path class="cls-19" d="M295.43,232.45v-1.6" transform="translate(-9.82 -10)"/><path class="cls-19" d="M293.14,234.63h1.6" transform="translate(-9.82 -10)"/><path class="cls-19" d="M293.14,233.25h1.6" transform="translate(-9.82 -10)"/><path class="cls-19" d="M293.14,223.87h1.6" transform="translate(-9.82 -10)"/><path class="cls-19" d="M303.13,234v-1.6" transform="translate(-9.82 -10)"/><path class="cls-19" d="M298.84,240.7h1.6" transform="translate(-9.82 -10)"/><path class="cls-19" d="M295.43,227.9v-1.6" transform="translate(-9.82 -10)"/><path class="cls-19" d="M293.14,238.84h1.6" transform="translate(-9.82 -10)"/><path class="cls-19" d="M303.13,238.59V237" transform="translate(-9.82 -10)"/><path class="cls-19" d="M298.84,239.28h1.6" transform="translate(-9.82 -10)"/><path class="cls-19" d="M293.14,227.61h1.6" transform="translate(-9.82 -10)"/><path class="cls-19" d="M293.14,226.23h1.6" transform="translate(-9.82 -10)"/><path class="cls-19" d="M298.84,225.29h1.6" transform="translate(-9.82 -10)"/><path class="cls-19" d="M298.84,237.86h1.6" transform="translate(-9.82 -10)"/><path class="cls-19" d="M293.14,240.22h1.6" transform="translate(-9.82 -10)"/><path class="cls-19" d="M293.14,229h1.6" transform="translate(-9.82 -10)"/><path class="cls-19" d="M288.67,238.84h1.53" transform="translate(-9.82 -10)"/><path class="cls-19" d="M295.43,225.4v-1.53" transform="translate(-9.82 -10)"/><path class="cls-19" d="M288.67,227.61h1.53" transform="translate(-9.82 -10)"/><path class="cls-19" d="M288.67,231.83h1.53" transform="translate(-9.82 -10)"/><path class="cls-19" d="M296.41,235.06h1.49" transform="translate(-9.82 -10)"/><path class="cls-19" d="M288.7,226.23h1.49" transform="translate(-9.82 -10)"/><path class="cls-19" d="M288.7,233.25h1.49" transform="translate(-9.82 -10)"/><path class="cls-19" d="M288.67,234.45V236h1.53" transform="translate(-9.82 -10)"/><path class="cls-19" d="M288.7,224.81h1.49" transform="translate(-9.82 -10)"/><path class="cls-19" d="M296.41,239.28h1.49" transform="translate(-9.82 -10)"/><path class="cls-19" d="M296.41,228.09h1.49" transform="translate(-9.82 -10)"/><path class="cls-19" d="M288.7,234.63h1.49" transform="translate(-9.82 -10)"/><path class="cls-19" d="M288.7,240.22h1.49" transform="translate(-9.82 -10)"/><path class="cls-19" d="M288.7,230.41h1.49" transform="translate(-9.82 -10)"/><path class="cls-19" d="M288.7,241.64h1.49" transform="translate(-9.82 -10)"/><path class="cls-19" d="M288.7,237.43h1.49" transform="translate(-9.82 -10)"/><path class="cls-19" d="M288.7,229h1.49" transform="translate(-9.82 -10)"/><path class="cls-19" d="M296.44,233.68h1.45" transform="translate(-9.82 -10)"/><path class="cls-19" d="M296.44,240.7h1.45" transform="translate(-9.82 -10)"/><path class="cls-19" d="M296.44,226.67h1.45" transform="translate(-9.82 -10)"/><path class="cls-19" d="M296.44,232.27h1.45" transform="translate(-9.82 -10)"/><path class="cls-19" d="M296.44,242.08h1.45" transform="translate(-9.82 -10)"/><path class="cls-19" d="M296.44,236.48h1.45" transform="translate(-9.82 -10)"/><path class="cls-19" d="M296.41,232.45v-1.56h1.49" transform="translate(-9.82 -10)"/><path class="cls-19" d="M300.77,224.78h-.29a.18.18,0,0,0,0,.36h.33v-.69" transform="translate(-9.82 -10)"/><path class="cls-19" d="M296.44,225.29h1.45" transform="translate(-9.82 -10)"/><path class="cls-19" d="M296.44,229.47h1.45" transform="translate(-9.82 -10)"/><path class="cls-19" d="M296.44,237.86h1.45" transform="translate(-9.82 -10)"/><path class="cls-19" d="M300.4,233.9l-.62.67,0,0v-9.09" transform="translate(-9.82 -10)"/><path class="cls-19" d="M294,245.11l.82.49.47.27" transform="translate(-9.82 -10)"/><path class="cls-19" d="M296.41,227.9v-1.6" transform="translate(-9.82 -10)"/><path class="cls-19" d="M288.67,240.62V239" transform="translate(-9.82 -10)"/><path class="cls-19" d="M296.41,239v-1.64" transform="translate(-9.82 -10)"/><path class="cls-19" d="M288.67,238.59V237" transform="translate(-9.82 -10)"/><path class="cls-19" d="M296.41,229.94V228.3" transform="translate(-9.82 -10)"/><path class="cls-19" d="M288.67,231.54V229.9" transform="translate(-9.82 -10)"/><path class="cls-19" d="M288.67,229.5v-1.6" transform="translate(-9.82 -10)"/><path class="cls-19" d="M296.41,237v-1.6" transform="translate(-9.82 -10)"/><path class="cls-19" d="M298.84,232.27h1.6" transform="translate(-9.82 -10)"/><path class="cls-19" d="M298.84,226.67h1.6" transform="translate(-9.82 -10)"/><path class="cls-19" d="M298.84,228.09h1.6" transform="translate(-9.82 -10)"/><path class="cls-19" d="M298.84,230.88h1.6" transform="translate(-9.82 -10)"/><path class="cls-19" d="M298.84,233.68h1.6" transform="translate(-9.82 -10)"/><path class="cls-19" d="M298.84,229.47h1.6" transform="translate(-9.82 -10)"/><path class="cls-19" d="M288.67,227v-1.64" transform="translate(-9.82 -10)"/><path class="cls-19" d="M296.41,241.53v-1.6" transform="translate(-9.82 -10)"/><path class="cls-19" d="M296.41,234.48v-1.64" transform="translate(-9.82 -10)"/><path class="cls-19" d="M288.67,234v-1.6" transform="translate(-9.82 -10)"/><path class="cls-19" d="M299.71,234.48l-.58-.58" transform="translate(-9.82 -10)"/></g></svg>