<?xml version="1.0" encoding="utf-8"?>
<!-- Generator: Adobe Illustrator 17.1.0, SVG Export Plug-In . SVG Version: 6.00 Build 0)  -->
<!DOCTYPE svg PUBLIC "-//W3C//DTD SVG 1.1//EN" "http://www.w3.org/Graphics/SVG/1.1/DTD/svg11.dtd">
<svg version="1.1" id="Layer_1" xmlns="http://www.w3.org/2000/svg" xmlns:xlink="http://www.w3.org/1999/xlink" x="0px" y="0px"
	 viewBox="0 106.9 1200 428.3" enable-background="new 0 106.9 1200 428.3" xml:space="preserve">
<polygon fill="#FFFFFF" points="29,187.7 87.1,129.8 1178.7,129.8 1178.7,451.2 1120.5,509.3 29,509.3 "/>
<polygon fill="#00467F" points="443.5,380.6 446.8,380.6 446.8,357.4 455,357.4 455,354 435.1,354 435.1,357.4 443.5,357.4 "/>
<path fill="#00467F" d="M460.9,362.6c-4.3,0-7.4,3.6-7.4,8.9c0,4.8,2.6,9.3,7.7,9.3c2.6,0,4.3-0.7,6.2-2.2v-3.1
	c-1.9,1.4-3.6,2.2-5.5,2.2c-3.1,0-4.8-1.9-5.3-5.3h11C467.9,366,465.3,362.6,460.9,362.6z M456.9,370c0.5-2.9,1.9-4.3,4.3-4.3
	c2.2,0,3.6,1.7,3.6,4.3H456.9z"/>
<polygon fill="#00467F" points="497.8,354 494.7,354 488,372.2 481.5,354 477.9,354 487.8,380.8 488.5,380.8 496.4,359 504,380.8
	504.7,380.8 514.3,354 511,354 504.5,372.2 "/>
<path fill="#00467F" d="M531.6,380.6v-10.8c0-4.8-2.4-7.2-5.3-7.2c-1.7,0-3.6,1-4.8,2.6l0,0V354h-3.1v26.6h3.1v-12.4
	c1.4-1.9,2.6-2.6,3.8-2.6c1.9,0,3.1,1.7,3.1,4.3v10.8L531.6,380.6L531.6,380.6z"/>
<path fill="#00467F" d="M541.8,371c-2.6,1-5.3,2.2-5.3,5.5c0,2.2,1.4,4.3,3.8,4.3c1.4,0,2.9-0.5,4.3-1.7c0.2,1.2,1,1.7,2.4,1.7
	c1,0,1.7-0.2,3.1-1.4v-2.2c-0.7,0.5-1.4,1-1.7,1c-0.5,0-0.5-0.2-0.5-1v-8.9c0-4.1-2.6-5.7-5.7-5.7c-2.2,0-4.1,0.7-5.3,2.4v3.8
	c1.4-1.9,3.4-2.9,5-2.9c1.9,0,2.9,1,2.9,3.1v1L541.8,371z M544.7,377c-1,1-1.7,1.4-2.6,1.4c-1.2,0-2.2-1-2.2-2.4
	c0-2.2,2.4-3.1,5-4.1v5H544.7z"/>
<path fill="#00467F" d="M554.8,363.1v17.5h3.1v-9.1c0-3.1,1.7-5.3,3.8-5.3c0.7,0,1.9,0.7,2.9,1.7l1.7-2.9c-1.2-1.4-2.4-1.9-3.8-1.9
	s-2.9,1.2-4.5,4.3l0,0v-4.1h-3.1V363.1z"/>
<path fill="#00467F" d="M576.3,362.6c-4.3,0-7.4,3.6-7.4,8.9c0,4.8,2.6,9.3,7.7,9.3c2.6,0,4.3-0.7,6.2-2.2v-3.1
	c-1.9,1.4-3.6,2.2-5.5,2.2c-3.1,0-4.8-1.9-5.3-5.3h11C583,366,580.4,362.6,576.3,362.6z M572,370c0.5-2.9,1.9-4.3,4.3-4.3
	c2.2,0,3.6,1.7,3.6,4.3H572z"/>
<polygon fill="#00467F" points="613.2,354 609.8,354 603.4,372.2 596.6,354 593.3,354 602.9,380.8 603.6,380.8 611.5,359
	619.4,380.8 619.9,380.8 629.7,354 626.3,354 619.6,372.2 "/>
<path fill="#00467F" d="M635.7,371c-2.6,1-5.3,2.2-5.3,5.5c0,2.2,1.4,4.3,3.8,4.3c1.4,0,2.9-0.5,4.3-1.7c0.2,1.2,1,1.7,2.4,1.7
	c1,0,1.7-0.2,3.1-1.4v-2.2c-0.7,0.5-1.4,1-1.7,1c-0.5,0-0.5-0.2-0.5-1v-8.9c0-4.1-2.6-5.7-5.7-5.7c-2.4,0-4.1,0.7-5.3,2.4v3.8
	c1.4-1.9,3.4-2.9,5-2.9c1.9,0,2.9,1,2.9,3.1v1L635.7,371z M638.5,377c-1,1-1.7,1.4-2.6,1.4c-1.2,0-2.2-1-2.2-2.4
	c0-2.2,2.4-3.1,5-4.1v5H638.5z"/>
<path fill="#00467F" d="M661.5,380.6v-10.8c0-4.8-2.4-6.9-5.3-6.9c-1.7,0-3.6,1-4.8,2.6l0,0v-2.4h-3.1v17.5h3.1v-12.4
	c1.4-1.9,2.6-2.6,3.8-2.6c1.9,0,3.1,1.7,3.1,4.3v10.8L661.5,380.6L661.5,380.6z"/>
<path fill="#00467F" d="M671.8,371c-2.4,1-5.3,2.2-5.3,5.5c0,2.2,1.4,4.3,3.8,4.3c1.4,0,2.9-0.5,4.3-1.7c0.2,1.2,1,1.7,2.4,1.7
	c1,0,1.7-0.2,3.1-1.4v-2.2c-0.7,0.5-1.4,1-1.7,1c-0.5,0-0.5-0.2-0.5-1v-8.9c0-4.1-2.6-5.7-5.7-5.7c-2.4,0-4.1,0.7-5.3,2.4v3.8
	c1.4-1.9,3.4-2.9,5-2.9c1.9,0,2.9,1,2.9,3.1v1L671.8,371z M674.7,377c-0.7,1-1.7,1.4-2.6,1.4c-1.2,0-2.2-1-2.2-2.4
	c0-2.2,2.4-3.1,5-4.1v5H674.7z"/>
<path fill="#00467F" d="M697.6,380.6v-10.8c0-4.8-2.4-6.9-5.3-6.9c-1.7,0-3.6,1-4.8,2.6l0,0v-2.4h-3.1v17.5h3.1v-12.4
	c1.4-1.9,2.6-2.6,3.8-2.6c1.9,0,3.1,1.7,3.1,4.3v10.8L697.6,380.6L697.6,380.6z"/>
<path fill="#00467F" d="M716.3,363.1h-6.5c-4.3,0-6.9,2.4-6.9,6c0,1.2,0.2,2.4,0.7,3.4c0.5,1,1.4,1.7,2.6,2.2l0,0
	c-1.4,0.5-2.4,1.4-2.4,2.4c0,0.7,0.5,1.4,1.7,2.2c-2.6,0.7-4.1,2.2-4.1,4.8c0,3.1,3.1,5.3,7.2,5.3c4.5,0,7.4-2.2,7.4-5.5
	c0-2.2-1.2-4.1-4.5-4.8c-3.1-0.7-4.8-1.2-4.8-2.2c0-2.2,4.3-0.7,6.5-3.4c0.7-0.7,1.4-2.4,1.4-3.8s-0.5-2.4-1.7-3.8h3.1v-2.6H716.3z
	 M708.2,381.3c1.9,0,5,0.5,5,2.9c0,1.7-1.7,2.6-4.3,2.6c-2.9,0-4.3-1-4.3-2.6C704.6,382.5,706,381.3,708.2,381.3z M708.9,372.4
	c-1.9,0-3.1-1.2-3.1-3.1c0-1.7,1.4-3.1,3.1-3.1c1.7,0,3.1,1.4,3.1,3.1C712,371,710.8,372.4,708.9,372.4z"/>
<path fill="#00467F" d="M724.7,371c-2.6,1-5.3,2.2-5.3,5.5c0,2.2,1.4,4.3,3.8,4.3c1.4,0,2.9-0.5,4.3-1.7c0.2,1.2,1,1.7,2.4,1.7
	c1,0,1.7-0.2,3.1-1.4v-2.2c-0.7,0.5-1.4,1-1.7,1c-0.5,0-0.5-0.2-0.5-1v-8.9c0-4.1-2.6-5.7-5.7-5.7c-2.2,0-4.1,0.7-5.3,2.4v3.8
	c1.4-1.9,3.4-2.9,5-2.9c1.9,0,2.9,1,2.9,3.1v1L724.7,371z M727.6,377c-0.7,1-1.7,1.4-2.6,1.4c-1.2,0-2.2-1-2.2-2.4
	c0-2.2,2.4-3.1,5-4.1v5H727.6z"/>
<path fill="#00467F" d="M756.3,380.8c5,0,8.4-3.8,8.4-9.3c0-5.3-3.6-8.9-8.4-8.9c-4.8,0-8.4,3.8-8.4,8.9
	C748.1,377,751.5,380.8,756.3,380.8z M756.3,365.7c3.1,0,5.3,2.4,5.3,5.7c0,3.8-2.2,6-5.3,6c-3.1,0-5-2.4-5-6.2
	C751.3,368.4,753.4,365.7,756.3,365.7z"/>
<polygon fill="#00467F" points="787.4,380.6 787.4,357.4 795.8,357.4 795.8,354 775.7,354 775.7,357.4 784,357.4 784,380.6 "/>
<path fill="#00467F" d="M800.1,371c-2.6,1-5.3,2.2-5.3,5.5c0,2.2,1.4,4.3,3.8,4.3c1.4,0,2.9-0.5,4.3-1.7c0.2,1.2,1,1.7,2.4,1.7
	c1,0,1.7-0.2,3.1-1.4v-2.2c-0.7,0.5-1.4,1-1.7,1c-0.5,0-0.5-0.2-0.5-1v-8.9c0-4.1-2.6-5.7-5.7-5.7c-2.4,0-4.1,0.7-5.3,2.4v3.8
	c1.4-1.9,3.4-2.9,5-2.9c1.9,0,2.9,1,2.9,3.1v1L800.1,371z M802.7,377c-0.7,1-1.7,1.4-2.6,1.4c-1.2,0-2.2-1-2.2-2.4
	c0-2.2,2.4-3.1,5-4.1v5H802.7z"/>
<path fill="#00467F" d="M836.7,380.6v-11c0-4.1-1.9-6.9-5.3-6.9c-2.2,0-3.8,1.4-5.3,3.1c-1-2.2-2.6-3.1-4.8-3.1
	c-1.4,0-2.9,1-4.5,2.6v-2.4h-3.1v17.5h3.1v-12.7c1.2-1.7,2.4-2.2,3.8-2.2s2.9,1.2,2.9,4.1v10.8h3.1v-12.7c1.2-1.2,2.4-2.2,3.6-2.2
	c1.9,0,3.4,1.4,3.4,4.1v10.8h3.1V380.6z"/>
<path fill="#00467F" d="M847.9,371c-2.4,1-5.3,2.2-5.3,5.5c0,2.2,1.4,4.3,3.8,4.3c1.4,0,2.9-0.5,4.3-1.7c0.2,1.2,1,1.7,2.4,1.7
	c1,0,1.7-0.2,3.1-1.4v-2.2c-0.7,0.5-1.4,1-1.7,1c-0.5,0-0.5-0.2-0.5-1v-8.9c0-4.1-2.6-5.7-5.7-5.7c-2.2,0-4.1,0.7-5.3,2.4v3.8
	c1.4-1.9,3.4-2.9,5-2.9c1.9,0,2.9,1,2.9,3.1v1L847.9,371z M850.8,377c-1,1-1.7,1.4-2.6,1.4c-1.2,0-2.2-1-2.2-2.4
	c0-2.2,2.4-3.1,5-4.1v5H850.8z"/>
<polygon fill="#00467F" points="872.1,363.1 865.2,371.7 872.8,380.6 877.1,380.6 869,371.7 875.7,363.1 "/>
<rect x="861.8" y="354" fill="#00467F" width="3.1" height="26.6"/>
<path fill="#00467F" d="M883.4,355.7c-1,0-1.9,1-1.9,2.2c0,1.2,1,2.2,1.9,2.2c1,0,1.9-1,1.9-2.2C885,356.6,884.3,355.7,883.4,355.7z
	"/>
<rect x="881.7" y="363.1" fill="#00467F" width="3.1" height="17.5"/>
<polygon fill="#00467F" points="927.6,380.6 927.6,354 924.5,354 916.6,365 908.7,354 905.4,354 905.4,380.6 909,380.6 909,360
	909,360 916.4,370 916.9,370 924.3,360 924.3,360 924.3,380.6 "/>
<path fill="#00467F" d="M939.6,371c-2.4,1-5.3,2.2-5.3,5.5c0,2.2,1.4,4.3,3.8,4.3c1.4,0,2.9-0.5,4.3-1.7c0.2,1.2,1,1.7,2.4,1.7
	c1,0,1.7-0.2,3.1-1.4v-2.2c-0.7,0.5-1.4,1-1.7,1c-0.5,0-0.5-0.2-0.5-1v-8.9c0-4.1-2.6-5.7-5.7-5.7c-2.4,0-4.1,0.7-5.3,2.4v3.8
	c1.4-1.9,3.4-2.9,5-2.9c1.9,0,2.9,1,2.9,3.1v1L939.6,371z M942.2,377c-0.7,1-1.7,1.4-2.6,1.4c-1.2,0-2.2-1-2.2-2.4
	c0-2.2,2.4-3.1,5-4.1v5H942.2z"/>
<polygon fill="#00467F" points="963.5,363.1 956.6,371.7 964.5,380.6 968.8,380.6 960.7,371.7 967.4,363.1 "/>
<rect x="953.5" y="354" fill="#00467F" width="3.1" height="26.6"/>
<path fill="#00467F" d="M972.2,365v3.8c1.4-1.9,3.4-2.9,5-2.9c1.9,0,2.9,1,2.9,3.1v1l-2.9,1.2c-2.6,1-5.3,2.2-5.3,5.5
	c0,2.2,1.4,4.3,3.8,4.3c1.4,0,2.9-0.5,4.3-1.7c0.2,1.2,1,1.7,2.4,1.7c1,0,1.7-0.2,3.1-1.4v-2.2c-0.7,0.5-1.4,1-1.7,1
	c-0.5,0-0.5-0.2-0.5-1v-8.9c0-4.1-2.6-5.7-5.7-5.7C975.3,362.6,973.4,363.6,972.2,365z M980.1,377c-1,1-1.7,1.4-2.6,1.4
	c-1.2,0-2.2-1-2.2-2.4c0-2.2,2.4-3.1,5-4.1v5H980.1z"/>
<path fill="#00467F" d="M1004.2,380.6v-17.5h-3.1v12.4c-1,1.7-2.4,2.4-3.8,2.4c-2.2,0-3.1-1.4-3.1-3.8v-11h-3.1v10.8
	c0,4.5,2.2,6.9,5.5,6.9c1.4,0,3.4-1,4.5-2.6v2.2h3.1V380.6z"/>
<path fill="#00467F" d="M1011.9,363.1v17.5h3.1v-9.1c0-3.1,1.7-5.3,3.8-5.3c0.7,0,1.9,0.7,2.9,1.7l1.7-2.9c-1.2-1.4-2.4-1.9-3.8-1.9
	c-1.4,0-2.9,1.2-4.5,4.3l0,0v-4.1h-3.1V363.1z"/>
<path fill="#00467F" d="M1032.7,371c-2.6,1-5.3,2.2-5.3,5.5c0,2.2,1.4,4.3,3.8,4.3c1.4,0,2.9-0.5,4.3-1.7c0.2,1.2,1,1.7,2.4,1.7
	c1,0,1.7-0.2,2.9-1.4v-2.2c-0.7,0.5-1.4,1-1.7,1c-0.5,0-0.5-0.2-0.5-1v-8.9c0-4.1-2.4-5.7-5.7-5.7c-2.2,0-4.1,0.7-5.3,2.4v3.8
	c1.4-1.9,3.4-2.9,5-2.9c1.9,0,2.9,1,2.9,3.1v1L1032.7,371z M1035.3,377c-1,1-1.7,1.4-2.6,1.4c-1.2,0-2.2-1-2.2-2.4
	c0-2.2,2.4-3.1,5-4.1v5H1035.3z"/>
<path fill="#00467F" d="M1059.8,380.6v-17.5h-3.1v12.4c-1,1.7-2.4,2.4-3.8,2.4c-2.2,0-3.1-1.4-3.1-3.8v-11h-3.1v10.8
	c0,4.5,2.2,6.9,5.5,6.9c1.4,0,3.4-1,4.5-2.6v2.2h3.1V380.6z"/>
<rect x="630.9" y="358.8" fill="#00467F" width="9.1" height="1.7"/>
<rect x="795.5" y="358.8" fill="#00467F" width="9.1" height="1.7"/>
<polygon fill="#00467F" points="554.5,227.6 536.3,227.6 536.3,215 553.6,215 553.6,207.3 536.3,207.3 536.3,195.1 554,195.1
	554,187.4 528.7,187.4 528.7,235.3 554.5,235.3 "/>
<polygon fill="#00467F" points="775,195.1 775,187.4 749.6,187.4 749.6,235.3 775.4,235.3 775.4,227.6 757.2,227.6 757.2,215
	774.5,215 774.5,207.3 757.2,207.3 757.2,195.1 "/>
<polygon fill="#00467F" points="486.3,215.2 508.1,215.2 508.1,235.3 515.8,235.3 515.8,187.4 508.1,187.4 508.1,207.5 486.3,207.5
	486.3,187.4 478.7,187.4 478.7,235.3 486.3,235.3 "/>
<path fill="#00467F" d="M600.7,236c6.2,0,11.2-1.9,14.6-5.5c3.1-3.4,4.8-8.4,4.8-14.1v-29h-7.7v27.8c0,4.8-0.7,7.7-2.4,9.6
	c-1.2,1.2-3.8,3.4-9.1,3.4c-3.4,0-6.2-1.2-8.4-3.6c-1.7-1.9-2.4-4.1-2.4-8.9v-28.2h-7.7v29.7c0,6,1.9,11,5.7,14.4
	C591.6,234.3,595.9,236,600.7,236z"/>
<path fill="#00467F" d="M671.3,235.3v-47.9h-7.2c0,0,0,33.3,0,34.2c-0.7-1-27-34.2-27-34.2h-6v47.9h7.2c0,0,0-33,0-34
	c0.7,1,26.6,34,26.6,34H671.3z"/>
<path fill="#00467F" d="M740.2,187.4h-7.7c0,0-11.5,30.2-12,31.1c-0.2-1-12-31.1-12-31.1H701l18.7,48.3h2.4L740.2,187.4z"/>
<path fill="#00467F" d="M814.7,235.3h9.1l-1.2-1.9c-2.6-3.8-3.6-5.5-5.3-8.4c-1.4-2.6-2.9-5.3-4.5-7.7c-1.4-1.9-2.6-3.4-4.1-4.5
	c4.1-2.4,6.2-6.5,6.2-11.5c0-4.1-1.4-7.7-3.8-10.1c-2.6-2.4-6.2-3.6-10.5-3.6h-11.2v47.9h7.7c0,0,0-19.6,0-20.1c0.2,0,1.7,0,1.7,0
	c2.6,0,4.8,0.7,10.3,10.3L814.7,235.3z M807.3,201.1c0,1.9-0.5,3.6-1.7,4.5c-1.2,1.2-3.1,1.9-5.7,1.9c0,0-2.6,0-3.1,0
	c0-0.5,0-12.4,0-12.9c0.2,0,3.1,0,3.1,0C804.9,194.9,807.3,196.8,807.3,201.1L807.3,201.1z"/>
<path fill="#00467F" d="M842.7,195.1c3.1,0,6.2,1.4,9.1,4.5l1.2,1.2l0.2,0.2V191l0,0l-0.2-0.2c-3.1-2.2-6.5-3.4-9.8-3.4
	c-4.1,0-7.4,1.2-9.8,3.6s-3.6,5.7-3.6,9.6c0,6.7,4.5,10.3,9.3,13.4l1.2,0.7l2.2,1.4c1.2,1,2.2,1.7,2.9,2.2c1.7,1.7,2.6,3.4,2.6,5.3
	s-1.7,5-6,5c-3.8,0-7.4-2.2-10.3-6.5l-1.2-1.7L830,220l0.2,11.5l0,0c3.6,3.1,7.4,4.5,12.2,4.5c3.6,0,6.7-1.4,8.9-3.8
	c2.2-2.4,3.6-5.7,3.6-9.6c0-7.9-4.8-11.7-9.3-14.6l-3.4-2.2c-1.2-0.7-2.2-1.4-2.9-1.9c-1.7-1.4-2.6-2.9-2.6-4.8
	C836.9,197,839.3,195.1,842.7,195.1z"/>
<path fill="#00467F" d="M941,235.3h7.7v-24.9l16.3-23h-9.3c0,0-10.5,14.8-10.8,15.3c-0.2-0.5-10.8-15.3-10.8-15.3h-9.3
	c0,0,16.3,22.7,16.3,23V235.3z"/>
<rect x="683.8" y="187.4" fill="#00467F" width="7.7" height="47.9"/>
<rect x="868.3" y="187.4" fill="#00467F" width="7.7" height="47.9"/>
<polygon fill="#00467F" points="450.4,235.3 458.1,235.3 458.1,195.1 472.4,195.1 472.4,187.4 436.1,187.4 436.1,195.1 450.4,195.1
	"/>
<polygon fill="#00467F" points="899.9,235.3 907.5,235.3 907.5,195.1 921.9,195.1 921.9,187.4 885.5,187.4 885.5,195.1 899.9,195.1
	"/>
<polygon fill="#00467F" points="1042.3,213.5 1058.3,213.5 1058.3,206.1 1042.3,206.1 1042.3,194.9 1058.3,194.9 1058.3,187.4
	1034.9,187.4 1034.9,234.8 1042.3,234.8 "/>
<path fill="#00467F" d="M1002.8,236c6.9,0,12.7-2.6,17-7.4c3.8-4.5,6.2-10.5,6.2-17c0-6.5-2.2-12.7-6.2-17
	c-4.3-4.8-10.1-7.2-16.8-7.2c-6.5,0-12.4,2.6-16.8,7.2c-4.1,4.5-6.2,10.5-6.2,17c0,6.5,2.2,12.4,6.2,17
	C990.3,233.4,996.3,236,1002.8,236z M992,199.9c2.9-3.1,6.7-4.8,10.8-4.8c8.9,0,15.3,6.9,15.3,16.5c0,4.5-1.4,8.9-4.3,12
	c-2.9,3.1-6.7,4.8-10.8,4.8c-4.3,0-8.1-1.7-10.8-4.8c-2.9-3.1-4.3-7.2-4.3-12C987.7,207.1,989.4,202.8,992,199.9z"/>
<path fill="#00467F" d="M857,254.2h-9.1l-31.4,81.9H830c0,0,8.9-22.7,8.9-23.2c0.5,0,27.8,0,28.2,0c0.2,0.5,9.3,23.2,9.3,23.2h13.4
	L857,254.2z M843.9,299.9c0.2-1,8.1-21.8,8.6-23.2c0.7,1.4,9.1,22.3,9.3,23.2C860.9,299.9,844.8,299.9,843.9,299.9z"/>
<polygon fill="#00467F" points="805.3,323.1 773.3,323.1 773.3,254.7 760.4,254.7 760.4,336.1 805.3,336.1 "/>
<path fill="#00467F" d="M458.1,312.8c0.5,0,27.8,0,28.2,0c0.2,0.5,9.3,23.2,9.3,23.2h13.4l-32.8-81.9h-9.1l-31.4,81.9h13.4
	C449.2,336.1,458.1,313.3,458.1,312.8z M471.7,276.7c0.5,1.4,8.9,22.3,9.3,23.2c-1,0-17,0-17.9,0
	C463.3,299.2,471.2,278.4,471.7,276.7z"/>
<path fill="#00467F" d="M663.4,329.6v-15.8l-0.5,0.5l-1.7,1.2c-7.7,5.5-16,8.6-23.9,8.6c-7.9,0-14.8-2.6-19.6-7.9
	c-5-5.3-7.4-12.4-7.4-20.6c0-8.1,2.6-15.3,7.7-20.6c5-5.3,11.7-8.1,19.1-8.1c7.9,0,15.1,2.4,23.7,7.9l1.7,1l0.5,0.2l-0.7-15.8H662
	c-9.8-4.5-17.2-6.7-24.9-6.7c-23.2,0-40.2,17.9-40.2,42.8c0,9.3,3.6,19.4,9.3,26.6c5,6.5,14.4,13.9,30.2,13.9
	C648.8,337,656.7,333.4,663.4,329.6L663.4,329.6z"/>
<path fill="#00467F" d="M707.9,293.2c0.5-0.5,31.8-38.5,31.8-38.5h-16.3c0,0-26.6,32.1-27.5,33.5c0-1.7,0-33.5,0-33.5H683v81.4H696
	c0,0,0-34.9,0-36.6c1.2,1.2,34,36.6,34,36.6h17.7C747.7,336.1,708.4,293.7,707.9,293.2z"/>
<path fill="#00467F" d="M1053.3,267.9c-6.9-8.6-17.2-13.2-29.7-13.2h-29v81.4h29c11.5,0,21.3-4.3,28.5-12.4
	c6.5-7.4,10.3-17.7,10.3-28C1062.6,285.3,1059,275.3,1053.3,267.9z M1022.4,323.1c0,0-14.1,0-14.8,0c0-0.7,0-54.8,0-55.5
	c0.7,0,14.4,0,14.4,0c8.9,0,16,2.9,20.8,8.1c4.3,4.8,6.7,11.7,6.7,19.6C1049.2,305.7,1043.5,323.1,1022.4,323.1z"/>
<path fill="#00467F" d="M549,337c10.5,0,18.9-3.1,24.7-9.1c5.3-5.7,8.1-14.1,8.1-24.2v-49.1h-12.9v47.1c0,8.4-1.2,12.9-4.1,16.3
	c-1.9,2.2-6.7,5.7-15.6,5.7c-5.7,0-10.5-1.9-14.1-6.2c-2.9-3.4-3.8-6.9-3.8-15.3v-47.9h-12.9v50.3c0,10.3,3.4,18.7,9.6,24.4
	C533.2,334.4,540.9,337,549,337z"/>
<path fill="#00467F" d="M961.1,312.8c-1.2-1.4-45.7-58.2-45.7-58.2h-10.1v81.4h12.2c0,0,0-56,0-57.7c1.2,1.4,45.2,57.7,45.2,57.7
	h10.8v-81.4h-12.4C961.1,254.7,961.1,311.2,961.1,312.8z"/>
<polygon fill="#00467F" points="461.9,441.4 442.3,418.2 436.8,418.2 436.8,451.2 443,451.2 443,427.7 462.9,451.2 468.4,451.2
	468.4,418.2 461.9,418.2 "/>
<polygon fill="#00467F" points="508.1,436.8 522.7,436.8 522.7,431.8 508.1,431.8 508.1,423.2 523.2,423.2 523.2,418.2 501.9,418.2
	501.9,451.2 523.7,451.2 523.7,446.4 508.1,446.4 "/>
<polygon fill="#00467F" points="590.2,438.7 581.3,418.2 575.8,418.2 567.2,438.5 559.1,418.2 552.4,418.2 566,451.7 568.2,451.7
	578.7,427 589,451.7 591.1,451.7 604.8,418.2 598.3,418.2 "/>
<polygon fill="#00467F" points="702,418.2 672.8,418.2 672.8,423.2 690.9,423.2 671.6,451.2 702.2,451.2 702.2,446.4 682.6,446.4
	"/>
<polygon fill="#00467F" points="739.5,436.8 754.1,436.8 754.1,431.8 739.5,431.8 739.5,423.2 754.6,423.2 754.6,418.2 733.3,418.2
	733.3,451.2 755.1,451.2 755.1,446.4 739.5,446.4 "/>
<path fill="#00467F" d="M797.4,418.2l-13.6,33.3h6.7l3.1-8.1h14.8l3.4,8.1h6.7l-14.6-33.3H797.4z M795.8,438.3l5-13.2l5.5,13.2
	H795.8z"/>
<polygon fill="#00467F" points="855.4,418.2 848.9,418.2 848.9,451.2 871.4,451.2 871.4,446.4 855.4,446.4 "/>
<path fill="#00467F" d="M912.3,418.2l-13.6,33.3h6.7l3.1-8.1h14.8l3.4,8.1h6.7l-14.6-33.3H912.3z M910.4,438.3l5-13.2l5.5,13.2
	H910.4z"/>
<polygon fill="#00467F" points="988.9,441.4 969.3,418.2 963.5,418.2 963.5,451.2 969.8,451.2 969.8,427.7 989.6,451.2 995.1,451.2
	995.1,418.2 988.9,418.2 "/>
<path fill="#00467F" d="M1051.9,420.3c-2.6-1.4-5.7-2.2-9.1-2.2h-13.9v33.3h13.4c3.6,0,6.7-0.7,9.6-2.2c2.9-1.4,4.8-3.4,6.5-5.7
	c1.4-2.4,2.2-5.5,2.2-8.6s-0.7-6-2.2-8.6C1056.6,423.7,1054.5,421.7,1051.9,420.3z M1050.4,443c-2.2,2.2-5,3.1-8.6,3.1h-6.7v-23.2
	h6.7c3.6,0,6.5,1,8.6,3.1c2.2,2.2,3.4,4.8,3.4,8.4C1053.8,438.3,1052.6,440.9,1050.4,443z"/>
<rect x="436.3" y="401.4" fill="#00467F" width="625.6" height="3.6"/>
<g>
	<path fill="#00467F" d="M151.7,257.1L151.7,257.1c6.5,0,12.7,1.7,18.4,4.8l0,0l0.7,0.5c10.8,6.5,24.9,6.5,35.7,0l0.5-0.2l0,0
		c11.5-6.5,26.1-6.2,37.3,0.2l0.2,0.2c10.8,6.2,24.9,6.2,35.4-0.2l0.2-0.2c11.5-6.7,26.3-6.5,37.6,0.2c10.8,6.5,24.9,6.2,35.7,0
		c5.7-3.4,12.4-5,19.1-5v-64.4H151.7V257.1z"/>
	<path fill="#00467F" d="M261.1,381.1c-0.5-0.7-0.7-1.2-1.2-1.7h-3.8c-0.7,0-1.2,0.5-1.2,1.2c0,0.7,0.5,1.2,1.2,1.2h12.2
		c0.7,0,1.2-0.5,1.2-1.2c0-0.7-0.5-1.2-1.2-1.2h-3.8c-0.5,0.5-0.7,1.2-1.2,1.7H261.1z"/>
	<path fill="#00467F" d="M259.9,379.1c0.5,0.5,0.7,1.2,1.2,1.7h2.2c0.5-0.7,0.7-1.2,1.2-1.7h-1v-2.6c-0.5,0.5-0.7,1-1.2,1.7
		c-0.5-0.5-0.7-1.2-1.2-1.7v2.6H259.9z"/>
	<polygon fill="#00467F" points="223.1,281.3 217.8,264.7 212.5,281.3 195.3,281.3 209.4,291.5 204.4,307.8 217.8,297.5
		231.4,307.8 226.2,291.5 240.5,281.3 	"/>
	<polygon fill="#00467F" points="311.8,281 306.6,264.7 301.3,281 283.8,281 298.2,291.3 292.9,307.6 306.6,297.5 320,307.6
		315,291.3 329.1,281 	"/>
	<polygon fill="#00467F" points="267.3,409.1 262.3,392.8 257,409.1 239.6,409.1 253.9,419.3 248.7,435.6 262.3,425.6 275.7,435.6
		270.4,419.3 284.8,409.1 	"/>
	<path fill="#00467F" d="M146.7,187.9v116.6c0,9.6,3.8,35.2,18.2,62.2c19.9,37.6,52.4,66.1,96.4,84.5l1,0.5l1-0.5
		c94.1-39.3,114.6-119.4,114.6-146.7V187.9H146.7z"/>
	<path fill="#FFFFFF" d="M271.4,375.6l-1.7,1.2l1.7,1c1.2,0.7,1.9,1.7,1.9,3.1c0,1.9-1.7,3.6-3.6,3.6h-15.1c-1.9,0-3.6-1.7-3.6-3.6
		c0-1.2,0.7-2.4,1.9-3.1l1.7-1l-1.7-1.2c-3.6-2.4-7.7-3.6-12-3.6c-4.1,0-8.4,1.2-12,3.6c-4.1,2.6-7.9,3.6-14.1,3.6
		c-8.1,0-14.6-2.4-20.6-7.7l-0.2-0.2h-3.8l-0.2,0.5c-0.5,0.7-1.4,1-2.2,1c-1.4,0-2.9-1.2-2.9-2.6c0-1.4,1.2-2.6,2.9-2.6
		c1,0,1.7,0.5,2.2,1l0.2,0.5h4.5v-5.3h-4.5l-0.2,0.5c-0.5,0.7-1.4,1-2.2,1c-1.4,0-2.9-1.2-2.9-2.6s1.2-2.6,2.9-2.6
		c1,0,1.7,0.5,2.2,1l0.2,0.5h4.5v-5.5h-4.5l-0.2,0.5c-0.5,0.7-1.4,1-2.2,1c-1.4,0-2.9-1.2-2.9-2.6s1.2-2.6,2.9-2.6
		c1,0,1.7,0.5,2.2,1l0.2,0.5h4.5v-5.5h-4.5l-0.2,0.5c-0.5,0.7-1.4,1-2.2,1c-1.4,0-2.9-1.2-2.9-2.6s1.2-2.6,2.9-2.6
		c1,0,1.7,0.5,2.2,1l0.2,0.5h4.5v-5.5h-4.5l-0.2,0.5c-0.5,0.7-1.4,1-2.2,1c-1.4,0-2.9-1.2-2.9-2.6s1.2-2.6,2.9-2.6
		c1,0,1.7,0.5,2.2,1l0.2,0.5h4.5v-5h-4.5l-0.2,0.5c-0.5,0.7-1.4,1-2.2,1c-1.4,0-2.9-1.2-2.9-2.6s1.2-2.6,2.9-2.6c1,0,1.7,0.5,2.2,1
		l0.2,0.5h4.5v-5.5h-4.5l-0.2,0.5c-0.5,0.7-1.4,1-2.2,1c-1.4,0-2.9-1.2-2.9-2.6s1.2-2.6,2.9-2.6c1,0,1.7,0.5,2.2,1l0.2,0.5h3.6
		l3.8-1.9V370l0.5,1c10.3,6.5,20.8,7.2,30.2,1.9c9.8-5.5,23.7-5.7,31.8,6h-4.1c-0.7,0-1.2,0.5-1.2,1.2c0,0.7,0.5,1.2,1.2,1.2h12.2
		c0.7,0,1.2-0.5,1.2-1.2c0-0.7-0.5-1.2-1.2-1.2h-3.8c8.4-12,22-10.8,31.8-6c8.6,4.3,18.7,3.8,29.9-1.9l0.7-1v-49.8l3.8,1.9h3.6
		l0.2-0.5c0.5-0.7,1.4-1,2.2-1c1.4,0,2.9,1.2,2.9,2.6s-1.2,2.6-2.9,2.6c-1,0-1.7-0.5-2.2-1l-0.2-0.5h-4.5v5.5h4.3l0.2-0.5
		c0.5-0.7,1.4-1,2.2-1c1.4,0,2.9,1.2,2.9,2.6s-1.2,2.6-2.9,2.6c-1,0-1.7-0.5-2.2-1l-0.2-0.5h-4.5v5.5h4.5l0.2-0.5
		c0.5-0.7,1.4-1,2.2-1c1.4,0,2.9,1.2,2.9,2.6s-1.2,2.6-2.9,2.6c-1,0-1.7-0.5-2.2-1l-0.2-0.5h-4.5v5.5h4.5l0.2-0.5
		c0.5-0.7,1.4-1,2.2-1c1.4,0,2.9,1.2,2.9,2.6s-1.2,2.6-2.9,2.6c-1,0-1.7-0.5-2.2-1l-0.2-0.5h-4.5v5.5h4.5l0.2-0.5
		c0.5-0.7,1.4-1,2.2-1c1.4,0,2.9,1.2,2.9,2.6s-1.2,2.6-2.9,2.6c-1,0-1.7-0.5-2.2-1l-0.2-0.5h-4.5v5.5h4.5l0.2-0.5
		c0.5-0.7,1.4-1,2.2-1c1.4,0,2.9,1.2,2.9,2.6s-1.2,2.6-2.9,2.6c-1,0-1.7-0.5-2.2-1l-0.2-0.5h-4.5v5.5h4.5l0.2-0.5
		c0.5-0.7,1.4-1,2.2-1c1.4,0,2.9,1.2,2.9,2.6c0,1.4-1.2,2.6-2.9,2.6c-1,0-1.7-0.5-2.2-1l-0.2-0.5h-3.8l-0.2,0.2
		c-6,5-12.4,7.7-20.6,7.7c-6.5,0-10.1-1-14.4-3.6C287.7,370.5,278.6,370.5,271.4,375.6z"/>
	<path fill="#FFFFFF" d="M203.2,368.6c7.7,4.1,13.9,5.3,25.4-0.7c12.4-6.5,25.1-2.2,32.5,4.8v3.8c-9.1-11.7-23.5-11.2-34-5.5
		c-8.4,4.8-17.7,4.3-27-1.4v-50.3l2.6-1.2v50.3L203.2,368.6z"/>
	<path fill="#FFFFFF" d="M204.9,366.9v-50.3l0.2-0.2c8.6,1.9,15.1,1.4,23.9-2.4c10.5-4.5,21.3-3.1,31.8,4.3v51
		c-5-4.3-12.2-7.2-19.9-7.2c-4.5,0-9.1,1-13.9,3.4C217.3,371,211.8,370.3,204.9,366.9z"/>
	<path fill="#FFFFFF" d="M296.1,367.9c11.2,6,17.7,4.8,25.4,0.7l0.7-0.2v-50.3l2.6,1.2v50.3c-10.3,5-19.4,5.5-27,1.4
		c-10.3-5.3-24.7-6.5-34,5.5v-3.8C270.7,365.7,283.6,361.4,296.1,367.9z"/>
	<path fill="#FFFFFF" d="M263.5,369.6v-51c10.5-7.2,21.3-8.6,31.8-4.3c8.6,3.6,15.3,4.3,23.9,2.4l0.2,0.2v50
		c-6.7,3.6-12.2,4.3-22.5-1C284.6,359.3,271.6,362.9,263.5,369.6z"/>
	<polygon fill="#FFFFFF" points="320,307.6 306.6,297.3 293.2,307.6 298.4,291.3 284.3,281 301.6,281 306.8,264.5 312.1,281
		329.3,281 315.2,291.3 	"/>
	<polygon fill="#FFFFFF" points="231.4,307.8 217.8,297.5 204.4,307.8 209.7,291.5 195.5,281.3 212.8,281.3 218,265 223.3,281.3
		240.5,281.3 226.4,291.5 	"/>
	<polygon fill="#FFFFFF" points="248.7,435.6 253.9,419.3 239.8,409.1 257,409.1 262.3,392.8 267.6,409.1 284.8,409.1 270.7,419.3
		275.9,435.6 262.5,425.3 	"/>
	<path fill="#FFFFFF" d="M372.6,257.3c-6.7,0-13.4,1.7-19.1,5c-10.8,6.2-24.9,6.5-35.7,0c-11.2-6.7-26.3-6.7-37.6-0.2l-0.2,0.2
		c-10.8,6.2-24.7,6.5-35.4,0.2l-0.2-0.2c-11.2-6.7-26.1-6.7-37.3-0.2l0,0l-0.5,0.2c-10.8,6.2-24.9,6.2-35.7,0l-0.7-0.5l0,0
		c-5.5-3.1-11.7-4.8-18.2-4.8l0,0v-64.1h220.9v64.4H372.6z"/>
	<path fill="#00467F" d="M183.3,208.5c4.1-4.8,9.3-5.3,11.7-5.5c17.2-0.5,25.8,12.4,25.6,22.7c-0.5,11.7-9.3,14.6-10.5,14.8
		c0,0-0.2,2.6,1.9,6c0.2,0.2,0.5,0.5,0.2,1.2c0,0.2-0.5,0.7-0.5,1c0,0-0.2,0.5,0,1c0.2,0.7,0,1.7-0.7,2.6c-0.5,1,0,3.4,0.2,5
		c0,0.2-0.2,0.2-0.5,0c-1.2-0.7-1.9-2.9-2.2-4.1c-2.2,0.5-4.5,3.6-5.3,5.5c0,0.2-0.5,0.5-0.5,0c0-0.2-0.5-3.6,2.9-6.2
		c-1.7-0.5-3.4,0.2-4.5,1c0,0-0.5,0.2-0.2-0.2c0,0,1-2.4,5.5-2.9c0-0.2,1-1.7,1.4-2.9c0-1.7-1-3.8-2.2-5.7c-0.2,0-3.4,0.2-5.5,1.9
		c-0.2,0-0.5,0.5-0.5,0.7c0,0.2,0,1,0,1c0,0.2-0.2,1-1.2,1.4c0,0-3.8,1.2-5.7,2.2c0,0-1.7,0.7-2.9,2.4c-0.2,0.2-1.2,1.7-2.6,2.2
		c-0.2,0-1,0.5-1.7,1c-0.5,0.5-1,1-1.4,1.4c-0.5,0.2-1.4,1.4-2.2,2.9c0,0.2-0.2,0.5-0.2,0c0-0.7,0-1.4,0-1.4
		c0.5-1.9,1.2-2.9,2.2-3.6c-0.2,0-0.2,0-0.5-0.2c-1.4,0.2-5.7-0.2-8.4,1c-0.2,0-0.5,0-0.2-0.2c0.5-0.7,1.4-3.1,7.2-3.4
		c0-0.5-2.6-1.9-4.1-1.9c-0.5,0-0.2-0.2,0-0.2c0.2-0.2,2.9-1.2,6,0.7c0.2,0,2.2-0.7,3.4-1c1.4-1,4.5-4.1,5.7-4.5c0-0.2,0-1,0-1.4
		h-0.2c-1.7-2.4-1.9-5.7-1.9-7.7c-3.4-0.2-6.9-3.4-8.9-5.7c-2.4-0.2-7.2-2.2-9.8-7.4c-8.9,6.2-14.6,17.5-14.8,18.2
		c-0.2,0.2-0.2,0.2-0.5,0c-1-1.7-1.2-4.3-0.7-5.3c1.7-4.5,5.7-11,10.1-16.8c-1.7-9.6,7.2-12.7,10.5-12.7
		C180.5,205.4,182.8,207.8,183.3,208.5L183.3,208.5z"/>
	<path fill="#FFFFFF" d="M200.6,209.9C200.6,209.9,200.3,209.9,200.6,209.9c0.2-0.7,1.9-1.4,3.1-1.4c-5-2.2-8.4,0.5-8.4,0.2v-0.2
		c0,0,0.7-1.2,2.4-2.4c-4.8,0-7.2,2.6-7.2,2.6v-0.2c0,0,0.2-1,1.9-2.4c-5.3,0.2-9.6,6.9-9.6,6.9s-1-4.8-5.5-4.8
		c-3.4-0.5-11,4.1-8.1,10.5c-1.4,2.6-5.7,6.5-9.8,14.4c0,0.2,0,0,0,0.2c3.4-5,8.4-11.2,13.6-14.4c0.5,0.5,3.4,8.1,10.3,8.4
		c0.7,0.5,4.1,6.2,10.1,5.7c0,0.7,0,6,1.2,7.9l0.2,0.2c0-0.2,0,0,0,0c0.5-0.5,3.8-3.1,6.7-3.8c0,0,1.2-3.8,1.9-4.8
		c5.7-1.4,8.9-6,9.1-10.5C212.3,215.7,206.8,209,200.6,209.9z M171.6,217.4c-0.7,0-1.4-0.7-1.4-1.4s0.7-1.4,1.4-1.4
		c0.7,0,1.4,0.7,1.4,1.4C173,216.6,172.6,217.4,171.6,217.4z"/>
	<path fill="#00467F" d="M255.8,208.5c4.1-4.8,9.3-5.3,11.7-5.5c17.2-0.5,25.8,12.4,25.6,22.7c-0.5,11.7-9.3,14.6-10.5,14.8
		c0,0-0.2,2.6,1.9,6c0.2,0.2,0.5,0.5,0.2,1.2c0,0.2-0.5,0.7-0.5,1c0,0-0.2,0.5,0,1c0.2,0.7,0,1.7-0.7,2.6c-0.5,1,0,3.4,0.2,5
		c0,0.2-0.2,0.2-0.5,0c-1.2-0.7-1.9-2.9-2.2-4.1c-2.2,0.5-4.5,3.6-5.3,5.5c0,0.2-0.5,0.5-0.7,0c0-0.2-0.5-3.6,2.9-6.2
		c-1.7-0.5-3.4,0.2-4.5,1c0,0-0.5,0.2-0.2-0.2c0,0,1-2.4,5.5-2.9c0-0.2,1-1.7,1.4-2.9c0-1.7-1-3.8-2.2-5.7c-0.2,0-3.4,0.2-5.5,1.9
		c-0.2,0-0.5,0.5-0.5,0.7c0,0.2,0,1,0,1c0,0.2-0.2,1-1.2,1.4c0,0-3.8,1.2-5.7,2.2c0,0-1.7,0.7-2.9,2.4c-0.2,0.2-1.2,1.7-2.6,2.2
		c-0.2,0-1,0.5-1.7,1c-0.5,0.5-1,1-1.4,1.4c-0.5,0.2-1.4,1.4-2.2,2.9c0,0.2-0.2,0.5-0.2,0c0-0.7,0-1.4,0-1.4
		c0.5-1.9,1.2-2.9,2.2-3.6c-0.2,0-0.2,0-0.5-0.2c-1.4,0.2-5.7-0.2-8.4,1c-0.2,0-0.5,0-0.2-0.2c0.5-0.7,1.4-3.1,7.2-3.4
		c0-0.5-2.6-1.9-3.8-1.9c-0.5,0-0.2-0.2,0-0.2c0.2-0.2,2.9-1.2,6,0.7c0.2,0,2.2-0.7,3.4-1c1.4-1,4.5-4.1,5.7-4.5c0-0.2,0-1,0-1.4
		h-0.2c-1.7-2.4-1.9-5.7-1.9-7.7c-3.4-0.2-6.9-3.4-8.9-5.7c-2.4-0.2-7.2-2.2-9.8-7.4c-8.9,6.2-14.6,17.5-14.8,18.2
		c-0.2,0.2-0.2,0.2-0.5,0c-1-1.7-1.2-4.3-0.7-5.3c1.7-4.5,5.7-11,10.1-16.8c-1.7-9.6,7.2-12.7,10.5-12.7
		C253,205.4,255.6,207.8,255.8,208.5L255.8,208.5z"/>
	<path fill="#FFFFFF" d="M273.1,209.9C273.1,209.9,272.8,209.9,273.1,209.9c0.2-0.7,1.9-1.4,3.1-1.4c-5-2.2-8.4,0.5-8.4,0.2v-0.2
		c0,0,0.7-1.2,2.4-2.4c-4.8,0-7.2,2.6-7.2,2.6v-0.2c0,0,0.2-1,1.9-2.4c-5.3,0.2-9.6,6.9-9.6,6.9s-1-4.8-5.5-4.8
		c-3.4-0.5-11,4.1-8.1,10.5c-1.4,2.6-5.7,6.5-9.6,14.4c0,0.2,0,0,0,0.2c3.4-5,8.4-11.2,13.6-14.4c0.5,0.5,3.4,8.1,10.3,8.4
		c0.7,0.5,4.1,6.2,10.1,5.7c0,0.7,0,6,1.2,7.9l0.2,0.2c0-0.2,0,0,0,0c0.5-0.5,3.8-3.1,6.7-3.8c0,0,1.2-3.8,1.9-4.8
		c5.7-1.4,8.9-6,9.1-10.5C284.8,215.7,279.3,209,273.1,209.9z M244.4,217.4c-0.7,0-1.4-0.7-1.4-1.4s0.7-1.4,1.4-1.4
		c0.7,0,1.4,0.7,1.4,1.4C245.8,216.6,245.1,217.4,244.4,217.4z"/>
	<path fill="#00467F" d="M328.1,208.5c4.1-4.8,9.3-5.3,11.7-5.5c17.2-0.5,25.8,12.4,25.6,22.7c-0.5,11.7-9.3,14.6-10.5,14.8
		c0,0-0.2,2.6,1.9,6c0.2,0.2,0.5,0.5,0.2,1.2c0,0.2-0.5,0.7-0.5,1c0,0-0.2,0.5,0,1c0.2,0.7,0,1.7-0.7,2.6c-0.5,1,0,3.4,0.2,5
		c0,0.2-0.2,0.2-0.5,0c-1.2-0.7-1.9-2.9-2.2-4.1c-2.2,0.5-4.5,3.6-5.3,5.5c0,0.2-0.5,0.5-0.5,0c0-0.2-0.5-3.6,2.9-6.2
		c-1.7-0.5-3.4,0.2-4.5,1c0,0-0.5,0.2-0.2-0.2c0,0,1-2.4,5.5-2.9c0-0.2,1-1.7,1.4-2.9c0-1.7-1-3.8-1.9-5.7c-0.2,0-3.4,0.2-5.5,1.9
		c-0.2,0-0.5,0.5-0.5,0.7c0,0.2,0,1,0,1c0,0.2-0.2,1-1.2,1.4c0,0-3.8,1.2-5.7,2.2c0,0-1.7,0.7-2.9,2.4c-0.2,0.2-1.2,1.7-2.6,2.2
		c-0.2,0-1,0.5-1.7,1c-0.5,0.5-1,1-1.4,1.4c-0.5,0.2-1.4,1.4-2.2,2.9c0,0.2-0.2,0.5-0.2,0c0-0.7,0-1.4,0-1.4
		c0.5-1.9,1.2-2.9,2.2-3.6c-0.2,0-0.2,0-0.5-0.2c-1.4,0.2-5.7-0.2-8.4,1c-0.2,0-0.5,0-0.2-0.2c0.5-0.7,1.4-3.1,7.2-3.4
		c0-0.5-2.6-1.9-4.1-1.9c-0.5,0-0.2-0.2,0-0.2c0.2-0.2,2.9-1.2,6,0.7c0.2,0,2.2-0.7,3.4-1c1.4-1,4.5-4.1,5.7-4.5c0-0.2,0-1,0-1.4
		h-0.2c-1.7-2.4-1.9-5.7-1.9-7.7c-3.4-0.2-6.9-3.4-8.9-5.7c-2.4-0.2-7.2-2.2-9.8-7.4c-8.9,6.2-14.6,17.5-14.8,18.2
		c-0.2,0.2-0.2,0.2-0.5,0c-1-1.7-1.2-4.3-0.7-5.3c1.7-4.5,5.7-11,10.3-16.8c-1.7-9.6,7.2-12.7,10.5-12.7
		C325.2,205.4,327.6,207.8,328.1,208.5L328.1,208.5z"/>
	<path fill="#FFFFFF" d="M345.4,209.9C345.4,209.9,345.1,209.9,345.4,209.9c0.2-0.7,1.9-1.4,3.1-1.4c-5.3-2.2-8.6,0.5-8.4,0.2v-0.2
		c0,0,0.7-1.2,2.4-2.4c-4.8,0-7.2,2.6-7.2,2.6v-0.2c0,0,0.2-1,1.9-2.4c-5.3,0.2-9.6,6.9-9.6,6.9s-1-4.8-5.7-4.8
		c-3.4-0.5-11,4.1-8.1,10.5c-1.4,2.6-6,6.5-9.8,14.4c0,0.2,0,0,0,0.2c3.4-5,8.4-11.2,13.6-14.4c0.5,0.5,3.4,8.1,10.3,8.4
		c0.7,0.5,4.1,6.2,10.1,5.7c0,0.7,0,6,1.2,7.9l0.2,0.2c0-0.2,0,0,0,0c0.5-0.5,3.8-3.1,6.7-3.8c0,0,1.2-3.8,1.9-4.8
		c5.7-1.4,8.9-6,9.1-10.5C357.1,215.7,351.6,209,345.4,209.9z M316.4,217.4c-0.7,0-1.4-0.7-1.4-1.4s0.7-1.4,1.4-1.4s1.4,0.7,1.4,1.4
		C317.8,216.6,317.4,217.4,316.4,217.4z"/>
</g>
</svg>